<?xml version="1.0" encoding="UTF-8"?>
<svg width="250mm" height="100mm" version="1.1" viewBox="0 0 250 100" xmlns="http://www.w3.org/2000/svg">
	<g transform="translate(0,-197)">
		<g>
			<g fill="#f2f2f2" stroke-width=".26458" aria-label="Let's">
				<path d="m53.174 216.13h2.8956l0.1016 0.4064q0 0.3556-0.1016 0.6096-0.0508 0.2032-0.1524 0.508-0.7112 0-1.4732 0.3048-0.7112 0.3048-1.27 0.7112l0.5588 8.9408q-0.0508 0.0508-0.0508 0.5588v0.5588l0.2032 0.1016v1.9304q0 0.4572-0.0508 0.9144t-0.254 0.8128q0.0508 0.4064 0.0508 0.8636 0.0508 0.4064 0.0508 0.8128 0 0.3048-0.0508 0.6096t-0.0508 0.5588q0 0.0508 0 0.1016 0.0508 0 0.0508 0.0508t-0.0508 0.0508q0 1.3208 0 1.524 0.0508 0.2032 0.1016 0.2032 0.254 0 0.254 0.2032l-0.0508 0.3048-0.3048 0.254v0.508q0 0.5588 0.0508 1.0668 0.0508 0.4572 0.3048 0.9144l-0.0508 0.254-0.2032 0.2032q0.1524 1.1684 0.1524 1.6256 0.0508 0.4064 0.0508 0.5588 0 0.0508 0.3556 0.1524 0.3556 0.0508 0.8128 0.1016 0.4572 0 0.8636 0.0508 0.4572 0 0.5588 0 1.9812 0 3.9116-0.254 1.9812-0.254 3.9624-0.254 0.3556 0 0.762-0.3048 0.4572-0.3048 0.8128-0.7112 0.4064-0.4572 0.6604-0.9652 0.3048-0.508 0.3556-0.9144l0.3556-0.0508q0.3556 0 0.6604 0.0508 0.3556 0 0.7112 0l0.1524 0.1524v0.3048q-0.3048 0.2032-0.4572 0.6096-0.1016 0.4064-0.1524 0.8636t-0.1016 0.9144-0.2032 0.8636l-0.1524 0.1524-0.2032 0.5588q0.0508 0.0508 0.0508 0.1524t-0.0508 0.1016l-0.1016 0.254 0.0508 0.2032q0.0508 0.1524 0.0508 0.3556 0 0.4572-0.4064 0.508-0.3556 0.0508-0.6604 0.3556-0.3556 0.3048-0.8636 0.3048l-0.0508-0.3556h-3.3528q-3.1496 0-6.2484 0.0508-3.048 0.0508-6.1976 0.1016l-0.3048 0.254-0.254-0.2032h-2.4892l-0.3048-0.3048v-0.762l0.1016-0.2032 0.3556-0.1016 0.6096 0.0508q0.3048-0.1524 0.5588-0.3556 0.3048-0.2032 0.6096-0.3048l0.0508-0.5588q0.4572-1.1176 0.3556-2.1336-0.0508-1.0668 0.2032-2.2352-0.254-0.9652-0.254-1.9304 0.0508-0.9652 0-1.9812l-0.0508-1.1684-0.1524-0.3048 0.1524-0.1524q0-0.1016-0.0508-0.1524 0-0.0508 0-0.1524 0-0.4572 0.1524-0.9144l-0.1524-0.1524q-0.0508-0.1524-0.0508-0.508 0-0.4572 0.1016-0.9652 0.1016-0.5588 0.1524-0.9652-0.1524-0.3048-0.2032-0.8128-0.0508-0.5588-0.1016-1.1176-0.0508-0.6096-0.0508-1.1684 0-0.6096-0.0508-0.9652l0.1524-0.2032q-0.1016-0.5588-0.2032-1.1176-0.0508-0.5588-0.0508-1.1176 0-0.8128 0.254-1.3716l-0.2032-0.0508-0.0508-0.3556 0.3556-0.3556v-0.7112q0-0.508 0.0508-0.762-0.2032-0.508-0.3556-0.9652-0.1016-0.508-0.2032-1.016l0.2032-0.254-0.4572-0.2032-1.0668-0.0508q-0.1016 0-0.254 0.1016-0.1524 0.0508-0.254 0.0508t-0.1016-0.2032v-0.9144h-0.3048l0.0508-0.4064h1.778q0.5588 0 1.1176 0.0508 0.6096 0 1.2192 0 0.7112 0 1.3716-0.0508t1.2192-0.254zm-3.9624 9.7028q0.7112-0.4064 1.4732-0.7112 0.762-0.3556 1.524-0.762-0.5588 0.2032-1.0668 0.4572-0.508 0.2032-1.0668 0.2032l-0.8636 0.3556 0.6604-0.3556-0.1016-0.3556-0.5588 0.254v-0.4064l-0.1524-0.2032 0.1524-0.3048q0.5588-0.3048 1.1684-0.508 0.6096-0.254 1.1684-0.5588-0.1524 0.0508-0.3048 0.1016-0.1016 0-0.254 0-0.0508 0-0.1016 0-0.0508-0.0508-0.1016-0.0508l-1.5748 0.762v-0.5588l1.4732-0.5588q0.4572-0.4572 0.9652-0.8128l-2.286 0.8636v0.254l-0.3048 0.1524-0.0508 0.9652q0 0.4572 0.0508 0.9144 0.1016 0.4064 0.1524 0.8636zm2.7432 2.0828q-0.0508 0.0508-0.1524 0.0508-0.5588 0.254-1.1176 0.5588-0.508 0.254-0.9144 0.6604h0.3048q0.6604-0.4572 1.524-0.762t1.5748-0.6096v-0.7112q-0.0508 0-0.1524 0.0508t-0.1016 0.1524q-0.5588 0.254-1.1176 0.5588t-1.1176 0.5588zm12.243 15.545q-0.6096 0.1524-1.0668 0.254-0.4064 0.1016-0.8128 0.3048t-0.8636 0.508q-0.4064 0.3048-1.016 0.8636 0.7112-0.3048 1.3208-0.7112 0.6096-0.4572 1.3208-0.7112l0.254 0.2032q0.6604-0.4064 1.5748-0.8128h-0.2032l-0.254 0.1524zm-8.7376 1.3716q-0.4572 0.1524-0.9144 0.1524-0.1016 0-0.1524 0-0.0508-0.0508-0.1524-0.0508l-2.286 1.1684h0.9144zm-2.0828-3.556q-0.1524 0.2032-0.6096 0.4572-0.4064 0.254-0.9652 0.5588-0.508 0.3048-1.016 0.6096t-0.8128 0.6096q0.7112-0.254 1.27-0.6604 0.5588-0.4572 1.27-0.6096l0.1524 0.0508 0.762-0.3048zm6.6548 4.7244 0.3048-0.2032-0.254 0.0508-0.2032-0.2032q0.0508-0.4064 0.508-0.8636-0.7112 0.4064-1.3208 0.762-0.5588 0.3048-1.3716 0.4572zm-6.35-16.713q-0.1016-0.1016-0.2032-0.2032-0.0508-0.1016-0.2032-0.1016-0.762 0.3048-1.524 0.6096-0.7112 0.3048-1.4732 0.5588l-0.4064 0.3556q0.8636-0.1524 1.6764-0.5588 0.8128-0.4572 1.6764-0.762l0.1016 0.4064-0.3556 0.2032 0.762-0.3048zm-0.6096-6.0452q-0.7112 0.3048-1.4224 0.6096-0.6604 0.254-1.27 0.762 0.7112-0.1016 1.3208-0.4064 0.6604-0.3048 1.3716-0.508zm-2.0828 11.024q0.254-0.254 0.508-0.4064 0.254-0.2032 0.508-0.4064-1.1684 0.508-2.54 0.9144l-0.1016 0.4572zm1.3716-15.088-0.7112-0.1016-1.4224 0.4572-0.4064 0.6096zm12.497 25.959q-0.7112 0-1.3208 0.3048-0.6096 0.254-1.2192 0.508h1.1176q0.3048-0.1524 0.6096-0.254 0.3048-0.1524 0.6604-0.2032zm-12.243-2.54-2.0828 1.2192q0.7112-0.3048 1.4224-0.6096 0.762-0.3048 1.4732-0.5588v-0.4064zm-2.2352 2.8956q-0.5588 0.1524-1.0668 0.254t-0.9652 0.4064h1.4224q0.3556-0.1524 0.6604-0.3048 0.3048-0.2032 0.508-0.508l-1.6256 0.7112zm2.794-6.4516q-0.8128 0.4064-1.4732 0.8636-0.6604 0.4064-1.4224 0.8636 0.7112-0.4064 1.4224-0.6604 0.7112-0.3048 1.4732-0.5588zm0.5588 4.3688q-0.8636 0.4572-1.7272 0.8636-0.8128 0.4064-1.6764 0.8128 0.7112-0.2032 1.4224-0.6604t1.524-0.4572l0.508-0.254zm-4.318-7.0612 0.8128-0.3048q0.3556-0.4064 0.8636-0.6096 0.508-0.254 0.9144-0.508l-2.5908 1.016zm2.794-4.2164q-0.1016 0.1524-0.6604 0.5588-0.5588 0.3556-0.762 0.508l2.4892-1.1176zm-1.1684-6.5532-0.3556 0.4572q0.6604-0.2032 1.27-0.5588 0.6604-0.3556 1.3208-0.6096l-0.0508-0.1524zm4.318 19.964-0.2032 0.0508-0.1016-0.3556q-0.4572 0.2032-0.9144 0.4064-0.4064 0.2032-0.8128 0.4572l0.9652-0.0508zm-5.9436-23.622q0.0508 0 0.0508 0.1524 0.4064-0.1016 0.8636-0.3048 0.508-0.254 0.9652-0.508 0.508-0.254 0.9652-0.4064 0.508-0.2032 0.8128-0.2032v-0.2032q-0.9144 0.3556-1.8288 0.7112t-1.8288 0.762zm-0.0508-0.6604q0.4572-0.1016 1.1684-0.5588 0.762-0.4572 1.1684-0.762-0.6096 0.254-1.1684 0.508-0.508 0.254-1.1684 0.508zm16.459 22.606q-0.254 0.254-0.5588 0.4064-0.254 0.1016-0.508 0.3048l2.2352-0.9652-0.762-0.1016-0.3556 0.1524zm-13.208-5.1816q-0.1016 0.1524-0.6604 0.4572t-0.8128 0.4572l0.5588-0.3048 0.2032 0.1524q0.3048-0.1524 0.6096-0.254 0.3556-0.1524 0.6096-0.3556l-0.0508-0.3556zm0.3048-4.064q-0.0508 0.0508-0.3556 0.254-0.254 0.2032-0.6096 0.4064-0.3048 0.2032-0.6096 0.3556-0.254 0.1016-0.254 0.1016l-0.4064 0.3048q0.6096-0.1016 1.1176-0.4064 0.5588-0.3556 1.1176-0.6096zm-3.5052 0.762q0.5588-0.254 1.016-0.4064l0.4064-0.5588-1.4732 0.5588zm7.9756 10.617 0.4572-0.254 0.0508-0.2032 0.5588-0.5588-1.8796 1.016zm-7.1628-19.609-0.0508-0.254 0.1016-0.3048-1.016 0.508 0.0508 0.4572zm10.008 17.628q-0.3556 0.3556-0.762 0.6604-0.3556 0.254-0.762 0.5588 0.5588-0.2032 1.0668-0.508 0.508-0.3556 1.016-0.7112zm-7.0612-22.809q-0.254 0.0508-0.762 0.4572-0.4572 0.3556-0.6604 0.5588l1.4224-0.5588zm-1.778 23.978q-0.1524 0.508-0.6096 0.8128l1.778-0.9652-0.5588 0.1524-0.1524-0.2032zm-1.016-8.636-0.2032-0.3048 0.0508-0.1524-0.8128 0.3556 0.0508 0.508zm3.2004-19.609q0.1016-0.0508 0.3556-0.0508 0.1016 0 0.254 0.0508 0.1524 0 0.254 0h-0.254q-0.508 0-0.9652-0.1524l-0.1524 0.1016q-0.508 0.1016-0.8128 0.4064 0.508-0.1524 0.8128-0.3556l0.0508 0.6096 0.0508-0.4572zm-3.048-0.2032q-0.254 0-0.5588 0.2032l-0.0508 0.254-0.3556 0.3048q0.3556-0.1016 0.762-0.3048 0.4572-0.2032 0.7112-0.4572zm-0.3048 10.668-0.2032-0.254-0.8128 0.3048v0.4572zm3.81-10.922q0.254 0.1016 0.508 0.1016 0.3048 0 0.5588 0 0.508 0 0.762-0.0508l-2.4384 0.1524zm13.259 27.534q-0.3048 0.1016-0.6096 0.3556-0.254 0.254-0.508 0.4572 0.4572 0 0.9144-0.1524zm-14.275-10.414q-0.5588 0.254-0.9144 0.4064-0.3048 0.1524-0.8636 0.6096 0.4064-0.2032 0.8128-0.4064t0.9144-0.3048zm-2.7432 4.6736 0.1524-0.4064-0.9652 0.4064 0.0508 0.3556zm1.4224-20.777q-0.4064 0.2032-0.8128 0.4064t-0.8128 0.508l1.6764-0.6604zm-1.7272 20.015v-0.2032l0.4572-0.4572-0.9652 0.4572v0.4064zm4.318 6.1976q-0.1016 0-0.4064 0.1524t-0.4064 0.254l-0.0508 0.1524-0.3556 0.2032 1.4732-0.6096zm13.462-2.9972-0.508-0.1524-0.1524 0.7112 0.8128-0.4064zm-17.069 1.2192q0.6604-0.1524 1.2192-0.5588 0.6096-0.4572 1.1684-0.762-0.1524 0.0508-0.508 0.254t-0.762 0.4064-0.7112 0.4064q-0.3048 0.1524-0.4064 0.254zm2.3368-21.996q0-0.1524 0.0508-0.254 0.1016-0.1016 0.1016-0.254l-0.6096 0.254-0.1524 0.4572zm-3.1496-0.5588 0.2032-0.254-0.6604-0.0508-0.3048 0.1524 0.1016 0.254zm5.5372-2.54-0.1016 0.2032h-0.7112l1.0668-0.4064q0.1016 0 0.2032 0.1016zm-2.4892 18.948q-0.7112 0.254-1.016 0.4572-0.254 0.2032-0.8128 0.6604l1.6256-1.016q0.1016 0.0508 0.1016 0.0508l0.0508 0.0508q0.0508 0 0.0508-0.2032zm-1.0668-19.05q-0.254 0.1016-0.4572 0.254-0.1524 0.1524-0.4064 0.254l1.1176-0.254 0.2032-0.254zm14.834 28.905-0.1016-0.4064-0.254 0.0508 0.1016 0.3048-0.1524 0.3048h0.5588v-0.3048zm-5.9436 0.3048h1.016l-0.1524-0.254 0.0508-0.1524zm-11.786-1.27q0.2032-0.1016 0.2032-0.2032l0.3048-0.1524 0.1524-0.2032q-0.1016 0-0.1016 0 0.0508-0.0508-0.0508-0.1016-0.1524 0-0.2032-0.0508-0.0508 0.0508-0.1016 0.2032-0.0508 0.1016-0.1016 0.1016zm1.5748-12.852q-0.1016 0.0508-0.3048 0.0508-0.3048 0-0.4572-0.0508l-0.2032-0.1016v0.5588zm2.6416-6.0452-0.4064 0.1524 0.0508 0.3048q-0.1016 0-0.1016 0.1016 0 0.0508-0.1016 0.1016l0.508-0.2032zm12.548 17.221q0.2032-0.254 0.508-0.3556 0.3556-0.1524 0.6096-0.4064l-0.1524-0.1016-0.254 0.1016zm-16.154-11.684q0.4064-0.1524 0.762-0.508l-0.762 0.1524zm0.3048 11.379 0.5588-0.3048-0.3556-0.2032-0.1524 0.0508zm-0.0508 0.508q0.2032-0.2032 0.4064-0.3556 0.254-0.2032 0.508-0.3556-0.2032 0.0508-0.508 0.1524t-0.4064 0.254zm3.3528-24.994 0.7112-0.7112q0.1016-0.0508 0.1016-0.1016 0-0.1524 0.1016-0.254-0.3048 0.1524-0.508 0.508-0.1524 0.3048-0.4064 0.5588zm-1.27 8.128q-0.254 0.1016-0.762 0.3048-0.4572 0.1524-0.6096 0.3048 0.762-0.1016 1.3716-0.6096zm-2.0828-8.6868 0.508-0.4064-0.8128 0.3048-0.0508 0.1524zm3.2004 15.85 0.0508-0.3048-0.8128 0.6096zm12.802 11.227q-0.2032 0.1016-0.3556 0.254-0.1016 0.1524-0.254 0.3048l0.4572-0.1524zm-15.951-4.6228 0.5588-0.508-0.5588 0.254-0.1016 0.2032v0.3048zm8.1788 3.8608 0.2032 0.3048 0.6096-0.254zm-8.636-10.414q0.2032-0.0508 0.3048-0.1016 0.1524-0.0508 0.3048-0.1524h-0.4572zm-1.016-16.713q0 0.1524-0.0508 0.1524t-0.1016 0q0-0.0508-0.0508-0.0508l-0.1524 0.2032 0.9144-0.4064zm0.8636 1.4224q0.0508 0.1524 0.0508 0.4064l0.4064-0.4572zm17.831 24.943 0.254 0.1016 0.1016 0.2032 0.1016-0.508zm-1.1176 2.4384q-0.4064 0.2032-0.6096 0.254h0.4572zm-15.24-7.2136-0.3048 0.3048 0.8636-0.4064zm-3.4036-21.488-0.4064 0.2032v0.2032zm1.4224 0.508q0.1016 0.2032 0.2032 0.254 0.0508-0.1524 0.254-0.3556zm2.286 13.716q-0.1016 0.0508-0.4572 0.1524-0.3048 0.1016-0.4064 0.2032 0.254-0.1016 0.4572-0.1524 0.2032-0.1016 0.4064-0.2032zm11.532 13.97-0.2032 0.2032 0.6604-0.4064zm-10.922-7.3152q0.4572-0.2032 0.762-0.4064-0.2032 0.1016-0.4064 0.2032-0.1524 0.1016-0.3556 0.2032zm0.9652-20.879 0.4572-0.1524-0.3048-0.0508zm-2.8956 23.825 0.2032-0.254q-0.0508 0-0.1016 0.0508-0.0508 0-0.1016 0zm2.2352-3.4544q-0.254 0.0508-0.508 0.2032-0.2032 0.1524-0.3556 0.3048zm-2.7432-8.5344 0.0508 0.1524 0.3556-0.1524-0.254 0.0508zm0.1016 0.4064 0.1016-0.1524-0.1524 0.0508 0.0508 0.4064zm17.577 15.799q0.0508 0.1016 0.0508 0.3048l0.1524-0.3048zm-5.7912-1.3716q0.3048-0.1016 0.508-0.1016h-0.3556zm-8.6868-8.382h-0.1016zm4.3688 9.652q0.0508 0 0.2032-0.1524z" style="font-feature-settings:normal;font-variant-caps:normal;font-variant-ligatures:normal;font-variant-numeric:normal"/>
				<path d="m77.152 242.08-0.5588-0.2032q0.1524 0.2032 0.3556 0.3556 0.2032 0.1016 0.4064 0.254l0.1524-0.1016q0.3048 0.254 0.8636 0.508 0.5588 0.2032 1.1684 0.4064 0.6604 0.1524 1.2192 0.254 0.6096 0.1016 0.9652 0.1016 0.5588 0 1.27-0.254 0.7112-0.3048 1.3716-0.7112 0.7112-0.4064 1.3208-0.8636 0.6096-0.508 0.9652-0.9144 0.2032-0.2032 0.4064-0.3556 0.2032-0.2032 0.4572-0.3048-0.0508-0.0508-0.1524-0.0508-0.0508 0-0.1016-0.0508l0.1016-0.3556 0.4572-0.0508q0.3048 0 0.5588 0.1524t0.254 0.5588l0.254 0.0508 0.3048 0.6604q0 0.4572-0.3556 0.8128-0.3048 0.3556-0.6604 0.6096-0.8636 1.6256-2.3876 2.4892-1.524 0.8128-3.1496 1.4224h-0.5588q-0.5588 0-1.1176 0.1016t-1.1176 0.3556q-1.1684-0.4572-2.3368-0.7112-1.1176-0.254-2.2352-1.016-0.6096 0-1.0668-0.3556t-0.8128-0.8636q-0.3556-0.5588-0.6604-1.1176-0.254-0.6096-0.5588-1.0668l-0.0508 0.3556-0.3048 0.0508q-0.3048-0.3556-0.5588-0.8636-0.2032-0.508-0.4064-1.0668-0.1524-0.5588-0.3556-1.1176t-0.4064-0.9652l0.1524-0.3048q-0.2032-0.254-0.254-0.6096 0-0.3556 0-0.7112 0-0.6604 0.1016-1.5748 0.1524-0.9144 0.3556-1.8288 0.2032-0.9652 0.4572-1.8288 0.254-0.9144 0.508-1.524h0.3556v0.6604q0.4572-0.6096 0.6604-1.3716 0.254-0.8128 0.762-1.4732l-0.0508-0.254q0.5588-0.8128 1.4224-1.27t1.778-0.8128l0.3048-0.1016q0.0508 0 0.0508 0 0.0508-0.0508 0.1016-0.0508 0.508-0.254 1.016-0.4064 0.5588-0.2032 1.1176-0.2032 0.254 0 0.5588 0.1016 0.3556 0.1016 0.4572 0.3556 0.4064-0.2032 0.9144-0.2032 0.5588 0 1.0668 0.2032 0.5588 0.2032 1.1176 0.4572l0.1016 0.2032q0.0508 0.0508 0.0508 0.0508 0.1524 0 0.6096 0.2032 0.4572 0.1524 0.6096 0.254l-0.1016 0.1524 0.254 0.3048 0.4572 0.3048 0.3556 0.4064 0.1524-0.1016q-0.2032-0.254-0.4572-0.4572-0.2032-0.254-0.4572-0.508l0.7112 0.3048 0.4572 0.6604 0.254-0.0508 0.1524 0.254-0.1524 0.254q0.4572 0.8636 1.2192 1.7272 0.8128 0.8636 0.8128 1.5748 0.254 0.508 0.3048 1.1176 0.1016 0.5588 0.2032 1.1176-0.1524 0.508-0.1524 1.1684 0 0.1524 0 0.3556 0.0508 0.1524 0.0508 0.3048-0.1016 0.0508-0.2032 0.1524t-0.2032 0.1016v-0.2032q-0.2032 0.3556-0.5588 0.508-0.3048 0.1016-0.7112 0.1016-0.8636 0-1.778-0.1016-0.8636-0.1016-1.7272-0.1016-0.6096 0.3048-1.3208 0.508-0.6604 0.2032-1.3716 0.2032-0.5588 0-1.1176-0.1524-0.254 0.0508-0.7112 0.1016-0.4572 0-1.016 0-0.6604 0-1.27 0-0.6096-0.0508-0.8636-0.1016v0.3048q0 0.4064-0.1016 0.9652-0.1016 0.508-0.1016 0.9652 0 0.7112 0.1016 1.4224t0.508 1.27q-0.2032-0.3556-0.3048-0.7112-0.1016-0.4064-0.2032-0.8128 0-0.0508-0.0508-0.0508 0-0.0508 0-0.1016 0.1016 0.1524 0.254 0.508 0.2032 0.3048 0.3556 0.6604 0.2032 0.3556 0.3048 0.6096 0.1524 0.254 0.1524 0.254l0.3556-0.1524 0.3048 0.3556-0.1524 0.3556zm7.112-9.4996q-0.1016-0.762-0.6096-1.4732-0.508-0.762-0.9144-1.4224-0.7112-0.6604-1.4224-0.8636-0.6604-0.254-1.3208-0.8128l-0.9144-0.254 0.254 0.3556-0.1016 0.2032q-0.508 0.4572-0.9144 0.4572t-0.7112 0.254l-0.0508 0.2032q-0.1524 0.0508-0.4572 0.508-0.254 0.4064-0.5588 0.9652-0.254 0.508-0.508 1.0668-0.2032 0.508-0.3048 0.8128l0.1016 0.254q0.762-0.2032 1.524-0.2032 0.8128-0.0508 1.6256-0.0508zm-11.633-2.794q0.4064-0.6096 0.762-0.9144t0.9144-0.762l-0.2032-0.1016-0.6604 0.3556-0.3048-0.1016-0.2032 0.4064q-0.3556 0.762-0.762 1.6256t-0.762 1.6764q-0.3048 0.762-0.5588 1.3716-0.2032 0.6096-0.2032 0.9144l0.2032 0.1016 0.2032 1.2192 0.6604-0.508q0-0.4572 0.2032-0.9144t0.4572-0.8128l-1.3208 0.9652q0.0508-0.508 0.1524-0.9652 0.1524-0.4572 0.254-0.9144 0.254-0.1016 0.6096-0.3048 0.4064-0.254 0.5588-0.508l-0.254 0.0508-0.1524-0.3048 0.1524-0.254-0.5588 0.3556q0.1016-0.254 0.2032-0.508t0.2032-0.508l1.4224-0.8636 0.1524-0.2032q-0.254-0.1524-0.3048-0.2032zm10.465 4.5212h-0.5588l-0.2032-0.1524q-0.3048 0.254-0.7112 0.4572-0.3556 0.2032-0.762 0.2032-0.254 0-0.4064-0.0508-0.1524-0.1016-0.6604-0.1016-0.4064 0-0.762 0.0508-0.3556 0-0.5588 0.1016 0.7112 0 1.3716 0.1016 0.6604 0.0508 1.3208 0.0508 0.762 0 1.524-0.1016 0.762-0.1524 1.524-0.1524 0.6604 0 1.3208 0.3048 0.6604 0.254 1.3716 0.254t0.9144-0.6096h-0.508l0.6096-0.3556-0.1016-0.3048-1.27 0.6604h-1.3716l1.1176-0.6604-0.254-0.4064q-0.508 0.1524-1.016 0.508-0.4572 0.3048-0.8636 0.5588h-1.5748zm3.81 6.9596q-1.2192 1.1684-2.6416 1.8796-1.3716 0.6604-2.6924 1.6256l0.3556-0.1524 0.2032 0.0508q1.1684-0.8636 2.4892-1.6256 1.3716-0.8128 2.6924-1.524l0.9144-0.508 0.0508-0.254q-0.1016 0-0.2032 0-0.0508-0.0508-0.1524-0.0508zm-11.938-9.0932q-0.4572 0.4064-0.9652 0.762t-0.9144 0.762q0.4064-0.1016 0.6096-0.4572 0.254-0.4064 0.6604-0.4064l0.1524 0.1016 0.254-0.1016 0.2032 0.254q0.0508 0 0.2032 0 0.2032 0 0.2032-0.0508l-0.1016-0.2032 0.2032-0.6604-0.1016-0.2032q0.2032-0.8636 0.7112-1.778-0.254 0.3048-0.4064 0.8128l-0.9144 0.6604q0.0508 0 0.1524 0.1016 0.1524 0.0508 0.1524 0.1524zm1.0668-3.302q-0.3556 0.3556-0.6604 0.7112t-0.762 0.5588l0.508-0.0508 1.6764-0.9652q0.1016-0.1016 0.2032-0.254t0.2032-0.254l0.0508-0.508zm2.286-2.6924-0.2032 0.3048q-0.8128 0.1524-1.524 0.8636l0.254 0.1016 3.4544-2.0828q0.0508 0 0.1016 0.0508 0.0508 0 0.1016 0 0.3048 0 0.6096-0.1524l-0.4064-0.0508q-0.6604 0-1.3208 0.4064l-0.3048 0.0508zm-3.048 9.0932q1.3208-0.4064 2.6416-0.4572l-0.1524-0.508 0.1524-0.254q-0.4064 0.254-0.9144 0.508-0.4572 0.2032-0.9652 0.2032-0.3556 0-0.6096-0.2032v-0.254l-0.1016 0.254q-0.1016 0-0.4064 0.3556-0.254 0.3048-0.3048 0.4064 0.0508-0.0508 0.254-0.1524 0.0508-0.0508 0.1524-0.1016 0.254 0 0.254 0.2032zm8.7884-1.9304q-0.2032 0-0.4064 0.0508-0.1524 0-0.3556 0l-0.508 0.4572h0.254q0.8636 0 1.524-0.3556t1.2192-0.9144l-0.0508-0.2032q-0.2032 0.2032-0.4572 0.4064-0.254 0.1524-0.508 0.4064l-0.4064-0.0508-0.0508-0.1524h-0.254zm-5.0292 10.058-0.4572-0.1524-1.27 1.016q0.254-0.1016 0.4572-0.254 0.2032-0.2032 0.508-0.2032l0.2032 0.2032v0.254l1.0668-0.7112-0.4572-0.1524-0.6096 0.3556zm-5.1816-8.4836q0.7112-0.254 1.3716-0.8128 0.1016 0 0.1016 0.1016 0.0508 0.1016 0.1016 0.1016 0.254-0.2032 0.4572-0.3556 0.1524-0.1016 0.3048-0.2032 0.2032-0.1524 0.3048-0.1524h-0.8128l-1.5748 0.9652zm0.9652 0.9652q0.0508-0.1524 0.0508-0.508-0.4572 0.254-0.8636 0.6604-0.4064 0.3556-0.8128 0.762 0.4572 0 0.8636-0.254l0.4572-0.508h0.3556q0-0.1524-0.0508-0.1524zm4.7752-8.4836 0.3048-0.254q0-0.2032 0-0.4064 0.0508-0.2032 0.1524-0.3556l-1.4732 0.9144zm-1.1176 17.069v0.3048l1.1176-1.016 0.2032-0.1016zm-3.2512-3.4036 0.1524-0.1016-0.0508-0.3048-1.2192 0.762v0.4572q0.5588-0.3048 0.8636-0.8636zm5.8928-13.411q0.9652-0.508 1.778-1.2192l0.1524-0.1016q-0.1016 0.0508-0.3556 0.2032t-0.508 0.3048-0.508 0.3048q-0.2032 0.1016-0.254 0.2032h-0.4572l-0.3048 0.2032h-0.5588zm-0.0508-1.6764q-0.254 0.1016-0.4572 0.3556-0.1524 0.254-0.3048 0.508 0.4064-0.1524 0.762-0.3556t0.6604-0.4572zm5.7912 17.374q-0.254 0.254-0.508 0.508-0.2032 0.254-0.4572 0.4572l0.3556-0.1524 0.9652-0.9144v-0.3556l-0.762 0.4064-0.3048 0.508zm-8.1788-9.8044q-0.1016 0.254-0.3048 0.4572-0.1524 0.2032-0.254 0.4064l1.4224-0.8636zm-7.366 3.5052q0.5588-0.0508 0.8636-0.3556 0.3556-0.3048 0.4064-0.3048l0.2032 0.2032 0.1524-0.6604zm8.5852 7.2644 0.1524 0.0508 0.0508 0.3556 0.9652-0.6096q-0.1016-0.1016-0.3048-0.1016-0.1524 0-0.3048 0zm-7.7724-9.8552 0.1524 0.3048 0.8636-0.6604-0.6096-0.0508-0.1016-0.1524zm8.6868 11.227q-0.5588 0.1524-0.762 0.254-0.1524 0.1016-0.5588 0.508l0.8128 0.1524 0.3048-0.254h-0.6604zm5.334-14.376-0.0508 0.254h0.2032q0.1016-0.1016 0.4064-0.254 0.3556-0.1524 0.4064-0.254l-0.2032-0.254zm-9.1948 13.919-0.2032-0.7112-0.5588 0.4064 0.5588 0.4572zm-2.4384-2.8448q0.4064-0.1524 0.8636-0.1524l0.4572-0.254-0.2032-0.4064zm-4.064-4.318 0.4572 0.5588v-1.5748q0-0.254-0.0508-0.4572 0-0.254-0.0508-0.508 0 0.4572-0.0508 0.9652 0 0.4572-0.0508 0.9144zm3.6576 3.048 1.016-0.8636-0.2032-0.2032-0.4572 0.3556zm13.157-9.7028q-0.2032 0.254-0.4064 0.4572t-0.3556 0.4572l0.9652-0.508zm-8.5852-6.35-1.016 0.5588 0.3556 0.0508 0.6604-0.1524-0.1016-0.1524zm-1.1176 20.32 1.1176-0.762-1.27 0.4572zm-5.1816-4.318q0.1016 0 0.1524 0.0508 0.1016 0 0.2032 0l0.1524-0.6096h-0.254l-0.4064 0.254zm-0.5588-2.8956-0.0508 0.508 0.5588-0.4064-0.1016-0.4064zm4.9276-4.572v0.3048q-0.254 0.1016-0.508 0.2032-0.2032 0.1016-0.4064 0.254l0.3556-0.0508 1.2192-0.7112zm0.6096 11.328 0.762-0.4572v-0.2032l-0.8128 0.254zm-5.7404-8.89-0.254 0.6604 0.6096-0.4064q0-0.1016-0.0508-0.1016 0-0.0508 0-0.1016v-0.0508q0-0.0508 0-0.0508 0.0508 0 0.0508-0.1524zm3.81 5.0292q-0.2032 0.1016-0.4064 0.4572-0.1524 0.3048-0.254 0.508l0.8128-0.5588zm8.5852-11.176q-0.0508 0.0508-0.254-0.1524-0.2032-0.254-0.3048-0.3556 0.1524 0.2032 0.2032 0.4064 0.1016 0.2032 0.2032 0.4572l0.4572 0.254zm0.7112 2.3876-0.254-1.0668-0.4572-0.3048zm-13.462 6.0452 0.2032-0.1016q0.1016-0.2032 0.1524-0.3556 0.0508-0.2032 0.1524-0.3556l-0.5588 0.3048zm5.08-2.7432h1.9812q-0.254-0.0508-0.5588-0.0508-0.254-0.0508-0.5588-0.0508-0.2032 0-0.4064 0.0508-0.2032 0-0.4572 0.0508zm-3.3528-2.3368q0.3556-0.3048 0.7112-0.5588 0.3556-0.3048 0.762-0.6096l-0.7112 0.3048q-0.1016 0.1016-0.1016 0.2032zm6.2484 12.04v-0.2032q-0.3048 0.254-0.6096 0.508t-0.6604 0.3556l0.254 0.0508zm-4.9276-5.3848h0.2032l0.3556-0.4064q0-0.1524-0.1016-0.3556zm0.6604 3.3528 0.0508-0.4572-0.7112 0.4064 0.3556 0.254zm12.446-10.668q0.0508 0.0508 0.0508 0.1524v0.508l0.3048-0.1524-0.1524-0.6096zm-15.138 5.1308q0.1016-0.254 0.1524-0.4572 0.1016-0.254 0.254-0.4572-0.254 0.254-0.4572 0.5588-0.2032 0.254-0.3556 0.6096zm13.716-8.8392q-0.1524 0-0.1524 0.1016t0.0508 0.254q0.1016 0.1524 0.2032 0.254l0.2032-0.1016-0.1524-0.4064zm-11.532 14.986-0.1524 0.1016q0.3048 0.3048 0.762 0.508zm0.4064-7.7216q-0.1016 0.0508-0.254 0.4064t-0.254 0.4572l0.1016-0.4064zm4.064-11.024q0.1524 0.0508 0.6096 0.0508l-0.2032-0.254zm-6.858 10.109-0.4064 0.7112 0.3556-0.254 0.3048-0.508zm11.684-8.0772-0.2032 0.3048q0.4064-0.1016 0.6604-0.3048l-0.1524-0.1524zm-9.4488 15.85 0.6604-0.4572-0.762 0.254-0.0508 0.1524zm8.2296-15.24 0.2032-0.508-0.6604 0.3556zm-4.826 0.3048q0.1016-0.2032 0.508-0.3048 0.4572-0.1016 0.4064-0.1016-0.254 0-0.4572 0.0508-0.1524 0.0508-0.3556 0.0508zm-6.5532 8.2296 0.3556-0.762-0.4064 0.3048zm3.6576-7.9248q-0.1524 0.1016-0.4572 0.3048-0.3048 0.1524-0.4064 0.3048h0.254zm7.4168 7.1628q-0.5588 0.0508-1.0668 0.1524-0.508 0.0508-1.0668 0.0508h0.508q0.8636 0 1.6256-0.2032zm2.286-6.9088-0.4572 0.0508 0.2032 0.254zm-13.157 10.312 0.0508-0.508-0.1524 0.1016 0.1016 0.762 0.1524 0.2032zm7.4676-10.82q-0.254 0-0.6096 0.1524-0.3048 0.1016-0.254 0.1016 0.254-0.0508 0.4572-0.1016t0.4064-0.1524zm5.3848-2.6924q0.1016 0.1016 0.2032 0.1016-0.2032 0-0.5588-0.1524-0.3048-0.2032-0.3556-0.2032 0.1016 0 0.3556 0.1016t0.3556 0.1524zm-11.125 10.211q0.0508-0.1016 0.0508-0.1016-0.0508-0.0508-0.1016-0.0508l-0.4064 0.4572zm1.5748-2.032-0.1016 0.3048 0.4572-0.3048zm2.4892 12.04q0-0.1016-0.1016-0.3048l-0.2032 0.1524q0.1016 0 0.1524 0.0508t0.1524 0.1016zm-1.778-3.0988v0.2032l0.4572-0.508zm-1.4224-0.1016q0.1016-0.1016 0.1524-0.254 0.1016-0.1524 0.2032-0.254l-0.254 0.2032zm4.826-6.604q0.2032 0 0.3556 0 0.1524-0.0508 0.3556-0.1016l-0.3048-0.0508zm6.0452 8.7376q0.2032-0.1016 0.3556-0.254t0.254-0.3048zm0.8636-16.053q-0.1016-0.0508-0.1016-0.0508h-0.0508q0 0.0508-0.0508 0.1016 0 0 0 0.0508zm1.0668 4.826q-0.1524 0.0508-0.254 0.3556z" style="font-feature-settings:normal;font-variant-caps:normal;font-variant-ligatures:normal;font-variant-numeric:normal"/>
				<path d="m93.916 225.68-0.0508-0.508-0.1016-0.4064-0.254 0.1524 0.0508-0.254q-0.0508 0-0.2032-0.1524v-1.3208q0.1524 0 0.1524-0.1524l-0.7112 0.1524-0.1524-0.4064q0.254-0.2032 0.508-0.3556t0.508-0.3048v-0.2032l0.254-0.0508v-0.508l0.3048-0.1524q-0.0508 0 0.2032-0.1016 0.3048-0.1524 0.7112-0.3048t0.8128-0.3048q0.4572-0.2032 0.7112-0.3048h0.254l0.254 0.254q-0.0508 0.0508-0.3048 0.1524-0.254 0.0508-0.2032 0.1524h0.2032q0.3048-0.1524 0.4064-0.2032 0.1524-0.0508 0.254-0.1016 0.0508 0 0.0508 0 0 0.0508 0.1016 0.0508 0.1524 0 0.254 0.1016v0.4572q0.2032 0.4572 0.2032 1.1684 0 0.2032-0.0508 0.6604 0 0.4064-0.0508 0.8128-0.0508 0.3556-0.1524 0.6604-0.0508 0.3048-0.1016 0.3048l-0.2032-0.1016 0.0508 0.7112q0.1016-0.1016 0.1016-0.3556l0.762 0.1016h1.3716q0.6604 0 0.9144 0.0508 0.3048 0.0508 0.4064 0.1016 0.1524 0.0508 0.1524 0.1016 0.0508 0.0508 0.1524 0.0508l0.0508-0.1524 0.3048-0.0508q0.254 0.254 0.254 0.8636v1.6256l-0.4572-0.0508q-0.1524 0.3556-0.508 0.4572t-0.8128 0.1016q-0.254 0-0.5588 0-0.254-0.0508-0.508-0.0508t-0.6604 0.1016q-0.1524-0.0508-0.5588-0.0508l-0.1016-0.3048h-0.254q0 0.254-0.0508 0.7112 0 0.4572-0.1016 0.9652-0.0508 0.4572-0.1016 0.8128t-0.1524 0.4572l0.0508 0.3556q-0.0508 0.4064-0.0508 0.8128t-0.1016 0.8128l0.2032 0.762q-0.0508 0.762-0.0508 1.524t-0.1016 1.524l0.1524 0.254-0.0508 1.1684 0.0508 0.5588-0.2032 0.1524-0.0508 0.254 0.254 0.1016v0.508l0.254 0.1524q0.0508 0.1524 0.1016 0.3556 0.0508 0.1524 0.0508 0.254 0 0.3556-0.0508 0.7112t-0.1016 0.762q0.4064 0.5588 0.6096 0.9652t0.7112 0.8636h0.6096q0.254 0.254 0.2032 0.254l0.0508 0.0508q0.0508 0.0508 0.0508 0.1016 0.4064-0.3556 0.8636-0.508 0.508-0.2032 1.2192-0.6096l0.3048-0.2032q0-0.2032 0.1524-0.2032 0.2032 0 0.2032 0.3556 0 0.2032 0.0508 0.3556 0 0.254 0 0.5588 0.0508 0.3048 0.1524 0.5588l-0.1016 0.1524q-0.3048 0.1524-0.5588 0.3556-0.254 0.1524-0.5588 0.3048l0.1016 0.3048q-0.3048 0.4572-1.3716 0.762-1.0668 0.3048-1.8796 0.3048-0.4064 0-0.5588-0.0508l-0.508 0.1524-0.254-0.1016q-0.8636-0.3048-1.524-0.6604-0.6096-0.4064-0.9652-1.4732l-0.2032-0.6096h-0.2032q-0.3048-0.254-0.4572-0.762t-0.254-1.0668q-0.0508-0.6096-0.0508-1.1684t0-0.9144v-3.302l-0.1524-0.1524q-0.0508-0.2032-0.0508-0.6096t0-0.762q0.0508-0.3556 0.0508-0.762 0-0.8128-0.2032-1.4224 0.1016-0.3048 0.1016-0.6096 0-0.2032-0.0508-0.3556 0-0.2032 0-0.3048l0.3048-0.2032q0-0.1016-0.0508-0.508-0.0508-0.4572-0.1016-0.5588l-0.1524-0.3048q0.254-0.254 0.254-0.3556 0-0.508-0.2032-0.9144l0.2032-0.3048v-0.3048l0.1524-0.1016 0.1016-0.8636-0.9144 0.3556q0 0.1016 0.1524 0.1016 0.1524-0.0508 0.1524 0.2032t-0.5588 0.254q-0.5588-0.0508-1.27 0.1016l-0.5588-0.1524-0.2032-0.1524q-0.1016-0.2032-0.1524-0.3556-0.0508-0.2032-0.0508-0.4572 0-0.3048 0-0.5588 0.0508-0.3048 0.0508-0.6096l0.1016-0.1524q0.4064-0.2032 1.3208-0.254 0.9144-0.1016 1.3716-0.1016 0.1016 0.1016 0.1016 0.254t-0.254 0.2032q-0.2032 0-0.3048 0 0 0.0508-0.254 0.0508-0.3556 0-0.7112 0.1016-0.3048 0.1016-0.6604 0.1524l0.0508 0.3048q0.4572-0.254 1.1684-0.3556l-1.2192 0.6604-0.1016 0.3556q0.6096-0.254 1.1176-0.6096t1.2192-0.5588zm8.128 18.085q0-0.1016-0.0508-0.1016 0-0.0508 0-0.1016l-0.0508-0.0508q-0.0508-0.0508-0.0508-0.0508-0.1016 0-0.1016 0.2032-0.5588 0.5588-0.9652 0.6604t-1.1684 0.1524l-1.0668 0.7112q-0.1524 0.3556-0.4064 0.7112l0.2032 0.1016q0.9652-0.508 1.8796-1.016 0.9144-0.5588 1.778-1.2192zm-6.8072-21.641h0.9652l1.3716-0.6604v-0.3048h-0.3556zm2.1844 1.0668q-0.4572 0.508-1.1176 0.8128-0.6604 0.254-1.1684 0.7112 0.6604-0.2032 1.2192-0.508t1.1684-0.5588l0.0508-0.508zm-1.2192 20.93q0.254 0 0.4572-0.1016 0.2032-0.1524 0.4572-0.3048l-0.0508-0.6096-1.1684 0.6604-0.0508 0.2032q0.1524 0.1524 0.3556 0.1524zm-1.0668-15.037 0.1524 0.3048 1.8288-0.9652v-0.3048zm1.1684-6.4008-0.508 0.6096q0.9652-0.3048 1.778-0.762v-0.4064zm-2.4892 13.259q0.1524-0.1016 0.4572-0.2032 0.3048-0.1524 0.6096-0.3048 0.3048-0.2032 0.5588-0.3556 0.3048-0.2032 0.3556-0.3048-0.4064 0.0508-0.762 0.254-0.3048 0.1524-0.7112 0.1524l-0.5588 0.4064zm0.4064-4.7752 0.9144-0.508 0.508-0.7112-1.4732 0.762zm2.3368 2.4892q-0.3556 0.1016-0.8636 0.4064-0.508 0.254-0.762 0.5588 0.254-0.1016 0.508-0.1524 0.3048-0.1016 0.5588-0.1016 0.1016 0 0.2032 0.0508 0.1524 0 0.3556 0.0508zm0.3556-6.35 1.4732-0.6604 0.1016-0.4064q-0.254 0.1016-0.4572 0.2032-0.1524 0.0508-0.4064 0.0508l-0.5588 0.2032 0.0508 0.3556zm0.254-0.8636-0.1524-0.3048q-0.5588 0.3556-1.1684 0.6604-0.5588 0.254-1.1176 0.6604zm-1.7272 16.459 1.6764-0.9144v-0.3556q-0.3556 0.254-0.7112 0.4064-0.3048 0.1524-0.7112 0.3556zm1.3716-6.4516q-0.254 0.1524-0.508 0.3556-0.254 0.1524-0.5588 0.254l-0.3556 0.5588q0.3048-0.1524 0.5588-0.3048 0.3048-0.2032 0.6604-0.3048l0.1524 0.1524zm-2.4384 2.0828 0.4064-0.7112-0.0508-0.2032-0.8128 0.4064 0.0508 0.7112zm3.6068-12.903q-0.1016 0.1524-0.254 0.254-0.1016 0.1016-0.1016 0.254 0.3048 0 0.5588-0.1016 0.254-0.1524 0.508-0.3048l-0.3556-0.1524-0.1016-0.1524h-0.254q-0.0508 0.0508-0.0508 0.0508 0 0.0508-0.0508 0.1016-0.0508 0-0.0508 0.1016zm-1.4224 3.9116q-0.1524 0.254-0.3556 0.4572-0.1524 0.1524-0.3556 0.3556l1.1684-0.508v-0.508zm4.4196-4.0132q-0.4572 0.1524-0.762 0.1524-0.3048 0-0.5588 0.0508-0.2032 0-0.4064 0.1524t-0.508 0.5588l1.6256-0.762h0.8128zm-6.9088-1.524q0.1016-0.0508 0.3048-0.1524 0.254-0.1524 0.508-0.3048 0.254-0.2032 0.4572-0.3556 0.254-0.2032 0.3048-0.254l-1.524 0.6096zm3.9116 20.828-0.3556-0.254-0.508 0.3048-0.0508 0.6604zm-1.8288-9.2964-0.4572 0.6096 1.1176-0.5588v-0.4064zm-1.3208 3.7592q0.3556-0.2032 0.6604-0.3556 0.3556-0.2032 0.7112-0.3556l0.1016-0.4064q-0.4064 0.1524-0.8128 0.508-0.4064 0.3048-0.6604 0.6096zm0.1524-3.2512q-0.254 0.2032-0.4572 0.4572-0.2032 0.2032-0.4064 0.4572l0.9144-0.4572 0.3556-0.6604zm-0.4064 6.7564 0.5588-0.3048 0.4572-0.6096-1.1684 0.6096zm0.8128-2.54q-0.1524 0.2032-0.3048 0.4064-0.1016 0.1524-0.2032 0.3556l0.8128-0.4572-0.0508-0.4572zm0.7112-0.3556v0.3048q0.254-0.1524 0.5588-0.1524v-0.508zm-2.1844 1.016q0-0.0508 0.4064-0.254 0.4572-0.2032 0.508-0.254l0.1524-0.2032q-0.254 0.1016-0.5588 0.1524-0.254 0.0508-0.508 0.1524zm4.7244-13.513q0.254 0 0.4572-0.0508 0.254-0.0508 0.508-0.1524 0.0508-0.1016 0.0508-0.2032 0.1524-0.1524 0.0508-0.1524-0.254 0.1016-0.5588 0.2032-0.254 0.1016-0.508 0.3556zm-4.318 5.334q0.1016-0.254 0.4064-0.6604l-0.762 0.4064v0.4064zm2.3368 12.344-0.4572 0.4064 0.6096 0.3048zm-0.1524-6.0452-0.3556 0.6604 0.7112-0.3048-0.1524-0.4572zm-2.5908-4.4704 0.9652-0.4572-0.508 0.1524-0.1016-0.254-0.3556 0.1016zm2.9464 6.5532q-0.254 0.2032-0.4572 0.4064-0.1524 0.2032-0.3556 0.4572l0.9652-0.6096zm-2.3368 0.1524 0.1016-0.6096-0.3048 0.2032-0.1524 0.6096zm1.1684 3.2512q-0.2032-0.1524-0.3048-0.4572l-0.254 0.2032 0.3048 0.4572zm-1.8796-9.2456 0.4064-0.2032q0-0.254 0.1524-0.4572l-0.508 0.254zm2.3368-2.0828-0.0508 0.4064 0.508-0.2032v-0.4064zm4.3688-6.8072-0.3048 0.4064q0.254-0.1016 0.4572-0.254 0.254-0.2032 0.5588-0.2032v-0.254zm-5.9436 0.3048 0.0508 0.4064 0.254-0.2032 0.0508-0.508h0.254zm2.794 16.815 0.254-0.1524-0.1524-0.508zm0.5588 0.8636 0.4572 0.1524 0.2032-0.1016-0.3556-0.254zm-3.5052-19.406-0.0508 0.5588 0.5588-0.3048h-0.254l-0.1016-0.3048zm0.4572-0.508q-0.1524 0.0508-0.508 0.0508l0.0508 0.4064 0.1524-0.0508zm0.1016 18.694 0.0508-0.4064-0.4064 0.254q0.1016 0.1016 0.1016 0.254zm0.7112 0.3556-0.508 0.0508-0.254 0.2032 0.1016 0.2032zm5.3848 1.8796q0.0508 0-0.2032 0.1524-0.2032 0.1016-0.3048 0.254 0.5588-0.2032 0.762-0.5588zm-4.4196-14.021q-0.4064 0.1524-0.7112 0.4572l0.5588-0.254zm1.016 14.63q0.1524-0.1524 0.1524-0.2032l-0.3556 0.2032 0.0508 0.1524zm-3.6576-6.4008 0.4064-0.508-0.4064 0.2032zm0.4064-9.8044 0.4572-0.2032-0.1016-0.2032zm-0.1524-8.0772q0.1016-0.1016 0.1016-0.1016 0-0.0508-0.0508-0.0508 0 0 0-0.0508zm1.9812 4.2672-0.254 0.1016-0.1016 0.2032zm-1.8796 2.4892q-0.1524 0-0.254 0.1524z" style="font-feature-settings:normal;font-variant-caps:normal;font-variant-ligatures:normal;font-variant-numeric:normal"/>
				<path d="m102.55 220.75q-0.0508-0.3556-0.1016-0.7112t-0.0508-0.7112q0-0.1524 0.1016-0.5588t0.3048-0.8128q0.254-0.4572 0.6604-0.762 0.4064-0.3556 1.016-0.3556 0.254 0 0.508 0.1016 0.254 0.0508 0.5588 0.1016l0.1524 0.3048q0.1524 0.1016 0.3048 0.254 0.2032 0.1524 0.3048 0.3556l0.1524 0.254q0.254 0.5588 0.3048 1.2192t0.0508 1.27q0 1.4732-0.254 3.2512-0.2032 1.7272-0.6604 3.0988l-0.2032 0.1016-0.2032-0.2032-1.778 0.3048v-0.254q0-0.1524-0.0508-0.254l-0.3048 0.3556 0.1016-0.9652q-0.3048-1.1176-0.508-2.286-0.1524-1.2192-0.254-2.3876l-0.3048 0.1524-0.1524-0.3048zm1.8796 2.1844q0.4572-0.3556 0.9144-0.3556 0.508-0.4064 0.8128-0.762 0.3048-0.4064 0.3048-1.2192-0.3048 0.254-0.508 0.5588t-0.508 0.5588q-0.254 0.254-0.5588 0.5588-0.254 0.3048-0.4572 0.6604zm-1.016 0.1524q0.1524-0.5588 0.5588-1.0668l-0.4572 0.3556q0.254-0.4064 0.5588-0.7112t0.508-0.7112q-0.4064 0.1016-0.762 0.3556-0.3048 0.2032-0.4572 0.6096-0.1016 0.2032-0.1016 0.3556zm1.3716-3.5052-0.4064 0.254 0.4064-0.4064q0.1016-0.3556 0.4064-0.5588 0.3048-0.254 0.3556-0.6604-0.5588 0.762-1.27 1.3716-0.7112 0.5588-1.27 1.3208 0.4572-0.254 0.9144-0.5588 0.4572-0.3556 0.8636-0.762zm-1.8288 0.6096 0.1524-0.0508q0.4572-0.4064 0.9652-0.8128 0.508-0.4572 0.9144-0.9652-0.5588 0.3048-1.0668 0.7112-0.4572 0.4064-1.016 0.762zm2.2352-0.7112q0.4572-0.2032 0.8128-0.254l0.2032 0.254 0.1524-0.1016-0.3048-0.8128-0.8128 0.7112zm0 4.4196q0.1524-0.1524 0.508-0.1524l0.4064-0.3556 0.1016-0.6604-0.7112 0.6096zm0.762 0.8636q0.0508-0.254 0.0508-0.5588 0.0508-0.3048 0.0508-0.5588l-0.254 0.2032 0.0508 0.1524q-0.1016 0.254-0.254 0.4572-0.1016 0.2032-0.254 0.4572zm-0.1524-1.8288 0.4572-0.4572 0.0508-0.6096q-0.4064 0.3048-0.7112 0.7112zm0.254-3.1496v0.6604l0.2032 0.2032 0.2032-0.2032-0.1016-0.9652zm-2.4384 5.3848 0.2032 0.762 0.5588-0.4064-0.254-0.1524-0.0508-0.2032 0.1016-0.2032q-0.2032 0.2032-0.5588 0.2032zm0.9652 0q0.2032-0.2032 0.4064-0.4064 0.254-0.254 0.3556-0.508-0.0508 0.0508-0.1524 0.1016-0.1016 0-0.1016 0.0508l-0.3556 0.2032zm-1.7272-5.9944q-0.0508 0 0.1016-0.1524 0.1524-0.3048 0.3556-0.6096t0.4572-0.5588l-0.8128 0.6096zm1.2192-1.016 0.2032 0.0508 0.6604-0.6096-0.2032-0.0508zm1.3716 7.1628-0.6096 0.254-0.2032 0.5588zm-1.4732 1.0668 0.2032 0.3556 0.2032-0.254-0.1016-0.4064zm1.016-5.9436 0.254-0.508q-0.2032 0.1016-0.4064 0.3048-0.1524 0.1524-0.3048 0.3048zm-1.5748 3.2004 0.0508 0.508 0.3048-0.254-0.1016-0.2032q-0.2032 0-0.254-0.0508zm0.8128-1.2192q0.254-0.254 0.508-0.508t0.508-0.508q-0.3556 0.254-0.5588 0.4572t-0.4572 0.5588zm-0.6604 2.4384q0.0508-0.1524 0.254-0.3556 0.2032-0.254 0.3048-0.4064l-0.6096 0.4572zm1.6764-4.0132 0.3556-0.254 0.1524-0.4572zm0.254 5.5372 0.1524 0.1016 0.1016-0.4064zm-1.4732-3.6068-0.2032 0.2032-0.0508 0.254zm-0.4064 2.3876v-0.0508z" style="font-feature-settings:normal;font-variant-caps:normal;font-variant-ligatures:normal;font-variant-numeric:normal"/>
				<path d="m113.98 243q0.1016-0.1016 0.4572-0.1016 0.4064 0 0.5588-0.0508l-0.1524-0.0508q0.8128-0.254 1.5748-0.4572 0.762-0.254 1.27-1.1176-0.0508-0.254-0.1524-0.8128-0.0508-0.6096-0.3048-0.7112-0.1016-0.3556-1.27-0.8636-1.1176-0.5588-2.5908-1.2192-1.4224-0.6604-2.8448-1.4224-1.3716-0.8128-1.9812-1.7272l-0.1524 0.254h-0.3048q-0.2032-0.7112-0.3048-1.3716-0.2032-0.2032-0.4064-0.508-0.2032-0.3556-0.2032-0.7112 0-0.254 0.1524-0.4064 0-0.1016-0.0508-0.254 0-0.1524 0-0.254l-0.2032-0.2032q0.1016-0.9144 0.4572-1.524 0.3556-0.6604 0.8128-1.524l0.0508-0.3048q0.508-0.6604 1.27-1.1176t1.6256-0.7112q0.8636-0.3048 1.7272-0.4064 0.9144-0.1524 1.6764-0.1524 1.524 0 2.6924 0.6096 1.2192 0.5588 2.6416 0.762l0.2032-0.8636q0.1016-0.1016 0.1016-0.1016l0.1016-0.0508q0 0.0508 0.2032 0.0508h0.6604q0.1524 0 0.1524 0.2032 0.0508 0.2032 0.0508 0.3556 0.0508 0.1524 0.0508 0.3048v0.254l0.0508 0.2032q-0.0508 0.1016-0.2032 0.4572-0.1016 0.3048-0.1016 0.4064l0.1524 0.1524v0.8636q0 0.508-0.0508 1.016 0 0.508-0.1524 0.9652-0.1524 0.4064-0.4572 0.7112-0.3048 0.254-0.8128 0.254-0.254-0.1524-0.4064-0.254-0.1016-0.1016-0.1016-0.6604l-0.2032-0.4572q-0.1016-0.1016-0.1016-0.1016 0-0.0508 0-0.0508 0-0.1016-0.4064-0.508-0.3556-0.4572-0.4064-0.5588-0.508-0.254-0.6096-0.254-0.1016-0.0508-0.1016-0.0508-0.1016 0-0.2032-0.0508t-0.2032-0.1016l-0.3556 0.3048-0.3048-0.2032 0.1524-0.254q-0.254-0.0508-0.4572-0.0508-0.2032-0.0508-0.4572-0.0508-0.8636 0-1.6764 0.4572-0.762 0.4064-1.6256 0.6096-0.1524 0.4572-0.3556 0.9144-0.1524 0.4064-0.1524 0.8636v0.4572q0.1016 0.1016 0.3048 0.4064 0.254 0.254 0.4572 0.4064 0 0.1016 1.1684 0.4064t2.5908 0.8128q1.4732 0.508 2.6924 1.1684 1.27 0.6604 1.4224 1.524l0.2032 0.3048 0.3048 0.254q0.2032 0.254 0.3048 0.5588t0.2032 0.5588l0.1016 0.4064q-0.1016 0-0.1016 0.1524l0.2032 0.2032q0 0.4572 0.0508 0.7112v0.508l-0.1524 0.6096q-0.1016 0.8636-0.3048 1.6764-0.1524 0.762-0.8128 1.3716l-0.0508 0.1524-0.2032 0.2032q-0.5588 0.5588-1.1176 1.0668t-1.4224 0.7112l-0.1016-0.1524-0.254 0.0508q-0.6604 0.508-1.27 0.6604-0.6096 0.2032-1.4224 0.2032-1.7272 0-3.0988-0.6604-0.1016 0.1016-0.3048 0.1016-0.3048 0-0.6096-0.2032t-0.5588-0.4572-0.5588-0.4572-0.6096-0.254l-0.0508 0.5588-0.2032 0.1016q-0.0508 0.2032-0.2032 0.5588-0.1524 0.3048-0.4064 0.3048t-0.3556-0.1016l-0.3048-0.4064v-1.4732l0.1016-0.2032-0.2032 0.0508-0.1016-0.3048 0.254-0.508v-0.3556h-0.2032l-0.1524-0.254 0.254-0.6096q0-0.1016-0.0508-0.508 0-0.4064-0.0508-0.8128-0.0508-0.4572-0.1524-0.8128-0.0508-0.3556-0.1524-0.3556l-0.1016-0.3048q0.254-0.1016 0.6096-0.2032 0.4064-0.1524 0.8128-0.1524l0.254 0.4064 0.4064 0.0508q0 0.0508-0.0508 0.0508 0 0 0 0.1016t0.0508 0.1524q0.1016 0.508 0.254 1.1176t0.3556 1.0668h0.2032l0.3048 0.2032 0.0508 0.3556q0.2032 0 0.254-0.1524 0.4572 0.254 0.9652 0.3556 0.5588 0.0508 1.1176 0.1016l-0.3556 0.1016-0.1524 0.1016-0.2032-0.0508zm1.8288-5.6896q-0.4064 0-0.4064-0.3048t0.2032-0.5588q0.254-0.3048 0.4572-0.508-0.0508 0-0.7112 0.254-0.6604 0.2032-0.8636 0.2032l-0.1016-0.3048-0.254 0.6604q0 0.1016-0.1524 0.1016l0.0508-0.0508q0 0.0508-0.0508 0.1016l0.3556 0.4064q0.1016 0 0.1016-0.2032 0.254 0.1524 0.5588 0.254t0.6096 0.2032l0.1016 0.3556 0.4064-0.1524q0.254 0.1016 0.4572 0.2032t0.4572 0.2032l-0.0508-0.3556 0.6096-0.254 0.2032-0.3556q-0.4064 0.3556-0.9652 0.3556l-0.1524-0.254 0.1016-0.3556q-0.1524 0.1016-0.4572 0.254-0.3048 0.1016-0.508 0.1016zm-0.508-11.176 0.7112-0.3556q-0.4064-0.1016-0.8128-0.1016-0.4064-0.0508-0.8128-0.0508-0.6604 0-1.3208 0.0508-0.6096 0.0508-1.2192 0.2032l-0.2032 0.3048q-0.4572 0.1016-0.9144 0.254-0.4064 0.1524-0.762 0.4572 0.7112-0.1016 1.3208-0.4572 0.6604-0.4064 1.3208-0.6604l0.254 0.2032 0.1524-0.0508q0 0.1016-0.1016 0.1016-0.0508 0-0.1016 0.1016l-0.1524 0.1016q0.3048 0 0.7112-0.1016 0.4572-0.1016 0.8128-0.1016l0.4572 0.1016 0.2032 0.254 0.2032-0.508zm-2.9972 8.636q-0.254 0.3048-0.508 0.6604-0.254 0.3048-0.254 0.7112 0 0.3048 0.3048 0.3048 0.254 0 0.4572-0.1016 0.254-0.1016 0.508-0.2032-0.254 0-0.3556-0.2032l-0.508 0.0508q0.0508-0.0508 0.1016-0.0508t0.0508-0.1016l0.254-0.3048-0.254 0.1016q0.1524-0.254 0.4572-0.6604 0.3556-0.4064 0.6096-0.4572l0.3048-0.508q-0.3048 0.1016-0.6096 0.254-0.254 0.1524-0.5588 0.3048zm7.2644 1.5748q-0.1524 0-0.5588 0.1016-0.3556 0.0508-0.3556 0.3048l-0.6604 0.9144q0.4572-0.1524 0.8636-0.3556 0.4572-0.254 0.9652-0.508 0-0.0508 0.4064-0.254l-0.3048-0.2032zm-1.524 0.1524 1.3208-0.5588-0.3048-0.1524-1.0668 0.5588-0.1524-0.1524 0.9652-0.6096-0.4064-0.2032-0.6096 0.3556 0.1524 0.3048q-0.5588 0.4064-0.8128 1.1176zm3.1496-9.7536q-0.3048 0.1524-0.762 0.3556-0.4064 0.2032-0.8128 0.4064-0.3556 0.2032-0.6604 0.4572t-0.3556 0.508l2.3876-1.1684zm-8.636 6.5532q-0.4064 0.1016-0.762 0.3556-0.3048 0.2032-0.6604 0.4572l-0.1016 0.1524q0.5588 0 1.3208-0.3048t1.778-0.5588l-1.1176-0.0508-0.254 0.1016q-0.0508 0-0.1016-0.0508 0-0.0508-0.1016-0.1016zm-5.08-2.1844v1.524l0.3048 0.1524 0.0508-0.3048q0.1524 0 0.1524-0.2032 0-0.0508-0.0508-0.1016 0-0.0508 0-0.1016l0.2032-0.5588-0.2032 0.1016-0.1524-0.2032v-0.2032zm11.938 6.858q0 0.1016-0.1524 0.1016l-0.762 0.8636q0.254-0.1016 0.4572-0.2032 0.2032-0.1524 0.4572-0.3048v-0.3556q0.254-0.1016 0.7112-0.3556 0.508-0.254 0.508-0.6604l-0.1524 0.3048q-0.1524-0.2032-0.2032-0.2032 0.0508 0-0.4572 0.254zm-7.3152-5.2832q-0.4572 0.254-1.016 0.5588-0.5588 0.254-0.7112 0.8128 0.4064-0.1524 0.762-0.4064 0.3556-0.3048 0.6604-0.5588l0.254 0.1016 0.254-0.1524q-0.0508-0.1016-0.1016-0.1524 0-0.1016-0.1016-0.2032zm6.9088 10.82q0.5588-0.254 0.9652-0.4572 0.4572-0.2032 0.9144-0.508l-0.6096-0.0508-1.3716 0.762zm-4.572-8.8392q-0.0508 0-0.254 0.1524t-0.4572 0.3556q-0.254 0.1524-0.508 0.3556-0.2032 0.1524-0.3048 0.2032 0.5588 0 0.9652-0.3048 0.4572-0.3556 0.8636-0.6096zm5.4356-3.8608v0.6096q0.1016 0 0.2032 0 0.1524-0.0508 0.254-0.0508l0.3556-0.2032 0.2032-0.3048q-0.0508-0.0508-0.0508-0.254l-0.8636 0.4064zm-1.8288 8.1788q0.2032-0.3556 0.4064-0.6604 0.254-0.3556 0.508-0.6096l-0.8636 0.3556-0.3048 0.5588 0.1016 0.3048zm-2.9464 6.1976 0.4572 0.0508 1.2192-0.6096 0.1524-0.4064zm-2.794-17.577q-0.5588 0.3048-1.016 0.6096-0.4572 0.254-0.9652 0.6604 0.4572-0.1524 0.8128-0.3556t0.762-0.508l0.1524 0.254 0.254-0.1524zm1.524 6.858 0.508-0.0508 0.8636-0.4572-0.4572-0.254-0.5588 0.3556zm0.6096 10.719-0.254-0.3048-1.4732 0.508h1.3208zm3.6576-4.064 0.762-0.4064q0.0508-0.1524 0.254-0.3556 0.2032-0.254 0.3048-0.3556l-1.2192 0.6604zm0.1016-0.8636q0.5588-0.3556 0.8636-0.508 0.3048-0.2032 0.4572-0.3048t0.1524-0.1016q-0.0508 0-0.1524 0.1016l-0.254-0.1016q-0.5588 0.3048-1.1684 0.4572zm-8.89-8.636 0.3556-0.508-0.9144 0.254q-0.254 0.508-0.3048 0.6096t0 0.1016l0.1016-0.2032q0.3048 0 0.6096-0.2032zm5.588 14.783q0.254 0 0.6604-0.1016t0.5588-0.1016q-0.1016 0-0.2032-0.0508-0.0508-0.1016-0.1524-0.1524h-0.8636l-0.2032 0.3556zm0.6096-19.355 0.5588-0.254-0.9652-0.1524q-0.1524 0.0508-0.5588 0.2032-0.3556 0.1524-0.762 0.3048-0.3556 0.1524-0.6604 0.3048-0.3048 0.1016-0.3556 0.2032 0.5588-0.2032 1.27-0.4572 0.762-0.3048 1.3208-0.3048zm-1.2192-0.6096q-0.1524 0-0.4064 0.1016-0.254 0.0508-0.5588 0.1524-0.254 0.0508-0.508 0.1524-0.254 0.0508-0.3556 0.0508l-0.6604 0.4064q0.6604-0.2032 1.3208-0.3556 0.7112-0.2032 1.3208-0.4572zm0 9.2964q0.2032-0.1016 0.3556-0.254t0.254-0.3048q-0.508 0.3048-1.016 0.6604-0.4572 0.3048-1.016 0.3048l0.1524 0.1524q0.254-0.1016 0.6096-0.1016 0.4064 0 0.6604 0l-0.6096-0.1524q0.4572-0.2032 0.5588-0.2032 0.1016-0.0508 0.1524-0.0508 0.1524 0 0.1524-0.1524zm-4.826-8.4836 0.1016 0.254q0 0.4572-0.3556 0.8128t-0.6096 0.6604q0.254-0.1524 0.5588-0.3556t0.4572-0.4572l0.1524-0.7112zm6.5532 7.7724 0.2032 0.3048 0.9652-0.508-0.4572-0.254zm3.9116-6.4516q-0.2032 0.0508-0.5588 0.2032-0.3556 0.1016-0.508 0.1016l0.4064 0.3048q0.1016-0.0508 0.3048-0.1016 0.2032-0.1016 0.254-0.2032zm0.0508 1.7272v0.4064l0.8636-0.3556 0.0508-0.4572zm-4.064 6.4008q0.254-0.254 0.4064-0.3556 0.1524-0.1524 0.254-0.4064l-0.762 0.9652 1.5748-0.9144q-0.1016 0-0.1524 0.0508t-0.1524 0.0508q-0.508 0.3556-1.1684 0.6096zm-0.1524-10.312h0.254q0.2032 0 0.3556 0.0508 0.1524 0 0.4064 0 0.1016 0 0.2032-0.1016t0.1524-0.2032l-0.5588-0.2032zm1.3208 0.6604 0.254 0.1016q0.3048-0.1016 0.5588-0.2032 0.3048-0.1524 0.6096-0.254l-0.4572-0.1524zm-0.3556 18.339q0.508-0.2032 0.9144-0.4572 0.4572-0.3048 0.9144-0.5588l0.2032-0.254q-0.4572 0.2032-0.8128 0.508-0.3556 0.254-0.8636 0.4572zm-0.7112-1.27q-0.3048 0.254-0.7112 0.4064-0.3556 0.1016-0.7112 0.2032l0.1524 0.254zm4.2164-14.427-0.1524-0.4064-0.6604 0.3048 0.1016 0.1524 0.254 0.1016zm-10.363 13.411q0-0.0508-0.1524-0.0508t-0.254-0.2032l-0.6604 0.4064 0.1016 0.254q0.254-0.1016 0.4572-0.2032 0.254-0.1016 0.508-0.2032zm-1.6256-1.6256q0.1016-0.1016 0.1524-0.1016 0.1016 0 0.1524-0.0508v-0.5588l-0.4572 0.1524-0.2032-0.0508zm9.3472 0.7112q0 0.0508 0 0.1016 0.0508 0.0508 0.0508 0.1016l1.1684-0.6604-0.5588 0.1524-0.2032-0.2032 0.1524-0.1524-0.2032 0.0508zm3.7592-1.1684q-0.2032 0.2032-0.5588 0.4572-0.3048 0.2032-0.3048 0.508l0.762-0.4572zm-4.318-5.6388 0.4064 0.2032 0.6096-0.3556-0.4064-0.2032zm-8.89-2.54-0.0508 0.3556 0.1524 0.1016q0.1016-0.1016 0.1524-0.1016 0.1016 0 0.2032-0.1016l0.254-0.6096zm11.278-5.8928q-0.3048 0.1016-0.6604 0.254-0.3048 0.1524-0.5588 0.4064 0.8128-0.1524 1.524-0.5588zm-8.2804 8.6868 0.4064-0.3048q-0.254 0-0.254-0.254l-0.7112 0.4572zm8.7884 6.5024 0.1016-0.3556-0.9144 0.4572q0.1524 0 0.1524 0.2032zm-9.5504-7.2644-0.0508-0.2032-0.8128 0.254 0.3048 0.3048zm9.906-6.604v0.4064l0.4572-0.2032 0.0508-0.4572zm-3.7084 14.63 0.2032 0.3048-0.1524 0.2032 0.4572-0.2032-0.1016-0.4064zm-8.89-3.4036q0 0.1524 0.1524 0.5588l0.3048-0.254-0.3048-0.508zm3.9624 5.3848 0.5588 0.254 0.1524-0.1016-0.1016-0.5588zm-3.8608-14.173q0.8128-0.3556 1.2192-0.9144-0.3048 0.2032-0.5588 0.4064t-0.5588 0.3556zm2.286 3.556 0.254-0.6604-0.3048 0.2032-0.4572 0.6604zm-2.1336 8.2804 0.5588-0.3048 0.1524-0.3556-0.7112 0.3556zm6.9088-6.5024q0.2032-0.0508 0.3556-0.2032 0.2032-0.2032 0.3048-0.3556v-0.3048zm0.1524-1.3716 0.762-0.3048 0.1524 0.1524 0.254-0.1524-0.4572-0.2032zm-6.2992-0.8636q0 0.1016 0.1016 0.1524 0.1016 0 0.1524 0.1016l0.6096-0.3048h-0.3556l-0.1524-0.2032zm1.0668 10.414 0.508-0.254q0-0.1016 0-0.254 0.0508-0.1524 0.0508-0.254l-0.1524 0.0508zm-0.9144-12.395 0.0508 0.1524-0.2032 0.3556 0.3556 0.0508v-0.3556zm9.652 11.633q-0.3048 0.1016-0.6096 0.3556t-0.5588 0.508q0.5588-0.254 1.1684-0.8636zm2.1336-17.069-0.2032 0.3556 0.762-0.3556-0.0508-0.254zm-12.294 17.374-0.3048 0.2032v0.3556l0.3048-0.1524 0.1524-0.3048zm3.7592 0.0508q-0.1524 0.0508-0.508 0.1524-0.3048 0.0508-0.4572 0.254l-0.1016 0.2032q0.254-0.1016 0.508-0.254 0.3048-0.2032 0.5588-0.3556zm-3.6068 1.016-0.4064-0.2032-0.0508 0.508zm0.7112-12.141q0.4572-0.1524 0.8128-0.6096h-0.2032zm1.6256 10.211 0.4572 0.1016 0.2032-0.1524-0.6604-0.1524zm10.414-3.7592q-0.254 0-0.4064 0.2032t-0.4064 0.3048l-0.254 0.254zm-5.334-11.481-0.1524 0.3048q0.254-0.2032 0.6604-0.3556l-0.1524-0.1524zm-6.5024 1.9304 0.6604-0.254q-0.1016-0.0508-0.1524-0.1016 0-0.0508-0.1016-0.0508zm-1.016 15.951-0.508 0.1524 0.3048 0.2032zm12.141-16.459 0.0508 0.4064 0.2032-0.1016-0.0508-0.4572zm-3.0988 9.2964-0.2032 0.0508q-0.0508 0-0.1016 0 0-0.0508-0.0508-0.0508l0.2032 0.3048 0.2032 0.0508 0.1016-0.1524zm-5.6388-8.2296q-0.2032 0.1524-0.4064 0.3048-0.1524 0.1524-0.4064 0.254l-0.1016 0.1524q0.1016 0 0.1524-0.1016 0.1016-0.1524 0.254-0.1524l0.4064-0.2032zm8.9916 8.2296v0.3048l0.4572-0.254-0.1524-0.0508zm-6.35 5.588q0.0508-0.1016 0.1016-0.1524 0.0508-0.1016 0.0508-0.2032l-0.5588 0.508zm1.8288-15.85 0.6604 0.2032 0.1016-0.3048-0.3556 0.1524zm4.318 12.141h0.6604v-0.254zm-1.6764-3.2004h-0.2032l0.1524-0.2032 0.3048-0.1016zm-10.566 3.3528 0.254-0.3048h-0.254zm-0.508-11.278-0.1524 0.7112 0.1524-0.3556 0.508-0.6096zm4.9276 7.9248q-0.0508 0-0.1016 0.0508 0 0-0.0508 0l0.3048 0.2032 0.3048-0.254-0.3048 0.0508zm-3.2004-3.81q0.254-0.0508 0.508-0.1524t0.4064-0.3048zm2.0828-0.9652-0.1524 0.4064 0.4064-0.2032zm-2.8448-0.9652 0.508-0.4064-0.4064 0.2032zm6.7564 11.989 0.2032-0.254-0.3556 0.2032-0.1524 0.2032zm-2.9464 1.27 0.5588-0.1524q-0.3048 0-0.4572-0.0508zm-3.2512-0.3556 0.1016-0.3048-0.3556 0.2032zm7.7216-0.8636-0.3048 0.2032-0.254 0.3556zm-8.4836 1.1176q0.1016 0 0.1524 0.0508t0.1524 0.0508q-0.0508-0.1016-0.1016-0.1524t-0.0508-0.1524zm0.3556-2.1844q0.1524 0 0.1524-0.254-0.1524 0.1524-0.1524 0.254zm0.9652-11.735 0.4064-0.254 0.1524-0.2032zm-0.9144 11.328-0.1524 0.1524 0.3048-0.1016zm0.1524-7.4676-0.1524-0.254-0.0508 0.1524zm6.096-6.2992 0.0508-0.1524-0.3556 0.1524zm-4.9276 15.037q-0.0508-0.1524-0.3048-0.1524zm4.1148-15.494q-1.3208 0-1.8796 0.1016-0.508 0.1016-0.508 0.254t0.4064 0.3048q0.4572 0.1016 1.016 0.1016 0.4572 0 0.8128-0.1016 0.4064-0.1524 0.4064-0.5588 0-0.1016-0.254-0.1016zm-2.9464 1.8288q0-0.1016 0.1016-0.1016l0.4064-0.508-0.9652 0.254q-0.1016 0.1524-0.2032 0.3556-0.0508 0.2032-0.0508 0.4064l0.0508-0.2032z" style="font-feature-settings:normal;font-variant-caps:normal;font-variant-ligatures:normal;font-variant-numeric:normal"/>
			</g>
			<g transform="matrix(.92108 -.42833 .4502 .87633 0 0)" fill="#f2f2f2" stroke-width=".20498" aria-label="Connect">
				<path d="m13.662 294.35q-0.32798 0.16399-0.60129 0.16399-0.38264 0-0.60129-0.21865-0.21865-0.27332-0.21865-0.54663 0-0.4373 0.49196-1.3119 0.54662-0.92926 0.54662-1.8585 0-2.0772-1.5306-3.0064-1.5306-0.98393-3.4984-0.98393-2.0772 0-3.9904 1.0386-1.9132 0.98392-3.6077 2.5691-1.6399 1.5306-3.0611 3.4437-1.3666 1.8585-2.3505 3.6624-1.4212 2.5691-2.3505 5.5209-0.8746 2.9518-0.8746 5.6302 0 2.1318 0.65595 3.6624 0.65595 1.4759 1.7492 2.4052 1.1479 0.92926 2.6785 1.3666 1.5852 0.38264 3.3891 0.38264 2.4052 0 5.0836-0.65595t5.2476-1.6945q2.5691-1.0932 4.865-2.4598 2.3505-1.4212 4.045-2.9518 0.38264-0.21865 0.71061-0.21865 0.71061 0 0.71061 0.65595 0 0.49196-0.38264 0.8746-1.8039 1.7492-4.4823 3.4984-2.6238 1.7492-5.6302 3.1158-3.0064 1.3666-6.1222 2.1865-3.1158 0.8746-5.8489 0.8746t-4.701-0.98393q-1.9132-0.92926-3.1704-2.4598-1.2026-1.5852-1.7492-3.4984-0.54662-1.9678-0.54662-3.9357 0-3.0064 1.0386-6.2315 1.0386-3.2251 2.7878-6.2862 1.0933-1.9132 2.7331-3.9904 1.6399-2.1318 3.6077-3.881 2.0225-1.8039 4.2637-2.9518 2.2958-1.1479 4.6463-1.1479 1.5852 0 3.0064 0.4373 1.4212 0.4373 2.4598 1.2572 1.0933 0.76528 1.6945 1.8585 0.65595 1.0932 0.65595 2.4052 0 0.92927-0.4373 2.0225-0.38264 1.0932-1.3119 2.2412z" style="font-feature-settings:normal;font-variant-caps:normal;font-variant-ligatures:normal;font-variant-numeric:normal"/>
				<path d="m24.649 304.57q0 0.0547 0.05466 0.10933 2.4052-1.0932 5.029-1.8585 2.6785-0.76527 5.1929-1.3666 1.0386 0 1.0386 0.8746 0 0.49196-0.54662 0.81994-1.7492 0.71061-3.4437 1.4759-1.6945 0.71061-3.3891 1.5306 0.49196 0.81994 0.49196 1.8585 0 0.81994-0.38264 2.1318-0.38264 1.2572-1.0933 2.5145-0.65595 1.2572-1.6945 2.3505-1.0386 1.0386-2.3505 1.5306-0.54662 0.21865-1.2026 0.21865-0.60129 0-1.2572 0.10932-0.92926-0.10932-1.7492-1.1479-0.76528-1.0932-0.76528-2.5691 0-1.1479 0.49196-2.7878 0.54663-1.6945 1.3119-3.2251 0.76528-1.5852 1.5852-2.6785 0.8746-1.1479 1.5852-1.1479 0.49196 0 0.81994 0.49196l0.27331 0.71061zm-0.4373 3.3344q-0.92926-0.49196-1.0933-1.2572-0.76528 1.5852-1.0386 3.3891-0.27331 1.7492-0.27331 3.4437 0.8746-0.10933 1.5852-0.8746 0.71061-0.81994 1.2026-1.7492 0.49196-0.92927 0.76528-1.7492 0.32798-0.81993 0.32798-0.92926v-0.10932q-0.32798-0.10933-0.76528-0.0547-0.4373 0-0.71061-0.10932z" style="font-feature-settings:normal;font-variant-caps:normal;font-variant-ligatures:normal;font-variant-numeric:normal"/>
				<path d="m36.183 303.92q0.05466 0.65595 0.10933 1.3119 0.05466 0.65596 0.05466 1.3119 0 0.16398-0.05466 0.38263 0 0.16399 0 0.38264 0.38264-0.71061 1.0386-1.7492 0.65595-1.0932 1.3666-2.0772 0.76528-0.98392 1.4759-1.6945 0.76528-0.71061 1.3119-0.71061 1.3119 0 1.8585 0.71061 0.54662 0.71062 0.54662 1.3666 0 2.3505-0.4373 4.6463-0.4373 2.2412-0.4373 4.537 0 0.60129 0 1.2026 0.05466 0.60129 0.16399 1.2026l0.8746 0.65595 3.0064-0.92927q0.32798-0.10932 0.4373-0.10932 0.92926 0 0.92926 0.8746 0 0.38264-0.60129 0.81994-0.54663 0.4373-1.3119 0.81993-0.76528 0.32798-1.5852 0.54663-0.76528 0.21865-1.2026 0.21865-1.5306 0-2.6785-1.5852-1.0933-1.5852-1.0933-4.4823 0-1.1479 0.10933-2.2412 0.10932-1.0932 0.21865-1.8585-1.0386 1.3666-1.8585 2.8971t-1.5852 3.0611q-0.27331 0.49196-0.54662 1.2026-0.27331 0.65595-0.65595 1.2572-0.32798 0.60129-0.81994 1.0386-0.49196 0.38264-1.1479 0.38264-0.60129 0-0.98393-0.38264t-0.49196-1.1479q0-0.98392 0.21865-2.0772 0.21865-1.1479 0.49196-2.2412 0.32798-1.1479 0.65595-2.1865 0.32798-1.0386 0.54662-1.9678v-0.0547q0.05466-0.49196 0.05466-1.1479 0.05466-0.71062 0.10932-1.3119 0.10932-0.65595 0.27331-1.0932 0.21865-0.4373 0.71061-0.4373 0.71061 0 0.8746 0.65595zm-2.2958 4.3183 0.16399-0.54662z" style="font-feature-settings:normal;font-variant-caps:normal;font-variant-ligatures:normal;font-variant-numeric:normal"/>
				<path d="m51.379 303.92q0.05466 0.65595 0.10932 1.3119 0.05466 0.65596 0.05466 1.3119 0 0.16398-0.05466 0.38263 0 0.16399 0 0.38264 0.38264-0.71061 1.0386-1.7492 0.65595-1.0932 1.3666-2.0772 0.76528-0.98392 1.4759-1.6945 0.76528-0.71061 1.3119-0.71061 1.3119 0 1.8585 0.71061 0.54663 0.71062 0.54663 1.3666 0 2.3505-0.4373 4.6463-0.4373 2.2412-0.4373 4.537 0 0.60129 0 1.2026 0.05466 0.60129 0.16399 1.2026l0.8746 0.65595 3.0064-0.92927q0.32798-0.10932 0.4373-0.10932 0.92926 0 0.92926 0.8746 0 0.38264-0.60129 0.81994-0.54662 0.4373-1.3119 0.81993-0.76528 0.32798-1.5852 0.54663-0.76528 0.21865-1.2026 0.21865-1.5306 0-2.6785-1.5852-1.0933-1.5852-1.0933-4.4823 0-1.1479 0.10932-2.2412 0.10932-1.0932 0.21865-1.8585-1.0386 1.3666-1.8585 2.8971t-1.5852 3.0611q-0.27331 0.49196-0.54662 1.2026-0.27331 0.65595-0.65595 1.2572-0.32798 0.60129-0.81994 1.0386-0.49196 0.38264-1.1479 0.38264-0.60129 0-0.98392-0.38264-0.38264-0.38264-0.49196-1.1479 0-0.98392 0.21865-2.0772 0.21865-1.1479 0.49196-2.2412 0.32798-1.1479 0.65595-2.1865t0.54662-1.9678v-0.0547q0.05466-0.49196 0.05466-1.1479 0.05466-0.71062 0.10932-1.3119 0.10932-0.65595 0.27331-1.0932 0.21865-0.4373 0.71061-0.4373 0.71061 0 0.8746 0.65595zm-2.2958 4.3183 0.16399-0.54662z" style="font-feature-settings:normal;font-variant-caps:normal;font-variant-ligatures:normal;font-variant-numeric:normal"/>
				<path d="m72.424 305.39q-0.54663 1.1479-1.2026 2.2958-0.60129 1.1479-1.4212 2.1318-0.76528 0.98392-1.7492 1.7492-0.92926 0.71061-2.1318 1.0386 0 1.1479 0.32798 2.2958 0.32798 1.0932 1.3666 1.0932 0.27331 0 0.54662-0.0547 0.32798-0.0547 0.71061-0.32797 0.32798-0.16399 0.92926-0.60129 0.65595-0.4373 1.3666-0.98393 0.76528-0.60128 1.4212-1.2572 0.71061-0.71061 1.0386-1.4212 0.16399-0.38264 0.49196-0.38264 0.38264 0 0.71061 0.32798 0.32798 0.32797 0.32798 0.76527 0 0.38264-0.65595 1.2026-0.65595 0.81994-1.5306 1.6945-0.81994 0.8746-1.7492 1.6399-0.8746 0.76528-1.3666 0.98393-0.16399 0.0547-0.98393 0.49196-0.76528 0.4373-1.3119 0.4373-1.2026 0-2.0772-0.49196-0.8746-0.49196-1.4759-1.3119-0.54662-0.81994-0.81994-1.8585-0.27331-1.0932-0.27331-2.2412-0.32798-0.16399-0.32798-0.60129 0-0.38264 0.27331-0.65595 0-0.65595 0.05466-1.3119 0.05466-0.71062 0.27331-1.4212 0.32798-1.1479 0.8746-2.7331 0.60129-1.5852 1.4759-3.0064 0.8746-1.4759 2.0772-2.4598 1.2026-1.0386 2.7331-1.0386t2.0772 1.0386q0.54662 0.98393 0.54662 2.2958 0 0.76527-0.16399 1.5306-0.10932 0.71061-0.38264 1.1479zm-2.6238-2.2958q-0.54662 0.4373-1.0933 1.3119-0.54662 0.81993-0.98392 1.8039-0.4373 0.98393-0.81994 2.0225-0.38264 1.0386-0.60129 1.9132 0.65595-0.60128 1.6399-2.2958 0.21865-0.38264 0.54662-0.92927 0.32798-0.60128 0.60129-1.2572 0.27331-0.71061 0.49196-1.3666t0.21865-1.2026z" style="font-feature-settings:normal;font-variant-caps:normal;font-variant-ligatures:normal;font-variant-numeric:normal"/>
				<path d="m83.958 305.17q0 0.4373-0.27331 0.71062-0.27331 0.27331-0.54662 0.27331-0.60129 0-0.92926-0.60129l-0.21865-2.6238h-0.60129q-0.81994 0.49196-1.6399 1.5306-0.76528 1.0386-1.4212 2.3505-0.65595 1.2572-1.0933 2.6238-0.38264 1.3119-0.38264 2.4598 0 0.16399 0.05466 0.60129 0.05466 0.38264 0.16399 0.81994 0.16399 0.4373 0.4373 0.81994 0.27331 0.32797 0.71061 0.38264 0.65595-0.10933 1.5306-0.65595 0.8746-0.60129 1.6945-1.2572 0.8746-0.65595 1.6399-1.1479 0.76528-0.54662 1.2026-0.54662 0.92926 0 0.92926 0.8746 0 0.32797-0.27331 0.71061-0.71061 0.60129-1.5306 1.4759-0.76528 0.8746-1.6399 1.6945-0.81994 0.76527-1.8039 1.3119-0.92926 0.54663-1.9132 0.54663-1.0386 0-1.9132-0.49197-0.81994-0.54662-1.4212-1.3119-0.60129-0.81994-0.92926-1.7492-0.32798-0.98393-0.32798-1.9132 0-1.8039 0.54662-3.7717 0.60129-2.0225 1.6399-3.7171 1.0386-1.7492 2.4598-2.8424 1.4212-1.1479 3.0611-1.1479 1.2572 0 2.0225 0.8746 0.81994 0.81994 0.81994 2.5145 0 0.27331 0 0.60128 0 0.27332-0.05466 0.60129z" style="font-feature-settings:normal;font-variant-caps:normal;font-variant-ligatures:normal;font-variant-numeric:normal"/>
				<path d="m88.932 309.16q0.16399-1.8039 0.38264-3.4984 0.27331-1.7492 0.65595-3.4984-1.9679 0.4373-2.8425 0.76528-0.81994 0.32797-1.2572 0.32797-0.65595 0-0.65595-0.8746 0-0.81994 1.0386-1.5306 1.0933-0.76527 2.5145-1.3666 0.8746-0.76528 1.3666-1.3666 0.49196-0.65595 0.81994-1.3119 0.32798-0.71061 0.54663-1.5306t0.54662-1.9678q0.16399-0.49196 0.38264-1.5852 0.27331-1.1479 0.65595-2.2958 0.4373-1.1479 1.0386-2.0225 0.60129-0.8746 1.4759-0.8746t0.8746 0.81994q0 0.4373-0.16399 1.2572-0.16399 0.76528-0.49196 2.0225-0.27331 1.2572-0.71061 3.1158-0.38264 1.8039-0.8746 4.3183 0.54662 0 1.0386 0 0.49196-0.0547 0.98392-0.0547 0.60129 0 1.4212 0 0.8746 0 1.6399 0.10932 0.81993 0.0547 1.3666 0.27332 0.54662 0.21865 0.54662 0.71061t-0.98392 0.81994q-0.92926 0.32797-2.2412 0.60129-1.2572 0.27331-2.5691 0.54662-1.3119 0.21865-2.0225 0.49196-0.60129 2.6238-1.0386 5.6302-0.4373 2.9518-0.4373 5.5756 0 0.32798 0 0.87461 0.05466 0.54662 0.05466 1.1479 0.05466 0.54662 0.10932 0.98392 0.10932 0.38264 0.27331 0.38264 0.60129 0 2.4598-1.7492 1.9132-1.8039 4.045-5.1383 0.27331-0.27331 0.65595-0.27331 0.38264 0 0.65595 0.27331 0.27331 0.21865 0.27331 0.60129 0 0.27331-0.27331 0.65595-0.76528 1.4759-1.8585 3.0611-1.0386 1.5852-2.1865 2.8424-1.1479 1.2572-2.2958 2.0772t-2.1318 0.81994q-0.92926 0-1.5306-0.65595-0.54662-0.65595-0.92926-1.5852-0.32798-0.92927-0.49196-1.9679-0.10932-1.0386-0.10932-1.8585 0-1.0932 0.05466-2.1318 0.10932-1.0386 0.21865-1.9678z" style="font-feature-settings:normal;font-variant-caps:normal;font-variant-ligatures:normal;font-variant-numeric:normal"/>
			</g>
			<path d="m43.845 267.52h75.595v3.7798h-75.595z" fill="#e9c6af"/>
		</g>
	</g>
</svg>
