<?xml version="1.0" encoding="UTF-8"?>
<svg width="250mm" height="100mm" version="1.1" viewBox="0 0 250 100" xmlns="http://www.w3.org/2000/svg">
	<g transform="translate(0,-197)">
		<g transform="translate(32.506 6.8036)">
			<g fill="#f2f2f2" stroke-width=".26458" aria-label="About ">
				<path d="m54.139 239.29q-0.3048 1.016-0.762 1.9812-0.4572 0.9144-0.6096 1.8796 0 0.1016-0.0508 0.4572 0 0.3048-0.1016 0.3556l-0.254 0.8128q0.0508 0.3556 0.3048 0.4064t0.508 0.0508l0.254-0.1016q0.1524 0.0508 0.3556 0.254v0.5588q-0.0508 0-0.0508 0.1524l-0.3048 0.1524-0.9144 0.0508q-0.1524 0.1016-0.7112 0.1524-0.5588 0.1016-1.27 0.1524-0.7112 0.1016-1.4732 0.1016-0.7112 0.0508-1.27 0.0508-0.9144 0-1.6764-0.2032l-0.4064-0.6096 0.3048-0.1524 0.1016-0.3048 0.3556 0.2032 0.508-0.2032q0.1524-0.254 0.3556-0.4064 0.2032-0.2032 0.4064-0.3556h0.254l0.254-0.254q0.1016-0.3048 0.508-1.3716t0.8636-2.2352q0.4572-1.2192 0.8636-2.2352t0.5588-1.1684l-0.1016-0.1524q0-0.508 0.254-0.8636t0.6096-0.7112l0.6096-1.5748q0.2032-0.1524 0.3048-0.4064 0.1524-0.254 0.2032-0.4572l0.3556-0.9652 0.1524-0.0508 0.1524-0.4064-0.3048-0.2032q0.508-1.2192 1.0668-2.5908t1.0668-2.5908 0.8636-2.1336q0.4064-0.9652 0.5588-1.3208l-0.254-0.0508-0.1524-0.3048q0.6604-1.0668 1.1176-1.8796t0.9652-1.8288h-0.4064l-0.1524-0.254q0.3048-0.6096 0.9652-1.016 0.1016-0.762 0.3556-1.3208l0.3556-0.1524q0-0.0508 0.1016-0.0508 0.1016-0.0508 0.2032-0.1524l0.8128-0.0508h0.2032q0.6096 0 1.1684 0.1524 0.6096 0.1016 1.27 0.1016h0.2032l-0.1016 0.4572q0.5588 0.9652 0.8636 2.3876 0.3556 1.4224 0.8636 2.54l0.1524-0.0508 0.2032 0.254v0.2032l-0.2032 0.1524q0.4064 0.762 0.7112 1.5748 0.3556 0.8128 0.762 1.6256v0.3048q0.8128 1.6764 1.3716 3.5052t1.1684 3.6068l0.1524 0.3048-0.1524 0.254 0.4064 1.524q0 0.0508 0 0.1524 0.0508 0.0508 0.0508 0.1016h0.2032q0.3556 0 0.508 0.0508v0.3048l-0.3556 0.4064 0.1016 0.2032 0.254 0.0508q0.254 1.27 0.8128 2.4892 0.6096 1.1684 0.762 2.4892l0.3556 0.6604q0.254 0.5588 0.508 1.1176t0.762 0.9652l0.1524-0.1016 0.3048 0.254q0 0.1016-0.1016 0.1016-0.0508 0-0.1016 0.0508l0.2032 0.1524 0.5588-0.3048 0.254 0.3556-0.3556 0.254 0.762 0.3048q0.1016-0.0508 0.2032-0.0508t0.2032 0.0508q0.1524 0 0.1524 0.254 0 0.2032 0 0.4064 0.0508 0.2032 0.0508 0.508l0.4572-0.1016 0.2032 0.3048q-0.0508 0.2032-0.508 0.4064l-0.2032 0.3048q-2.1336 0-4.2164-0.0508-2.0828 0-4.2164-0.1524-0.254 0.0508-0.5588 0.1016t-0.5588 0.0508l-0.1016 0.254-0.3048-0.1524q-0.1016-0.3048-0.2032-0.6604-0.0508-0.3048-0.1524-0.6604l-0.0508-0.4572q0.3048-0.1524 0.8128-0.2032 0.5588-0.1016 0.762-0.4064l0.0508-0.6604h-0.3048l-0.0508-0.3048 0.3048-0.2032q-0.1524-0.8636-0.4572-1.6764l-0.254-0.0508-0.1524-0.2032 0.1016-0.6096q-0.2032-0.6096-0.4572-1.2192t-0.508-1.2192q-0.1016 0.2032-0.254 0.2032-0.1524-0.3048-0.3048-0.6096-0.1016-0.254-0.2032-0.508t-0.2032-0.4064q-2.1336 0.1524-4.318 0.254t-4.3688 0.1016l-0.9652-0.0508q-0.1016 0.4572-0.4064 0.8636-0.3048 0.3556-0.3048 0.9144zm7.112-5.2324-0.1524 0.254q-0.5588 0.254-1.4224 0.9652-0.8128 0.6604-1.2192 1.1176 0.7112-0.1524 1.524-0.7112 0.8636-0.6096 1.4224-1.0668l-0.6604 0.3048q0.8128-0.4064 1.5748-0.9144 0.762-0.5588 1.6256-0.8636 0 0.1524 0.2032 0.1524 0.2032-0.254 0.4064-0.4572l0.508-0.508-1.6764 0.7112h-0.3048q0-0.0508-0.0508-0.1524t-0.1524-0.1016q-0.3048-0.762-0.508-1.6764-0.1524-0.9144-0.508-1.6256-0.1524 0-0.4572-0.6096-0.3048-0.6604-0.6096-1.4224-0.254-0.762-0.508-1.4224-0.2032-0.7112-0.2032-0.9144v-0.2032q-0.1016-0.254-0.2032-0.5588t-0.1524-0.5588q-0.1016 0.3048-0.1016 0.5588-0.254 0.254-0.5588 0.7112-0.254 0.4064-0.3048 0.8636-0.1016 0.254-0.2032 0.508-0.0508 0.2032-0.1524 0.4572l-0.1016 0.4064q-0.1016 0.254-0.2032 0.508t-0.3048 0.4064l-0.1524 0.8128 0.1524 0.3048q-0.1016 0.254-0.254 0.4572-0.1016 0.2032-0.3048 0.4572-0.1016 0.2032-0.254 0.6096-0.1524 0.3556-0.1524 0.3048l0.1524 0.3556q-0.1016 0.3048-0.254 0.6096-0.1524 0.254-0.3048 0.5588-0.0508 0.1524-0.1016 0.3048-0.0508 0.1016-0.0508 0.3556h0.254q0.5588 0 1.0668-0.0508 0.5588-0.1016 1.1176-0.1016l0.1524 0.1524q1.016-0.1016 2.0828-0.1524 1.0668-0.1016 2.0828-0.1016l0.1524 0.3556q-0.1016 0-0.254 0.0508-0.1016 0-0.2032 0l-0.1524 0.254h-0.6096zm-3.3528 2.54 0.4572-0.6604-2.032 1.016h-0.3556l0.3556-0.2032-0.1524-0.2032 0.2032-0.5588q-0.4572 0.2032-0.9144 0.4572-0.4064 0.254-0.8128 0.508 0.254-0.2032 0.508-0.3556t0.508-0.3048l-0.508 0.0508-0.2032-0.1016-0.7112 0.4064 0.3048-0.1016 0.1016 0.3556q-0.6096 0.3556-1.4732 0.9144-0.8128 0.5588-1.2192 1.1176 0.254-0.1016 0.6096-0.3048 0.3556-0.254 0.7112-0.508 0.4064-0.254 0.762-0.4572 0.4064-0.2032 0.6096-0.254l0.1016-0.3556q0.254 0.0508 0.508 0.1016 0.3048 0 0.5588 0 0.508 0 1.016-0.0508t1.0668-0.1524h-0.508zm-7.4676 6.9088q-0.3556 0.2032-0.6604 0.4572-0.3048 0.2032-0.5588 0.508l0.6604-0.0508 2.3876-1.5748 0.1016-0.3048q0.0508 0 0.2032-0.1524l0.1524-0.3556-0.508 0.2032 0.5588-0.3048 0.1016-0.9144q-0.5588 0.3048-1.4732 0.9144-0.8636 0.6096-1.27 1.1176l2.6924-1.5748-1.9304 1.27 0.508-0.254q0.0508 0.1016 0.1016 0.2032 0.0508 0.0508 0.0508 0.2032-0.4064 0.254-0.8636 0.4064-0.4064 0.1524-0.8128 0.5588zm23.063 2.7432q0.2032 0.0508 0.3556 0.1016 0.2032 0.0508 0.4064 0.0508 0.3556 0 0.7112-0.0508t0.7112-0.1524q-0.254-0.4572-0.4572-0.6604-0.1524-0.2032-0.3048-0.3048-0.1016-0.1016-0.254-0.1524-0.1524-0.1016-0.4064-0.254-0.508 0.3048-1.016 0.5588-0.508 0.2032-0.9652 0.6096 0.254-0.1016 0.508-0.1016 0.254-0.0508 0.508-0.1016l0.2032 0.1524 1.27-0.5588 0.254 0.1016-1.2192 0.762zm-8.4836-12.243q-0.1524 0-0.1524 0.1016-0.2032 0.1016-0.6096 0.4064t-0.8636 0.7112q-0.4064 0.3556-0.8128 0.762-0.3556 0.3556-0.4572 0.6096 0.254-0.1016 0.7112-0.3048 0.508-0.254 1.016-0.508 0.5588-0.254 1.016-0.508 0.4572-0.3048 0.6096-0.508l-0.508 0.0508-0.1524-0.1524zm-0.4064-12.751q-1.016 0.508-1.8796 1.1176-0.8128 0.5588-1.7272 1.27h0.3556q0.8636-0.4572 1.7272-0.8636 0.9144-0.4572 1.7272-1.016zm5.9436 17.018-0.0508 0.254-1.1684 0.7112q-0.254 0.4064-0.6604 0.762-0.4064 0.3048-0.5588 0.8128 0.6604-0.4064 1.4224-0.9144 0.762-0.5588 1.524-0.8128l-0.3048-0.9144zm-6.9596-19.761q-0.8636 0.6096-1.778 1.1684-0.8636 0.5588-1.7272 1.2192l-0.3048 0.254h0.2032q0.6604-0.4064 1.3716-0.8636 0.762-0.4572 1.4732-0.7112l-2.2352 1.4224q0.7112-0.254 1.3208-0.7112 0.6604-0.508 1.4732-0.6096l0.4572-0.3048zm1.4732 3.9116q-0.7112 0.254-1.7272 0.9144-0.9652 0.6604-1.4732 1.1684 0.4572-0.2032 0.9144-0.3556 0.508-0.2032 0.9144-0.4572l-1.4732 0.8636q0.6604-0.2032 1.2192-0.6096t1.1684-0.7112l0.2032 0.3556 0.508-0.3048zm2.6924 7.2644q-0.9144 0.508-1.8288 1.0668-0.8636 0.508-1.8288 0.9652l-0.3048 0.5588q1.016-0.5588 2.032-1.0668 1.0668-0.5588 2.0828-1.1176zm0.7112 3.048q-0.6604 0.3048-1.3208 0.6096-0.6096 0.254-1.2192 0.6096 0.6096-0.4064 1.2192-0.762t1.2192-0.7112l-0.1524-0.4572-1.016 0.6096 0.4572-0.2032q-0.6096 0.4064-1.3208 0.8128-0.6604 0.3556-1.016 1.0668-0.1016 0-0.1016 0.0508 0.0508 0 0 0.0508 0.8636-0.3048 1.6256-0.8128 0.762-0.5588 1.6256-0.8636zm-1.6256 13.665q0.9652-0.5588 1.9812-1.2192 1.0668-0.6604 1.8288-1.1684-0.4064 0.1016-0.8636 0.3556t-0.9652 0.5588q-0.4572 0.254-0.9144 0.4572t-0.8636 0.2032l-0.1524-0.3556-0.8128 0.254 0.1016 0.254 0.7112-0.0508-0.7112 0.3048 0.1524 0.254 0.762-0.3556-0.6604 0.5588zm-18.339-1.9812q-0.254 0.5588-0.508 0.9652 0.254-0.2032 0.5588-0.254t0.5588-0.2032l-0.2032-0.1524-0.1016-0.3048q0.1524-0.3048 0.4064-0.508 0.254-0.254 0.508-0.508l-0.6096 0.254q0.254-0.1524 0.3048-0.2032 0.1016-0.1016 0.2032-0.1524 0.0508-0.0508 0.0508-0.0508 0-0.4572 0.5588-0.8636t0.8636-0.6604q-0.1524 0-0.4572 0.2032t-0.6604 0.4572-0.6604 0.508-0.4572 0.3556zm10.82-10.109q-0.5588 0.6096-1.27 1.016-0.7112 0.3556-1.3208 0.9144 0.6096-0.1524 1.1176-0.4572 0.5588-0.3048 1.1176-0.6604l0.2032-0.1524-1.524 0.7112 3.556-1.9812h-0.4572q-0.1016 0-0.2032 0.0508t-0.3048 0.0508zm4.0132-16.459-3.3528 1.5748-0.1524 0.2032q0.8636-0.2032 1.524-0.6604 0.7112-0.508 1.5748-0.6096h0.3048l0.3048-0.1524 0.0508 0.254q-0.1016-0.6096-0.2032-0.9652-0.1016-0.4064-0.508-0.8636l0.2032 0.508-0.1016 0.3556q-0.6096 0.3556-1.2192 0.6604t-1.1684 0.7112l2.6416-1.4224zm3.9624 13.208q-0.1016 0.3048-0.4572 0.5588-0.3048 0.254-0.762 0.508-0.4064 0.254-0.8128 0.5588t-0.6604 0.7112q0.8636-0.4572 1.6256-1.0668 0.8128-0.6096 1.8288-0.8636l-0.0508-0.254q-0.1016 0.1524-0.4572 0.254-0.3048 0.1016-0.508 0.1524l0.9652-0.4572-0.1016-0.4064zm-3.9624-10.922q-0.3048 0.508-1.0668 0.9652-0.7112 0.4064-1.1684 0.8128 0.762-0.4064 1.524-0.762 0.8128-0.3556 1.6256-0.762l-0.2032-0.6604zm-0.6096 10.668q0.7112-0.3048 1.6764-0.8128 1.016-0.508 1.524-1.0668-0.7112 0.254-1.524 0.7112-0.762 0.4572-1.524 0.4572-0.0508 0-0.254 0.1016l-0.1524 0.0508q0 0.1016 0.1524 0.1016zm-0.762-2.1844 0.8636-0.508q0.6096-0.8128 1.524-1.2192t1.7272-1.0668q-1.016 0.4572-2.1844 1.1176-1.1176 0.6604-2.032 1.27zm8.9916 11.887q-0.4064 0-0.7112 0.3556-0.254 0.3048-0.508 0.5588l0.762-0.4064 0.2032 0.2032 0.8128-0.4064q-0.1016-0.3556-0.2032-0.6604-0.0508-0.3556-0.1524-0.7112l-0.4064 0.2032 0.0508 0.3556-0.254 0.254 0.508-0.2032 0.254 0.2032zm-15.443-11.684q0.5588-0.2032 1.016-0.4572 0.508-0.254 1.016-0.5588l0.3048-0.6604-2.1336 1.2192zm10.363-3.7084q-0.762 0.4064-1.4224 0.7112-0.6604 0.254-1.1684 0.9652 0.7112-0.3048 1.3716-0.6604 0.6604-0.4064 1.3716-0.6604zm-11.735 7.62q0.4064 0 0.7112-0.2032 0.3556-0.2032 0.7112-0.4064l0.1016 0.4064q-0.6604 0.4064-1.3208 0.7112t-1.27 0.8128q0.3556 0 0.8636-0.254 0.5588-0.3048 1.0668-0.6604 0.508-0.4064 0.8636-0.7112 0.3556-0.3556 0.3556-0.4572v-0.2032zm12.446-5.4356q-0.0508 0-0.1524 0.1016-0.8128 0.4064-1.7272 0.8128t-1.6256 0.9144l3.7084-1.524zm-5.6388 8.382 0.1524-0.3048q-0.6096 0.4572-1.2192 0.9144t-1.3208 0.762l2.9972-0.1524q0.2032-0.2032 0.3048-0.4064 0.1016-0.254 0.3048-0.508-0.5588 0.2032-0.9144 0.4572-0.3556 0.2032-0.8636 0.4572l-1.524 0.0508zm-8.7884 8.382 0.2032-0.8128q-0.6096 0.3048-1.3208 0.7112l0.1524 0.3048 0.9652-0.508-0.1524 0.3556q-0.508 0.3556-1.016 0.6604-0.4572 0.3048-0.9652 0.7112 0.3556-0.2032 0.6604-0.3556 0.3556-0.2032 0.762-0.254l0.508-0.3556v-0.254zm13.411-6.2484q0.9652-0.508 2.0828-0.9144 1.1684-0.4064 2.032-1.0668l-0.0508-0.1524q-0.8128 0.254-1.5748 0.8636t-1.6256 0.6096h-0.4064l-0.6604 0.3048zm-2.6924-9.1948q0.7112-0.1016 1.3716-0.6096 0.6604-0.5588 1.3208-0.8128l0.254 0.1016 0.6096-0.3556-0.1016-0.3556zm5.7404 4.6228q-0.8128 0.2032-1.524 0.7112-0.6604 0.4572-1.4224 0.762l0.1524 0.1016q0.7112-0.3556 1.4224-0.6604 0.762-0.3556 1.524-0.6604zm-5.5372-1.2192q0.3048-0.1016 0.8128-0.6096 0.508-0.5588 0.8636-0.8128h-0.3556l-1.524 0.8636zm3.0988 7.4676 0.8128-0.4572 0.6096-0.762q-0.4572 0.3048-0.9652 0.3048l-0.1524-0.1016-0.508 0.254zm-4.7752-11.582q0.1016 0 0.1016-0.0508 0.0508-0.1016 0.1524-0.1016l1.2192-0.6096v-0.508l-1.524 0.762zm-9.2456 11.887 0.254 0.3048q0.4064-0.4064 0.762-0.5588 0.4064-0.2032 0.7112-0.9144zm12.954-2.6416q0.2032 0.1016 0.2032 0.2032l0.5588-0.3048v-0.2032l0.2032-0.3048-0.3048-0.0508-0.2032-0.3048-0.8636 0.6096h0.3556zm3.9624-2.8956q-0.5588 0.3048-1.0668 0.6096t-1.0668 0.5588l-0.4572 0.6096q0.6604-0.254 1.2192-0.7112 0.6096-0.4572 1.3208-0.7112l0.1524 0.3048-0.1016 0.3556 0.3048-0.2032zm-1.524-4.9784q-0.8128 0.4572-1.6256 0.9144-0.8128 0.4064-1.4732 1.0668l3.2004-1.8288zm-10.617 0.4064q-0.4572 0.508-1.016 0.8128t-0.9144 0.8636q0.4064-0.254 0.8128-0.4064t0.8128-0.4064zm10.109 11.735 0.5588-0.3048q0.1016-0.3556 0.254-0.6604 0.1524-0.3556 0.4572-0.6096l-0.1524 0.1016q-0.3556 0.254-0.762 0.508-0.3556 0.2032-0.5588 0.5588l0.9652-0.508-0.9144 0.6096zm-4.6228-15.545-0.1524 0.2032q0.8128-0.1524 1.4732-0.6096 0.7112-0.508 1.4224-0.9144l0.2032 0.3556 0.4572-0.254-0.1524-0.3556zm3.6068 2.6416 0.3048-0.1016 0.1524 0.3048-0.1524 0.3048 1.016-0.4572-0.2032-0.6096zm-6.6548-6.9596q-0.1016-0.1016-0.1016-0.254 0-0.1016 0.0508-0.1524l-1.27 0.7112-0.0508 0.508zm-11.176 24.384-0.3048-0.0508-0.1016-0.3556q-0.7112 0.4064-1.27 0.5588l-0.0508 0.2032h0.9652zm12.649-20.879 0.254-0.1524 0.0508-0.2032q0.1524-0.2032 0.4064-0.4572 0.3048-0.254 0.4064-0.3556-0.2032 0.1016-0.4572 0.2032t-0.508 0.2032-0.5588 0.254q0 0.1016 0.1524 0.1016zm11.176 17.831 0.2032 0.9144 0.6604-0.3048-0.508-0.8128zm-1.7272 2.6416q-0.7112 0.5588-1.5748 0.8636h0.7112l1.4224-0.8128zm-9.652-23.673q-0.7112 0.3556-1.3716 0.7112t-1.2192 0.8636l2.2352-1.1176zm-5.2324 14.021q0.508-0.1016 0.9652-0.3556 0.508-0.3048 1.016-0.6604t0.9652-0.6604q0.508-0.3048 1.016-0.4064l0.1524 0.2032 0.5588-0.254h-1.016zm-4.2164 3.4036 0.254-0.0508q0.1016-0.4572 0.4572-0.8128 0.4064-0.4064 0.762-0.762l-1.2192 0.762zm7.0104-13.157q-0.4572 0.254-0.9652 0.4572-0.4572 0.2032-0.8636 0.5588 0.4064-0.1016 0.762-0.254 0.4064-0.1524 0.8636-0.254zm11.379 20.269q1.778 0 3.6068 0.1524-0.1016-0.1016-0.1016-0.254h-0.254q-0.254 0-0.4572 0.0508-0.2032 0-0.4572 0.0508l-0.1524-0.3048-0.4572 0.254zm0.7112-4.3688-0.254 0.4572 1.016-0.3048 0.2032-0.5588zm-9.1948-16.358 1.3208-0.762q-0.508 0.2032-0.8636 0.2032-0.0508 0-0.1016 0-0.0508-0.0508-0.1524-0.0508l-0.4064 0.2032zm6.35 16.866q0.1016-0.3048 0.3048-0.5588 0.254-0.254 0.508-0.4572h-0.3556q-0.1016 0-0.3556 0.1016t-0.3556 0.1524zm-15.392-1.524 0.1524 0.254 0.6604-0.4572 0.2032-0.5588zm6.9596-21.336 0.4064-0.254q0.2032-0.254 0.4064-0.4572 0.254-0.2032 0.508-0.4064-0.3048 0-0.6096 0.2032t-0.6096 0.3556zm10.719 22.555q-0.3556 0.1016-0.9652 0.5588t-0.9144 0.7112q0.4064-0.1524 0.762-0.3556t0.762-0.4064zm-17.628 2.9972q-0.4572 0.3048-0.9144 0.762h0.508l0.7112-0.508zm17.323-9.9568q-0.7112 0.254-1.3716 0.6604-0.6604 0.3556-1.3716 0.508l-0.254 0.3048t0.3048-0.1524q0.3556-0.2032 0.8128-0.4064 0.4572-0.254 0.9652-0.508 0.5588-0.254 0.9144-0.4064zm2.8956 8.9916 0.2032 0.254q0.508-0.2032 0.8128-0.4572l-0.2032-0.3048zm-18.39-12.294 0.5588-0.3048q0.1524-0.508 0.5588-0.9144l-0.762 0.4064zm16.307 4.9784q-0.5588 0.3048-1.0668 0.6096t-0.9652 0.7112q0 0 0.3048-0.1524 0.3048-0.2032 0.6604-0.4064 0.4064-0.2032 0.762-0.3556 0.3556-0.2032 0.4064-0.2032zm-8.9408-10.109 0.5588-0.4064v-0.3048l-0.7112 0.3048zm-4.064 1.524-0.1016 0.254q-0.4064 0.254-0.8128 0.508-0.3556 0.2032-0.762 0.4572 0.762-0.3048 1.5748-0.762l0.254-0.5588zm-1.4732-0.762-0.1016-0.3556 0.2032-0.2032-0.3048 0.1524q-0.1016 0.254-0.2032 0.508t-0.254 0.508q0.254-0.1016 0.6604-0.4064zm-3.81 12.802q-0.4572 0.254-0.9144 0.4064-0.4064 0.1524-0.7112 0.7112zm18.847 4.826q0.3048-0.1016 0.6096-0.2032 0.3048-0.1524 0.6096-0.3048l-0.0508-0.254zm-12.141-20.218q-0.4064 0.1016-0.8128 0.254t-0.8128 0.4064l-0.1016 0.2032zm-2.286 8.8392q-0.1016 0-0.254 0-0.1016-0.0508-0.2032-0.0508-0.1524 0-0.1524 0.2032l-0.6096 0.4064v0.2032q0.3048-0.2032 0.5588-0.4064 0.3048-0.2032 0.6604-0.3556zm15.545 10.16-0.1524-0.508-0.0508 0.1524q-0.2032 0.2032-0.4064 0.3556-0.1524 0.1016-0.3556 0.254l0.6604-0.0508zm-19.05 1.778q0-0.0508 0.254-0.1524l-0.6604-0.1016-0.7112 0.4572q0.2032 0 0.4572-0.0508t0.4064-0.1524zm18.644-3.7592 0.1016 0.2032 0.4572-0.254-0.254-0.5588zm-16.866-11.938 0.0508-0.254q-0.1016-0.1016-0.1016-0.1524 0-0.1524 0.1016-0.3048t0.2032-0.254l-0.0508-0.2032-0.1524 0.1016q-0.1524 0.508-0.4064 1.1684zm-1.8288 4.9784 1.4732-0.9144q-0.3048 0.1524-0.6604 0.3048-0.3556 0.1016-0.6604 0.254zm9.5504-5.588 0.3556-0.508-0.2032-0.1524-0.4064 0.2032 0.1016 0.3048zm-1.9304-5.3848 0.2032-0.1524q0-0.508 0.2032-0.762l-0.5588 0.3048zm-1.6764-3.6576 0.6096-0.3556q-0.1016-0.1016-0.1016-0.3556l-0.3048 0.1524zm-7.8232 19.66 0.762-0.5588q-0.0508 0-0.1524-0.0508-0.0508-0.0508-0.1016-0.0508l-0.3048 0.2032zm5.9436-14.072q0.4064 0 0.7112-0.1524 0.3556-0.1524 0.6096-0.4064zm2.7432-9.398q-0.1016 0.2032-0.1016 0.3556l1.0668-0.508q-0.508 0-0.9652 0.1524zm8.9408 25.248q-0.3048 0.1524-0.5588 0.508l0.8636-0.3556zm-15.088-3.5052-0.0508 0.4572 0.4572-0.254 0.2032-0.508zm10.617-4.7752q-0.4064 0.508-0.8636 0.762l1.016-0.508zm-7.8232-6.9596-0.1524-0.0508-0.2032-0.3048-0.2032 0.6096zm6.096-9.8552 0.508-0.1524-0.8636-0.1524-0.762 0.3048 0.9144-0.2032zm6.9088 24.79 0.3048-0.6604-0.508 0.4064-0.0508 0.254zm-1.4732 2.6416q0.2032-0.1524 0.6096-0.3556 0.4064-0.254 0.508-0.3556-0.3048 0.0508-0.6096 0.2032-0.254 0.1524-0.508 0.3048zm-18.085 1.778-0.5588 0.0508-0.3048 0.254 0.5588-0.0508zm4.1656-10.668q-0.3048 0.2032-0.762 0.4064l-0.3048 0.3048zm17.882 8.0772-0.1524-0.3048-0.5588 0.3048 0.508-0.1524zm-12.903-21.336 1.016-0.4064-0.254-0.0508zm-3.556 11.176 0.5588-0.1016q0-0.1016 0-0.1524 0.0508-0.0508 0.0508-0.1524zm11.328 7.3152 0.4572-0.4572-0.508 0.254zm-14.376-4.1656 0.1016-0.5588-0.1524 0.1016-0.2032 0.6096zm-2.6416 5.1816-0.254 0.5588 0.3556-0.1524-0.1016-0.2032zm18.034 1.5748 0.4064-0.3556q-0.3048 0.1016-0.508 0.1016zm-14.224-9.8552 0.4064-0.2032-0.1524-0.1524-0.1524 0.1016zm9.906-1.016q0-0.1016 0.0508-0.2032l-0.2032 0.1016 0.1524 0.3556zm5.08 13.818q-0.2032 0.2032-0.508 0.3048h0.2032zm-7.874-20.472 0.1524 0.508 0.1524-0.0508zm-2.3876-4.9276q0.0508-0.0508 0.0508-0.1016l0.0508-0.0508v0.0508zm13.208 20.676q-0.254 0.1524-0.508 0.3048-0.254 0.1016-0.508 0.2032zm-11.379-20.93q-0.254 0.1016-0.4572 0.2032t-0.4064 0.2032q0.5588-0.1016 0.8636-0.4064zm-7.7216 15.392q0.1016-0.0508 0.1016-0.0508 0-0.0508 0-0.0508-0.1016 0-0.1016 0.1016zm23.571 9.652q-0.0508-0.0508-0.1524-0.0508 0 0.0508 0.1524 0.0508zm-27.635-0.8128q-0.1524 0.1524-0.1524 0.1524 0 0.1016-0.0508 0.1524zm14.63-10.414q0.1524-0.1016 0.254-0.2032 0.1524-0.1016 0.254-0.254z" style="font-feature-settings:normal;font-variant-caps:normal;font-variant-ligatures:normal;font-variant-numeric:normal"/>
				<path d="m78.066 218.41q-0.7112 0-1.2192 0.0508-0.4572 0-1.0668 0.254l-0.2032-0.254 0.5588-0.508q-0.0508-0.1016-0.0508-0.4064 0.6604-0.4064 1.4224-0.508 0.762-0.1524 1.3716-0.5588 0.5588-0.254 1.2192-0.4064 0.6604-0.2032 1.3208-0.2032 0.254 0 0.4572 0.1016 0.254 0.0508 0.508 0.0508 0.0508 0 0.0508 0 0.0508-0.0508 0.1016-0.0508l0.3556 0.4572-0.0508 0.254 0.1524 0.0508q0.508 0.254 0.508 0.8636t-0.4064 1.1176l-0.3556 0.3556v0.508l0.3048-0.1524v0.508l-0.3048 0.2032v0.4572l0.3048-0.1524v0.6604l-0.3048 0.1016 0.0508 0.8636 0.3048-0.1524v0.4572l-0.254 0.1016q0 0.254 0 0.5588 0 0.254 0.0508 0.508 0.1016-0.4064 0.1016-0.6096l0.3556 0.254-0.1016 1.3716q0.1016 0.3556 0.1016 0.7112 0.0508 0.3048 0.0508 0.7112v0.7112q0.254-0.1524 0.5588-0.3048 0.3048-0.2032 0.6096-0.3048l0.2032 0.0508q1.016-0.4572 2.3876-0.9652 1.4224-0.5588 2.54-0.5588 0.254 0 0.6096 0.1016 0.4064 0.1016 0.4064 0.508h0.508q0.0508 0.0508 0.1016 0.1016 0.0508 0 0.1016 0.1016 0.254 0.1524 0.4572 0.3048 0.2032 0.1016 0.4064 0.254l0.762 0.5588 0.3048-0.1016q0.3556 0.3048 0.6604 0.6096 0.3048 0.254 0.7112 0.508l-0.3048 0.1524 0.2032 0.3556 0.3048-0.1016q0.1524 0.1524 0.1524 0.1524l0.3556 0.0508q0 0.1016-0.1016 0.1524-0.0508 0-0.0508 0.1016l0.1524 0.2032 0.3048-0.1016 0.3048 0.4572q0.0508 0.1016 0.1016 0.2032t0.1016 0.1016q0.1524 0 0.1524 0.1524v0.2032l0.0508 0.254 0.2032 0.254q0.0508-0.0508 0.0508-0.0508 0.0508 0 0.0508 0.0508 0 0 0.0508 0l-0.1524 0.1016 0.4572 0.4572 0.2032 0.762-0.3556 0.1524-0.0508 0.4572 0.4572-0.2032 0.1524 0.6604-0.254 0.3048q0-0.1016 0.1016-0.1016t0.1524 0.1016q0.0508 0.0508 0.1016 0.1016v0.8636l0.1524 0.2032v1.8288q-0.2032 0.2032-0.1524 0.6096 0.0508 0.3556-0.0508 0.6096h-0.4572l-0.1016 0.8128 0.4572-0.2032-0.1016 0.3048 0.1524 0.254q-0.254 0.5588-0.4572 1.016t-0.3556 1.016l-0.3556 0.8636-0.3048 0.2032-0.4572 0.6096 0.4064-0.2032-0.1016 0.254 0.1524 0.0508q-0.0508 0.254-0.3048 0.7112-0.2032 0.4572-0.5588 0.8636-0.3048 0.4064-0.7112 0.762-0.3556 0.3048-0.6604 0.3556-0.9652 0.7112-2.1336 1.3208-1.1176 0.6096-2.3368 0.6096-0.1016 0-0.6604 0.1524-0.5588 0.1524-0.9652 0.1524l0.1016-0.508q-0.7112 0-1.4224-0.0508-0.6604-0.0508-1.3716-0.2032l-0.0508 0.1524-0.3048 0.1016q-0.5588-0.254-1.016-0.6604-0.4064-0.4572-0.9144-0.8128-0.4064 0.4064-0.8636 0.9144-0.4572 0.4572-1.016 0.6096l-0.1524 0.2032q-0.5588 0-1.1684 0.1016-0.5588 0.1524-1.1176 0.1524-0.508 0-0.8636-0.2032l-0.2032-0.254q0-0.1524 0.1524-0.4064 0.2032-0.254 0.4064-0.508 0.254-0.254 0.4572-0.4572 0.254-0.2032 0.4064-0.254l0.3048-0.6096v-0.3556q0-0.3556 0-0.6604 0.0508-0.3048 0.0508-0.6604v-0.3048l-0.1524-0.762q-0.1524-0.1524-0.2032-0.3048 0-0.2032 0-0.4572v-0.9652q-0.1016-0.7112-0.1524-1.3208-0.0508-0.6604-0.0508-1.3716 0-1.27 0.1524-2.3876l0.1524-0.1524q0.0508-0.254 0.0508-0.5588 0.0508-0.3048 0.0508-0.6096 0-0.1524 0.0508-0.254 0-0.8128-0.1524-1.524-0.1524-0.762-0.1524-1.5748 0-1.778 0.2032-3.556t0.2032-3.556q0-0.4572-0.0508-0.9144-0.0508-0.508-0.0508-0.9652l-0.9652 0.3556-0.1016-0.3048 0.8128-0.8636-0.0508-0.3556q-0.1524 0.0508-0.3048 0.1016t-0.3048 0.0508q-0.2032 0-0.3048-0.1016v-0.3556q0.1016-0.1524 0.2032-0.3048 0.1524-0.1524 0.3556-0.3048 0-0.1016-0.2032-0.1016-0.1016-0.3048-0.1016-0.4572zm5.4356 14.427q-0.1524 0-0.1524 0.3048l0.1016 0.254q0 0.6604-0.1524 1.524 0 0.0508-0.0508 0.1016 0 0.0508 0 0.2032v2.5908l0.1524-0.0508v0.254l-0.1524 0.1016v0.4572l0.1524-0.0508q0.0508 0.4064 0.0508 0.8128t0 0.8128l-0.4572 0.3048 0.0508 0.4572 0.4572-0.254v0.4064l-0.508 0.3556 0.508 0.3556v-0.2032l0.3556-0.1524q0 0.1016 0.0508 0.1524 0.2032 0.4064 0.3556 0.8128t0.2032 0.8128l0.2032-0.1524-0.0508 0.2032 0.8636 0.3048 0.0508 0.2032 1.1176 0.508q0.0508 0 0.2032 0.1524 0.9652-0.1524 1.6256-0.508l0.1524-0.2032 0.1524-0.0508 0.1524 0.2032 0.7112 0.1016q0.1016-0.2032 0.2032-0.508 0.1524-0.3048 0.3556-0.6096t0.4064-0.5588 0.4064-0.3048l0.2032 0.254-0.0508 0.254q0.254-0.3556 0.4572-0.7112 0.254-0.4064 0.508-0.762l0.1016-0.4572-0.3048-0.1016v-0.3556l0.254-0.3556q-0.1016-0.508-0.1016-0.762 0-0.4064 0.0508-0.762 0.0508-0.4064 0.0508-0.8128 0-0.508-0.2032-0.762-0.1524-0.3048-0.1524-0.7112t0.1524-0.7112q0.2032-0.3048 0.2032-0.6604 0-0.3048-0.1016-0.8636-0.0508-0.5588-0.1524-1.1176-0.0508-0.5588-0.1524-1.1176-0.0508-0.5588-0.1016-0.8636-0.3556-0.7112-0.8128-1.0668-0.4064-0.3556-0.8636-0.9144-0.1524 0-0.508 0-0.3048-0.0508-0.6604-0.1016-0.3048-0.0508-0.6096-0.1524-0.254-0.1016-0.3048-0.254-1.1684 0.254-2.0828 1.0668-0.8636 0.762-1.7272 1.4732-0.3048 0.508-0.4064 1.0668t-0.2032 1.1176zm13.005 0.254q-0.5588 0.3048-1.1684 0.6604-0.5588 0.3048-1.1684 0.5588l-0.3048 0.4064 0.5588-0.1016q0.4572-0.1524 0.8128-0.4572 0.4064-0.3048 0.8128-0.3048l0.508-0.2032-0.4064 0.3048q0 0.1524-0.3556 0.4572-0.3556 0.254-0.762 0.6096-0.4064 0.3048-0.8128 0.6096-0.4064 0.254-0.5588 0.4064 1.5748-0.7112 3.2512-1.6764 0-0.4572-0.0508-0.7112l-0.3048-0.1524zm-15.748-2.2352q1.016-0.762 2.2352-1.3208 1.27-0.6096 2.4384-1.1176l-0.3048-0.0508-0.1524-0.254 0.254-0.3556-2.8956 1.4732q0 0.1524-0.2032 0.4064t-0.4572 0.508q-0.254 0.2032-0.508 0.4064t-0.4064 0.3048zm-0.1524 4.5212h-0.508l-0.1524-0.2032v-0.2032l-0.4572 0.2032v-0.2032l0.5588-0.3556 0.4064-0.5588q-0.0508 0.0508-0.2032 0.0508-0.2032 0-0.3048-0.0508v-0.3048l-0.508 0.3048v-0.3556l0.8128-0.4064q-0.254 0.1016-0.4572 0.1524-0.2032 0-0.4572 0.0508l-0.0508 0.3048q0 0.5588 0 1.0668 0 0.4572-0.1016 1.016l0.3556 0.8636v-0.254l0.9652-0.508 0.8636-0.9144-1.8796 0.9144zm10.465-9.5504q-0.254-0.1016-0.508-0.1524t-0.508-0.0508q-0.6096 0.3048-1.3208 0.3048l-1.0668 0.5588q-0.4064 0.5588-1.1176 0.762-0.6604 0.2032-1.0668 0.762 0.6096-0.1016 1.1684-0.3556t1.0668-0.5588q0.5588-0.3556 1.0668-0.6604 0.5588-0.3556 1.1176-0.508l0.1524 0.3556zm-7.62 17.424-0.4572 0.254q-0.5588 0.8128-1.6256 1.2192l0.3048 0.1524-0.1016 0.2032-0.6096 0.1524-0.1016-0.254 0.1016-0.254-1.6764 0.9652-0.0508 0.1524-0.2032 0.1524q0.8636-0.2032 1.7272-0.254 0.9144-0.1016 1.5748-0.8636l-0.254-0.254-0.4064 0.254 0.5588-0.4572q0.1524-0.0508 0.508-0.254 0.4064-0.2032 0.508-0.3048zm-3.7592-0.3048 0.8636-0.5588-0.1016-0.3556-0.8636 0.4572v-1.9812l0.4572-0.2032q-0.4064 0.1016-0.3556 0.1016-0.1016 0-0.1016-0.0508 0.0508-0.0508-0.1524-0.0508l-0.1016 0.5588q-0.1524 0.1524-0.1524 0.1524 0.2032 0 0.254 0.4572 0.1016 0.4572 0.1016 0.8636v0.254q0 0.5588 0 0.9652 0.0508 0.3556 0.3048 0.762-0.1016 0.1016-0.1016 0.254l0.7112-0.4064q0-0.0508-0.0508-0.1016 0-0.0508 0-0.1016 0-0.4572 0.3048-0.8636 0.3556-0.4064 0.762-0.8128l-1.8288 1.1684zm12.954-9.6012q0.1016 0.3048 0.1524 0.6096t0.1016 0.6096l0.1016 1.5748q0.2032-0.254 0.4064-0.4572 0.254-0.2032 0.508-0.4064l-0.508 0.2032 0.1016-0.4064q-0.1016-0.3048-0.1524-0.6096-0.0508-0.3556-0.1524-0.6604l-0.254-0.1016v-0.2032l0.1524-0.3048-0.0508-0.3556 0.508-0.254 0.8636-0.9144q-0.5588 0.254-1.016 0.6096-0.4064 0.3556-0.9652 0.4572 0 0.1016 0.0508 0.3048t0.1524 0.3048zm-12.446-4.7244-0.4064 0.1016v-0.3556l-0.508 0.2032v-0.6604l1.016-0.508 0.4064-0.6604-1.4224 0.7112 0.0508-0.3556 1.4224-0.6604h-0.3048l-0.1524-0.2032 0.0508-0.3556q-0.254 0.1524-0.508 0.3048-0.254 0.1016-0.508 0.2032-0.0508 0.5588-0.0508 1.1176 0 0.508 0 1.0668l0.0508 0.4064zm2.3368 9.6012v-0.9144l-2.794 1.524v0.3048q0.1524-0.0508 0.508-0.2032 0.3556-0.2032 0.7112-0.4064t0.6604-0.3556 0.3048-0.1524l0.1016 0.4572-0.2032 0.1016zm-3.0988-13.564 1.6764-0.7112 0.6604-0.6604-0.7112 0.3048-0.1524-0.3556q-0.508 0.2032-0.762 0.3048t-0.4064 0.1524q-0.1524 0.1016-0.1524 0.1016 0 0.1016-0.1016 0.1016zm12.751 2.5908q-0.2032 0.3048-0.508 0.5588t-0.5588 0.508q0.4064-0.1524 0.762-0.3048 0.3556-0.2032 0.762-0.2032l0.2032 0.1016 0.8128-0.3556-0.2032-0.2032-0.2032-0.0508-0.4572-0.3556zm2.5908 3.8608 0.1524 0.254q-0.1016 0.2032-0.2032 0.4064-0.1016 0.1524-0.2032 0.3556l1.6764-0.762q0-0.1016-0.0508-0.1524 0-0.1016 0-0.2032-0.0508-0.1016-0.1016-0.2032-0.1524 0-0.254-0.1524zm-5.4356 13.716-0.0508 0.1524-0.3556 0.254-0.2032 0.4064 2.9972-1.6764q-0.0508 0-0.1016 0.0508-0.0508 0-0.1016 0l-0.0508-0.3556zm7.3152-7.5184q-0.4572 0.3048-0.9652 0.5588-0.508 0.2032-1.016 0.4572l0.1016 0.4064-0.6604 0.4064q0.6096-0.254 1.2192-0.5588t1.27-0.5588zm-13.767-3.1496q0.1016-0.2032 0.1016-0.4064v-0.254l-2.54 1.2192-0.1524 0.3048q0.508-0.0508 0.8636-0.3556t0.762-0.5588l0.3048 0.3556zm9.0424 10.82q-0.1016 0.0508-0.4064 0.254-0.3048 0.1524-0.6604 0.3556t-0.6604 0.4064q-0.3048 0.1524-0.3556 0.254 1.016-0.254 2.032-0.762 1.0668-0.5588 1.9304-1.27 0 0.1524-0.254 0.254-0.2032 0.0508-0.4572 0.1524-0.254 0.0508-0.4572 0.1524-0.2032 0.0508-0.2032 0.1524t-0.1016 0.2032zm-8.5852-14.224q0.2032-0.254 0.4572-0.4572 0.254-0.254 0.4572-0.508l-1.778 0.762-0.0508 0.3048q-0.2032 0.254-0.4572 0.4572-0.254 0.1524-0.508 0.3556zm2.032-3.81-0.5588 0.1016-0.0508 0.3556q0.1016-0.1016 0.4572-0.3048 0.4064-0.254 0.8636-0.508t0.8636-0.4572 0.5588-0.254l-0.5588-0.0508q-0.5588 0-1.016 0.3556-0.4064 0.3556-0.9144 0.4572l0.4064-0.1016zm8.2804 6.1468-0.254 0.3048q0.7112-0.254 1.3716-0.508 0.7112-0.3048 1.4224-0.508l0.254-0.1016 0.0508-0.254q-0.1016 0-0.1016-0.2032zm2.9464 5.4356q-1.3208 0.5588-2.3876 1.2192 0.4064-0.1524 0.8636-0.1524h0.3048l1.4732-0.762 0.0508-0.1524zm-14.072 3.048q-0.4064 0.4064-0.762 0.8636-0.3048 0.4064-0.6096 0.8636l1.6256-1.0668-0.1016-0.4572q-0.1524-0.1524-0.1524-0.2032zm0.4572-8.636v-0.8636l-2.2352 1.2192-0.254 0.3048q0.4064-0.2032 1.0668-0.6096 0.6604-0.4572 1.1176-0.508l0.2032 0.3556-0.1524 0.0508q-0.4064 0.2032-0.9144 0.5588-0.4572 0.3048-0.8128 0.6096zm9.7028-1.3208 0.508-0.508h-0.254l-0.3048 0.2032-0.2032-0.4064 0.3048-0.1016q0.1016-0.3048 0.3556-0.4572 0.254-0.2032 0.508-0.3556l-1.3208 0.5588-0.1524-0.3556 0.254-0.1016-0.2032-0.3556-0.254 0.1016-0.1016-0.254 0.7112-0.254q-0.254 0.1016-0.5588 0.1524-0.254 0-0.508 0.0508l0.4572 0.7112q0.0508 0 0.1524 0.1016zm1.4732 8.636q-0.6604 0.2032-1.4732 0.3048-0.1016 0.9144-0.3048 1.7272 0.3048-0.3048 0.7112-0.508t0.8128-0.4572l-0.8636 0.3048-0.1016-0.3556 0.6604-0.508-0.9144 0.508 0.0508-0.254zm0.762-10.109v0.3048l-1.7272 1.1684 2.4892-1.0668-0.3048-0.6096zm-6.2992 14.275q0.1524 0 0.3048 0 0.1524-0.0508 0.254-0.0508l-0.508-0.1524q-0.254 0.254-0.5588 0.3556-0.3048 0.0508-0.6604 0.1524l-0.8636 0.5588-0.3556 0.5588q0.0508 0 0.1016-0.0508 0.1016-0.0508 0.2032-0.0508zm3.3528-18.034q-0.6604 0.254-1.27 0.6604-0.6096 0.3556-1.2192 0.762l-0.2032 0.1524q0.762-0.1016 1.3716-0.5588 0.6604-0.508 1.524-0.508l0.4064-0.2032q-0.1016-0.1016-0.3048-0.2032-0.1524-0.1016-0.3048-0.1016zm0.9652 12.446q1.016-0.9144 2.032-1.4732l-2.3876 0.9144q0 0.254-0.0508 0.3048 0 0.0508 0 0 0.1524 0 0.1524 0.0508zm2.2352-3.2004q0 0.1016-0.0508 0.2032 0 0.0508 0 0.1524l-0.3048 0.254q1.1176-0.5588 2.1844-0.9144v-0.4572zm-14.58-17.272 0.1524 0.3556 1.4732-0.7112v-0.4064zm1.7272 22.911q0.2032 0 0.2032-0.0508v-0.508l-1.6764 1.0668-0.0508 0.2032q0.4064-0.1524 0.762-0.3048 0.3556-0.2032 0.762-0.4064zm0-22.2q-0.2032 0.1016-0.6604 0.3556-0.4064 0.254-0.4064 0.5588 0 0.1524-0.1016 0.254l1.1684-0.508zm0.4064 6.5532q-0.1524 0.0508-0.4572 0.254-0.254 0.1524-0.5588 0.4064-0.254 0.2032-0.508 0.4064-0.2032 0.2032-0.3048 0.3556 0.254-0.1016 0.6096-0.254t0.508-0.3556l0.7112-0.3556 0.0508-0.2032q0-0.1016-0.0508-0.1016 0-0.0508 0-0.1524zm12.7 14.173q-0.1016 0.2032-0.254 0.4064-0.1524 0.1524-0.3048 0.3556 0-0.0508 0.2032-0.1524 0.254-0.1016 0.508-0.254t0.508-0.254 0.3048-0.1524l0.3048-0.6096zm-16.104-13.767 1.2192-0.508 0.5588-0.6096-0.8128 0.3048-0.9144 0.4064zm1.7272 11.735 1.4732-0.8636 0.0508-0.5588q-0.1016 0.1016-0.5588 0.3048t-0.508 0.3048v0.3556zm10.77 5.7404q0.6604-0.2032 1.3208-0.4064 0.7112-0.254 1.1176-0.8636zm-10.77-17.983-0.3048 0.4572q0.508-0.1524 0.9144-0.4064 0.4572-0.254 0.9144-0.508l0.1016-0.3048zm13.462 3.0988q-0.3048 0.1524-0.9144 0.4572-0.6096 0.254-0.8128 0.508 0.4572-0.1016 1.016-0.254t0.9652-0.3556zm-12.192-7.2136q-0.5588 0.1524-1.1176 0.5588-0.5588 0.3556-0.9144 0.762l2.032-1.016zm12.344 8.128q-0.254 0.3048-0.6096 0.508t-0.6604 0.4572l1.9304-0.8128q0-0.1016 0-0.2032t-0.1016-0.2032zm-15.291-4.1148 0.6604-0.3048q0-0.254 0.3048-0.5588 0.3556-0.3048 0.6096-0.4572l-1.524 0.8128zm3.9624 6.096 0.1524-0.3556-0.254-0.0508-0.9652 0.508v0.3556q-0.2032 0.1016-0.4064 0.254-0.1524 0.1016-0.3048 0.3048l1.4224-0.762v-0.2032zm-1.4224 4.2164q0.1016 0 0.2032 0.0508t0.1016 0.1524l0.4572-0.254 0.0508-0.4572-2.0828 1.0668-0.3556 0.4064q0.4572-0.1524 0.8128-0.4064 0.4064-0.3048 0.8128-0.5588zm8.382-10.617q0-0.1016-0.1016-0.1524-0.1016-0.1016-0.2032-0.1016-0.4064 0-0.8128 0.1524-0.3556 0.1016-0.7112 0.254-0.0508 0-0.1016 0.0508 0 0-0.0508 0 0.1016 0 0.4064 0t0.6096 0q0.3556-0.0508 0.6096-0.1016 0.3048-0.0508 0.3556-0.1016zm-8.7884 10.363 1.27-0.6604 0.0508-0.508-0.8128 0.4572zm13.767 1.3716 1.3716-0.4572 0.254 0.1524 0.3556-1.0668v0.3556zm-3.3528-7.7724q0.508-0.1524 0.9652-0.4064t0.9652-0.4572l0.1524 0.4064 0.4064-0.2032-0.4064-0.508zm3.302 11.379v0.4572l0.6604-0.3556 0.508-0.7112zm-15.037-0.6604q0.4572-0.2032 0.9144-0.4572t0.9652-0.254l0.4572-0.1524v-0.4064q-0.5588 0.254-1.2192 0.5588t-1.1176 0.7112zm0.6096 4.1656q0.4064-0.254 0.762-0.6096t0.7112-0.7112l-1.1176 0.6604zm9.906-0.2032q0.3556-0.2032 0.6096-0.4572 0.3048-0.3048 0.5588-0.6096l-0.0508-0.4572q-0.1016 0.3048-0.4064 0.7112-0.254 0.3556-0.5588 0.3556l0.0508 0.1524zm-9.398-26.772-0.0508 0.254-0.4064 0.3556 1.27-0.6096-0.1016-0.3556zm-1.9812 12.598 1.9812-1.2192-1.9812 0.762zm2.6924-10.668q-0.6096 0-1.1684 0.3048-0.508 0.3048-0.9652 0.6604 0.4572-0.2032 0.8128-0.4572 0.4064-0.3048 0.8636-0.4572l0.254 0.2032q0.4064-0.2032 0.4572-0.254t0.0508-0.1016q0-0.1524-0.1016-0.4572l-0.2032 0.1016zm-1.8796 2.54q0.4064-0.1016 0.8128-0.3048 0.4064-0.254 0.8128-0.4572l0.3048 0.254 0.254-0.1524v-0.4572zm-0.6096 10.16q0.2032-0.254 0.4064-0.508 0.2032-0.3048 0.4572-0.508l-0.5588 0.2032-0.1524-0.2032-0.1524 0.1016zm-0.762-13.919q0.1524-0.1016 0.4064-0.2032 0.3048-0.1524 0.6096-0.3048t0.5588-0.3048q0.3048-0.1524 0.3556-0.3048-0.5588 0.1524-1.0668 0.4572-0.4572 0.3048-0.8636 0.6604zm0.9652 20.625 0.508-0.4572q-0.0508-0.0508 0.1016-0.2032t0.2032-0.2032l-0.8636 0.4572zm2.7432-14.021q-0.0508 0-0.4572 0.3556t-0.508 0.4572l1.0668-0.4572zm11.024 12.751q-0.254 0.1524-0.4572 0.3556-0.1524 0.2032-0.3556 0.4064l0.762-0.254zm-14.122-4.3688 0.7112-0.5588-0.6604-0.1016zm2.9972-9.4996-0.254 0.3556-0.4572 0.4064 0.762-0.254v-0.3048zm12.294 18.847 0.1016 0.3048 0.3048-0.1524 0.254-0.508zm-3.3528-14.427q-0.2032 0.1524-0.6096 0.3048-0.3556 0.1524-0.6096 0.254l0.508 0.1016q0.1524-0.2032 0.3048-0.3556 0.2032-0.1524 0.4064-0.3048zm-9.4488-5.588 0.1524 0.3048q0 0.0508-0.1016 0.1016-0.0508 0.0508-0.1016 0.1016l0.508-0.254v-0.508zm2.8956 22.962 0.2032-0.0508 0.254-0.4572-0.7112 0.4064zm3.5052 0.8636q0-0.1016 0-0.1524 0.0508-0.0508 0.0508-0.1016-0.2032 0.1524-0.7112 0.3556l0.3556 0.0508zm-2.3368-0.3048q0.1016-0.0508 0.1524-0.2032 0.1016-0.1524 0.1524-0.254-0.4064 0.1524-0.6604 0.3556zm-3.9116-17.678-0.5588 0.508q0.3556-0.2032 0.4572-0.2032 0.1016-0.0508 0.1016-0.0508 0.2032 0 0.254-0.2032zm11.125 11.786q-0.1016 0.1016-0.2032 0.1524-0.0508 0-0.1524 0.0508v0.254l0.254-0.0508zm-6.5024 5.1816v0.3556l0.7112-0.4572zm4.5212-15.697 0.1524-0.1524-0.2032-0.254-0.254 0.1016zm-6.5024 16.866q0-0.1016-0.1016-0.1016-0.1016-0.0508-0.1524-0.1524l-0.4572-0.2032q0.1524 0.1524 0.3048 0.3048 0.1524 0.1016 0.4064 0.1524zm-1.6764-1.524 0.254-0.4572-0.6096 0.4064zm-2.9972-11.532q0.4064-0.1524 0.762-0.4064 0.4064-0.254 0.8128-0.508zm10.414 10.414q0.2032-0.1016 0.2032-0.1016 0.1016 0 0.1524-0.2032 0.0508-0.254 0.0508-0.3556-0.1016 0.254-0.4064 0.6604zm-13.005-25.4h0.2032l0.5588-0.254h-0.3556zm2.6924 4.9784q0.4064-0.2032 0.8128-0.4064 0.4572-0.2032 0.8636-0.4572zm16.662 13.868-0.9144 0.5588 0.8636-0.3556zm-15.494-20.574-0.0508 0.254 0.5588-0.254zm-1.6764 5.9436 0.4572-0.254-0.5588 0.1016zm-0.254 7.6708-0.2032 0.2032 0.2032 0.1524zm0.254 7.4676 0.2032-0.1016-0.254-0.3048zm-0.762-18.136 0.762-0.2032h-0.508zm0.1524 26.314q0-0.1016 0-0.1016 0.0508-0.0508 0.0508-0.1016l-0.2032 0.1524z" style="font-feature-settings:normal;font-variant-caps:normal;font-variant-ligatures:normal;font-variant-numeric:normal"/>
				<path d="m99.047 232.94q0.508-1.524 1.4732-2.9464 0.9652-1.4732 2.2352-2.5908 1.3208-1.1176 2.8956-1.778 1.5748-0.7112 3.302-0.7112 0.1016 0 0.508 0.0508 0.4572 0 0.9652 0.0508 0.508 0 0.9144 0.1016 0.4064 0.0508 0.4572 0.1524l0.1524 0.2032q1.27 0.3556 2.2352 1.2192 1.016 0.8128 1.9812 1.6764l-0.254 0.4064q0.3048 0.3556 0.5588 1.0668 0.3048 0.6604 0.508 1.4732 0.254 0.762 0.4064 1.524 0.1524 0.7112 0.254 1.2192l0.254 0.254q0 0.3556 0 0.7112 0.0508 0.3048 0.0508 0.6604 0 0.762-0.3048 1.9304-0.254 1.1684-0.4572 2.0828l0.1016 0.3556 0.2032-0.1016 0.1524 0.3048-0.6096 0.254q-0.1016 0.254-0.3556 0.6096-0.2032 0.3556-0.2032 0.3048l0.1016 0.1524-1.0668 1.6256q-0.508 0.762-1.27 1.524-0.7112 0.7112-0.8128 1.3208l-0.4064-0.1524q-0.1524 0.1524-0.8128 0.4064-0.6096 0.254-1.3716 0.508-0.7112 0.254-1.3208 0.4572t-0.762 0.2032l-0.3048-0.1016q-0.8636-0.1016-1.6764-0.254t-1.7272-0.3048q-0.7112-0.3048-1.1684-0.6096-0.4572-0.3556-0.8128-0.7112-0.3556-0.4064-0.7112-0.8128t-0.9144-0.9144q-0.3556-0.8636-0.8128-1.5748-0.4064-0.762-0.762-1.524-0.3556-0.8128-0.6096-1.6256-0.254-0.8636-0.254-1.8288v-0.254l0.3556 0.1016q-0.1016-1.016-0.1016-2.0828t-0.2032-2.032zm9.4996 11.786q0.0508 0 0.0508 0 0.0508-0.0508 0.1016-0.0508t0.0508 0q0.0508-0.0508 0.1016-0.0508t0.1016 0q0.0508-0.0508 0.1016-0.0508t0.0508 0q0.0508-0.0508 0.1016-0.0508t0.1016 0q0.0508-0.0508 0.1524-0.0508 0.8128-0.2032 1.6256-0.508t1.2192-1.1176q0.1524-0.1016 0.3556-0.2032t0.4064-0.2032 0.4572-0.254q0-0.1524-0.1524-0.1524-0.254 0.0508-0.4572 0.1016t-0.4064 0.1524q0.3556-0.8636 0.4064-1.8288 0.1016-0.9652 0.2032-1.9304l-0.1524-0.2032q0-0.7112 0.1524-1.3716 0.2032-0.6604 0.2032-1.3716 0-1.1176-0.3048-2.3368t-0.5588-2.286q-0.4064-0.3556-0.762-0.8128-0.3556-0.508-0.762-0.9652-0.3556-0.4572-0.762-0.8636t-0.9652-0.5588q-0.4064 0.1016-0.8128 0.1524-0.3556 0.0508-0.762 0.1524l-1.3208 0.8128-0.0508 0.2032q-0.4572 0.3556-0.7112 0.6096-0.2032 0.2032-0.4064 0.4572-0.1524 0.254-0.3556 0.5588-0.1524 0.3048-0.4064 0.8128h0.3048q-0.508 0.8636-0.6604 1.778-0.1016 0.9144-0.2032 1.8796l-0.254 0.3048q0.1016-0.4064 0.1016-0.8128 0.0508-0.4064 0.1016-0.8128l-0.2032-0.1524q-0.1524 0.762-0.1524 1.6764 0 0.4064 0 0.8636 0.0508 0.4064 0.0508 0.8128l0.1524 0.3556q0 0.4572 0.254 0.9652-0.0508 0.3556-0.0508 0.7112t0 0.7112q0.508 0.254 0.508 0.8128l-0.0508 0.254-0.254 0.1524 0.8128 1.524q0.254 0.2032 0.4064 0.4572 0.2032 0.254 0.4064 0.508 0.254 0.1016 0.6096 0.3048 0.4064 0.1524 0.508 0.4064 0.4064 0.0508 0.8128 0.1016 0.4572 0.0508 0.8636 0.0508h1.3208zm-5.1816 0.6604q1.1176 0.5588 1.8288 0.9144 0.762 0.3556 2.0828 0.4572l-0.0508-0.254-0.9652-0.1016 0.9652-0.3048-0.4572-0.3556q-0.1016 0.1016-0.4572 0.3048t-0.508 0.2032l-0.4572-0.0508-0.1016-0.4572-0.4064 0.2032-0.4572-0.2032 0.5588-0.3048q-0.1016 0.0508-0.3048 0.0508t-0.3048-0.0508l-0.254 0.1016-0.6604-0.3556 0.3556-0.2032v-0.4572l-0.7112 0.4064-0.4064-0.4064 0.4572-0.254-0.4064-0.254-0.4064 0.254q0.254 0.254 0.4572 0.5588 0.2032 0.254 0.4572 0.508 0.1016 0 0.1524 0.0508zm1.5748-17.932v0.4064l0.5588-0.3556 0.0508-0.2032q0.5588-0.4064 1.1684-0.6604 0.6096-0.3048 1.1176-0.762l-1.4732 0.2032v0.3048q-0.3556 0.254-0.762 0.4064-0.3556 0.1524-0.762 0.3556l1.5748-0.6604zm-1.2192 1.6764q0.6096-0.254 1.1176-0.5588 0.5588-0.3048 1.1176-0.6096l0.3556-0.2032-0.508-0.0508q-0.1016 0.0508-0.4572 0.254-0.3048 0.1524-0.6604 0.3048-0.3048 0.1524-0.5588 0.3048t-0.254 0.254-0.1016 0.1524q-0.0508 0.0508-0.0508 0.1524zm-0.4064 0.5588-0.6096 0.7112 2.0828-0.9652q0.0508-0.1016 0.0508-0.254 0.0508-0.1524 0.1524-0.254zm10.465-2.54q-0.4064 0.254-0.8128 0.508-0.3556 0.2032-0.7112 0.4572l0.2032 0.0508q0.4064 0 0.9144-0.2032 0.508-0.254 0.8128-0.3556zm-12.04 16.307q0.1016 0.2032 0.2032 0.3556 0.1524 0.1524 0.254 0.3048l0.0508-0.3556 0.4572-0.4572-0.1524-0.3556-0.5588 0.5588-0.3048-0.3556 0.3556-0.1524q-0.2032 0-0.2032-0.254v-0.3556l-0.3556 0.1524q0 0.1016 0.1016 0.508 0.1524 0.3556 0.1524 0.4064zm-0.2032-5.3848 1.524-1.0668v-0.4572q-0.5588 0.4064-0.9652 0.7112-0.3556 0.254-0.762 0.8128zm11.735-5.334 0.9652-0.4572 0.0508-0.1524-0.3556-0.4064-0.8128 0.3556zm-7.3152 12.497-0.2032 0.6096q0.6096-0.254 1.016-0.6096h0.4572l0.6096-0.508-0.4572-0.0508zm6.9088-3.6576 1.3716-0.7112 0.0508-0.2032 0.4064-0.4572-1.6256 0.8128zm-1.1684-14.834-0.4064 0.508q0.508-0.1016 0.9652-0.3556t0.9652-0.3556q-1.016-0.5588-2.286-0.8128 0.4064 0.1524 0.8128 0.1524l0.9652 0.4572zm4.2164 11.786q-0.1524 0.1524-0.3048 0.3556-0.1524 0.1524-0.2032 0.4064l1.6764-1.016 0.1016-0.4064zm-6.5532-13.056q-0.3048 0.1016-0.6096 0.2032-0.3048 0.0508-0.5588 0.1524l-0.0508 0.3048-0.3048 0.254q0.3556-0.2032 0.7112-0.3048t0.762-0.2032zm3.2512 4.6228q0.3556-0.2032 0.7112-0.4064t0.6604-0.4572q-0.254 0.1016-0.508 0.2032-0.2032 0.0508-0.4572 0.1016l-0.0508-0.4064-0.6096 0.254zm0.3556 1.4732 0.6096-0.3048-0.1524-0.254 0.0508-0.254 0.2032-0.1524h-0.4572l-0.4064 0.3048zm2.9464 6.35 0.254 0.3048 1.016-0.5588 0.1016-0.4572zm-9.7536-11.786q-1.1176 0.254-2.0828 0.7112-0.9144 0.4064-1.778 1.27 0.9144-0.3556 1.8796-0.9652t1.9812-1.016zm1.9304 19.101-0.254 0.508 1.9812-0.9652q-0.254 0-0.5588 0.0508-0.254 0-0.508 0zm6.6548-16.916q-0.762 0.254-1.3208 0.7112l0.9652-0.3556 0.2032 0.254-0.0508 0.2032 0.5588-0.254zm-11.684 6.6548q-0.4064 0.254-1.016 0.6604t-0.8636 0.8128q0.3556-0.2032 0.6096-0.4572 0.3048-0.254 0.7112-0.3048l0.5588-0.3048zm0.0508 4.5212q-0.3556 0.1524-0.7112 0.3556-0.3048 0.1524-0.5588 0.4064l0.4572-0.1016q0.0508 0.0508 0.254 0.0508l0.7112-0.508zm7.3152 5.4356q-0.3048 0.4572-0.3556 0.5588-0.0508 0.0508-0.0508 0.0508 0.1016-0.1016 0.3556-0.254t0.508-0.3048q0.254-0.2032 0.4064-0.3556 0.2032-0.2032 0.2032-0.254zm3.3528-8.6868q0.4064-0.2032 0.5588-0.3048t0.254-0.1524 0.1016-0.0508q-0.1016 0-0.2032-0.1016l-0.0508-0.3048-0.7112 0.3556zm1.2192-2.8956q0.5588-0.254 1.4224-0.508l0.2032 0.2032 0.254-0.1524-0.1524-0.508zm-1.778 7.1628q0.1016-0.1016 0.508-0.254 0.4572-0.2032 0.4064-0.4064l0.1524-0.4572-0.9144 0.5588zm0.2032-0.9652 1.8288-0.9652q-0.254 0.1016-0.9144 0.3048-0.6096 0.1524-0.8128 0.1524zm-13.31-6.5532q0.4064-0.2032 0.8128-0.3556 0.4572-0.1524 0.8636-0.4064h-0.254q-0.3048 0-0.6096 0.1016t-0.6096 0.1016zm1.8288-2.54q-0.254 0.4572-0.762 0.8636 0.6604-0.3048 0.8636-0.4572t0.2032-0.2032q0.0508-0.1016 0.0508-0.2032 0-0.1524 0.2032-0.3556zm11.735 6.9088 1.016-0.4064-0.0508-0.4064-0.9144 0.4064zm-11.532 0.6096q0.0508 0.1016 0.0508 0.3556l0.8128-0.8636zm0.8636 0.0508q-0.3556 0.3556-0.6096 0.6096-0.2032 0.254-0.4572 0.6604l1.1176-0.8128zm6.096-11.379-0.1524 0.1524 0.1524 0.0508q0.1016-0.0508 0.3556-0.1016 0.254-0.1016 0.508-0.1524 0.3048-0.1016 0.5588-0.1524t0.4064-0.0508l-0.508-0.2032zm-5.588 5.1816 0.254-0.6604-0.4064 0.2032q-0.1524 0.254-0.3556 0.4572-0.1524 0.1524-0.3556 0.4064zm-3.7084 2.0828 0.254-0.1016q0.254-0.3048 0.508-0.5588 0.3048-0.3048 0.5588-0.5588-0.254 0.1524-0.5588 0.3048t-0.5588 0.3556zm13.818 4.2672 0.9652-0.4572 0.0508-0.2032 0.3048-0.3048-1.3208 0.6604zm-10.211 5.588q0.3048 0 0.5588-0.1524 0.3048-0.1524 0.5588-0.3048l-0.1524-0.254zm12.497-9.1948 0.1524 0.254 0.8636-0.6604 0.254 0.254-0.254 0.3556 0.4572-0.2032-0.2032-0.6096zm-5.6896 11.43q-0.254 0.2032-0.5588 0.2032t-0.5588 0.1016q-0.2032 0.1524-0.3556 0.3048-0.1524 0.2032-0.4064 0.3048l0.6604 0.0508q0.1016 0 0.1016-0.1016 0-0.0508-0.1524-0.1016t-0.2032-0.0508l0.6096-0.3556zm-7.7724-11.43 0.6604-0.3048 0.0508-0.4572-0.6604 0.3048 0.0508 0.3048zm-2.3876 5.1308q0.2032-0.1016 0.6096-0.3556 0.4064-0.3048 0.6604-0.3048 0.1016 0 0.1016-0.1016-0.4572 0.2032-1.1684 0.2032l-0.1524 0.1016 0.0508 0.2032zm0.1524 0.5588 0.3556-0.2032 0.4572-0.5588-0.9652 0.508zm0.3048-2.794-0.254-0.2032-0.4064 0.1524 0.0508 0.4572zm-0.0508-2.9464 0.8636-0.8128-1.016 0.508-0.2032 0.3556zm16.256 1.8288q-0.3048 0.3048-0.5588 0.7112l1.016-0.6096v-0.3048zm-1.2192-1.2192 0.1524-0.3048-0.762 0.254-0.1016 0.254zm-13.106 1.1684 0.6604-0.254v-0.4572l-0.4064-0.4572v0.9144zm1.0668-5.0292 0.3556-0.1524 0.254-0.6096-0.6096 0.3048 0.1016 0.254zm11.989-1.27-0.6096 0.6604 0.8636-0.4064-0.254-0.6096zm-13.157 3.6576 0.9652-0.508v-0.3556zm8.5344-5.7912 0.3048-0.1524h-0.254l-0.1524-0.3048 0.254-0.3556-0.7112 0.3048zm5.6388 11.43 0.0508 0.254-0.4064 0.4064 0.6604-0.3556 0.1524-0.5588zm-14.427-6.5024 0.254-0.4572q-0.3048 0.254-0.6604 0.508-0.3048 0.2032-0.6096 0.4572zm-1.8288 4.3688v-0.254l0.1016-0.254-0.508 0.254 0.0508 0.4064zm15.748-6.0452-0.0508 0.1524q-0.254 0.254-0.508 0.3556-0.2032 0.1016-0.4572 0.3556l1.1684-0.5588zm-12.243 11.633q-0.2032-0.1016-0.3556-0.1016l-0.2032 0.0508-0.1016 0.4064zm11.481-6.2992q0-0.1016-0.1016-0.1016l-0.1524 0.3048 0.2032 0.1016 1.1176-0.508 0.1524-0.1524-0.9652 0.4572zm-6.9596-8.9916-0.2032 0.2032h1.1684l-0.4572-0.254zm-7.112 13.716-0.1016-0.4064-0.4064 0.2032 0.2032 0.3556zm3.4544 2.8956q-0.2032 0.2032-0.4064 0.7112l0.3556-0.1524zm-3.556-14.224q0.1524-0.1524 0.3048-0.254 0.1524-0.1524 0.3048-0.254l-0.508 0.0508zm13.919 0.254q-0.254 0-0.508 0.1524-0.2032 0.1016-0.4572 0.2032l0.4572-0.0508zm-1.8796 14.173q0.4064-0.3048 0.8128-0.508 0.4064-0.254 0.8128-0.508l-0.4064 0.1016q-0.254 0.3048-0.7112 0.6096-0.4572 0.254-0.8636 0.3556zm-13.157-8.2296 0.0508-0.2032 0.254-0.4572-0.4064 0.2032zm1.1684 5.7404 0.254-0.1524v-0.3048l-0.3556 0.2032zm1.778-1.524q0.2032 0 0.2032 0.2032l0.254-0.1524-0.0508-0.3048zm2.1336 3.6576-0.0508 0.508 0.4064-0.254zm-3.1496-3.302q-0.1016 0-0.1524 0.0508-0.0508 0-0.1524 0v0.254zm12.497-8.9916 0.2032 0.2032 0.4064-0.3048zm-1.2192 13.36q0.1016-0.0508 0.2032-0.1016 0.1524-0.0508 0.254-0.0508h0.762l-0.3556-0.3556zm-1.524-16.764q0.1524 0.1016 0.3556 0.4064l0.2032-0.1016-0.3048-0.1524-0.0508-0.254zm3.9624 13.005 0.762-0.4064-1.0668 0.4064zm-1.3716-10.363-0.3048 0.0508 0.0508 0.2032 0.2032-0.1016zm0.9652 9.1948q0.3556-0.1524 0.7112-0.4064zm-12.7 2.4384q-0.0508-0.1524-0.2032-0.2032l0.0508 0.3048zm-0.1016-1.7272q-0.1016 0.254-0.3048 0.3048l0.3556-0.0508zm12.7-1.4732q-0.3556 0.2032-0.4572 0.4572l0.3556-0.2032zm-14.884 3.0988 0.508 0.8128-0.4572-0.6096zm2.8448-11.176q-0.2032 0.1016-0.4064 0.508zm14.021 4.318 0.1524 0.3048q0-0.3048 0.0508-0.4572zm-17.221-0.4572 0.254-0.1016-0.254-0.1016zm6.096 9.6012q-0.1016 0.0508-0.2032 0.1016-0.0508 0.0508-0.1524 0.1016zm-2.032-7.7216q-0.0508-0.1016-0.0508-0.254 0-0.2032 0.0508-0.3048zm-2.1844-7.2136q0.3048-0.1016 0.4572-0.3556zm5.9436 15.748-0.1524 0.0508v0.2032zm6.604-11.836q0.254 0 0.4572-0.2032zm-12.09 2.794-0.0508 0.1524 0.254-0.3048zm-1.4224-0.8128 0.0508-0.1524-0.2032 0.2032z" style="font-feature-settings:normal;font-variant-caps:normal;font-variant-ligatures:normal;font-variant-numeric:normal"/>
				<path d="m131.71 225.52-0.2032 0.1016-0.1016 0.4572v-0.9144l0.1016 0.1524 0.762-0.1016q0.8128 0.0508 1.6256 0.1016 0.8636 0 1.7272 0 0.6096 0 1.1684 0t1.0668-0.1016h0.254q0.1524 0.254 0.1524 0.5588 0 0.254 0.0508 0.5588l-0.3048 0.2032q0 0.0508-0.0508 0.1524 0 0.1016-0.0508 0.1016-0.2032 0-0.3048-0.3048l-0.5588 0.3556q-0.762 0.1016-1.2192 0.6096 0 0.0508-0.0508 0.0508 0 0 0 0.1016 0.3556-0.254 0.762-0.3556 0.4064-0.1524 0.762-0.4572l0.254 0.1016-0.0508 0.4064q-0.4064 0.1016-0.6096 0.5588-0.2032 0.4064-0.3048 0.9144t-0.1524 1.0668q0 0.508 0 0.8128 0 0.1524 0.1016 0.4572l-0.1016 0.1524v2.794l0.3048 0.1524q-0.1524 0.9144-0.4572 1.8288-0.3048 0.8636-0.3048 1.8796l0.1524 0.3556q0 0.3556-0.0508 0.7112 0 0.3556-0.0508 0.762v2.1336l0.254-0.0508 0.0508 0.3556-0.2032 0.3048q0.1016 0.5588 0.3556 1.016t0.8128 0.7112l0.2032-0.1524 0.254 0.254-0.0508 0.4064q-0.3048 0-0.8128 0.2032t-1.0668 0.508q-0.508 0.254-1.0668 0.5588-0.5588 0.254-1.016 0.3556-0.0508 0-0.1016 0 0-0.0508-0.0508-0.0508-0.1524 0.1016-0.3556 0.1524-0.2032 0.1016-0.4064 0.1016-0.1016 0-0.3556-0.1524-0.254-0.1016-0.254-0.254-0.254-0.4064-0.254-1.1176 0-0.254 0.1016-0.762-0.5588 1.1684-1.9812 1.778-1.4224 0.5588-2.5908 0.7112l-0.1524-0.2032q-0.254 0.0508-0.4572 0.0508-0.1524 0-0.4064 0-0.4064 0-0.762-0.1016t-0.6604-0.3556l-0.1016-0.2032-0.3556-0.0508q-1.4732-0.254-2.54-1.3716-1.016-1.1176-1.4224-2.4892-0.1524-0.254-0.2032-0.5588 0-0.3556-0.0508-0.6604l-0.1524-0.4572q0-0.254 0-0.4572t-0.0508-0.4064l-0.0508-0.6096 0.0508-0.254-0.1016-1.1176 0.1524-0.8636-0.1524 0.1016q0-0.5588 0-1.0668 0-0.5588 0.1016-1.1176v-1.6256l0.254-0.1016v-0.8636l-0.2032 0.1016 0.0508-0.508 0.1524-0.1016-0.1016-0.3556q0.0508-0.4572 0.0508-0.9144 0.0508-0.4572 0.0508-0.9144v-1.1176l0.1016-0.3048q0-0.1016 0-0.254 0-0.2032-0.0508-0.2032-0.1016-0.254-0.254-0.4064-0.0508-0.0508-0.0508-0.0508-0.1016 0-0.1016-0.1016l-0.254-0.2032q-0.254 0-0.508 0-0.254-0.0508-0.4572-0.1524l-0.1016-0.6096q0-0.2032 0.2032-0.508h2.1336q0.7112 0 1.4732-0.1016t1.4732-0.1016q0.2032 0 0.6604 0.1524 0.508 0.1524 0.508 0.4064v0.2032q0 0.1524 0.1016 0.2032l0.0508 0.254q-0.4064 0.6096-0.6604 1.0668-0.2032 0.4572-0.3048 0.9144t-0.1524 0.9652q0 0.508 0 1.27l0.1016 1.8288q0.0508 0.3048 0.0508 0.6604 0 0.3048 0 0.6604v0.508q0.1016 0.1016 0.1524 0.8128 0.1016 0.6604 0.1016 1.524 0.0508 0.8128 0.0508 1.6256 0.0508 0.762 0.1016 1.0668l-0.0508 0.3048q0.1524 1.016 0.7112 1.8796l-0.1524 0.3556 0.5588 0.4064 0.1016 0.2032q0.3556 0.1016 1.0668 0.2032 0.762 0.0508 1.1684 0.0508 1.1684 0 1.9812-0.762 0.8636-0.8128 1.6764-1.6256l-0.762 0.0508-0.1524-0.3556q0.508-0.508 1.1684-0.9144 0.1016-0.0508 0.1016-0.3048 0.0508-0.254 0.0508-0.508 0.0508-0.254 0.0508-0.4572 0.0508-0.254 0.1016-0.254 0.1016 0 0.1016-0.1524-0.1016-0.2032-0.1016-0.3556 0-1.016 0.0508-1.9812 0.1016-0.9652 0.1016-1.9812v-3.5052q0-0.5588-0.3048-1.1684-0.254-0.6096-0.3048-1.1684l0.1016-0.2032-0.2032-0.1524-0.5588-0.1524 0.0508-0.6096 0.9144-0.4572h-0.4064zm-1.3208 17.983q1.016-0.4064 1.9304-0.9144 0.9652-0.508 1.8796-1.016l0.2032-0.3048q-0.5588 0.1016-1.4224 0.508-0.8636 0.3556-1.778 0.8636-0.9144 0.4572-1.8288 0.9144-0.8636 0.4572-1.4732 0.762l-0.0508 0.2032q0.5588-0.254 1.1176-0.6096 0.5588-0.4064 1.1176-0.6604zm2.6924-9.652q0.5588-0.254 1.1176-0.508 0.6096-0.254 1.1684-0.508l0.2032-0.508-1.6256 0.6096-0.254-0.3048 0.508-0.3556-1.1176 0.5588zm-0.1524 2.9464v0.3048q0 0.1524 0.0508 0.1524 0.2032-0.1016 0.5588-0.3048 0.4064-0.254 0.8128-0.508 0.4572-0.254 0.762-0.508 0.3556-0.254 0.4572-0.4064-0.6604 0-1.1684 0.3556-0.508 0.3048-1.1176 0.4572l-0.2032-0.0508-0.254 0.1016 0.1016 0.4064 1.4224-0.762zm-0.3048 8.4328q0.7112-0.3048 1.524-0.5588t1.1684-1.016l-2.3876 1.0668zm1.6764-17.78 0.1524-0.254 0.0508-0.4064-0.2032-0.1016-1.3716 0.762v0.3048q0 0.1524 0.1016 0.4572zm-1.27 13.868 0.0508-0.1524q0.254-0.1016 0.4572-0.3048t0.3556-0.4064l-1.778 0.8128q-0.1016 0.1016-0.3556 0.2032t-0.3556 0.2032l-0.4572 0.6604zm-8.2296-15.24-1.9304 0.9652q-0.0508 0.1016-0.1524 0.254-0.0508 0.1016 0 0.1016 0.2032 0 0.4572-0.0508t0.4572-0.1016l1.016-0.508 0.2032-0.3556zm8.128 4.4196q0.5588-0.3556 1.1176-0.6604t1.1176-0.7112l-0.8128 0.0508-0.1524 0.1524-0.3048-0.0508-0.9652 0.5588zm0.1016 2.286q0.8636-0.3556 1.5748-0.5588 0.762-0.2032 1.3208-0.9144l0.0508-0.1524q-0.0508 0-0.3556 0.1016-0.254 0.1016-0.5588 0.2032t-0.6096 0.254q-0.3048 0.1016-0.4064 0.1524-0.254 0-0.508 0.1524t-0.4064 0.3048zm-9.652 0.2032q-0.3556 0.4064-0.7112 0.762-0.3048 0.3556-0.7112 0.762 0.3048-0.1524 0.5588-0.3048 0.3048-0.2032 0.6096-0.3048l0.1524 0.2032 0.4064-0.2032v-1.0668zm8.8392 8.1788q0.1524-0.0508 0.4572-0.2032t0.6604-0.3048q0.3556-0.2032 0.6096-0.3556 0.3048-0.1524 0.3556-0.254l-0.3048 0.1524-0.2032-0.2032-1.524 0.7112zm0.8636 3.0988v-0.3048q0.5588-0.3556 1.1176-0.6096 0.5588-0.3048 1.1176-0.7112-0.6604 0.3556-1.3716 0.6096-0.6604 0.2032-1.3716 0.508l0.1016 0.7112zm0-8.3312q0.1016-0.0508 0.4064-0.254 0.3556-0.2032 0.7112-0.4572 0.4064-0.254 0.7112-0.508 0.3556-0.254 0.4064-0.3048-0.5588 0.1016-1.1176 0.3556-0.508 0.2032-0.9144 0.4572h-0.2032zm-10.871 7.874q0.3556-0.1016 1.016-0.4064t0.9144-0.6604l-0.508 0.2032-0.254-0.0508-1.4224 0.6096zm0.7112-1.4224 0.5588-0.6604q-0.4064 0.2032-1.016 0.5588t-1.016 0.3556q-0.1016 0-0.1016 0.1016l0.1016 0.2032 0.3048 0.0508zm1.1684-7.1628q0 0.4572-0.1524 0.4572-0.1016 0-0.254-0.1524l-0.5588 0.6604 0.254 0.1016 0.1016 0.1524 0.6096 0.1016q0.0508-0.3048 0.0508-0.6096 0-0.3556 0-0.6604l-0.0508-0.508zm11.227-5.0292 0.254-0.4064-1.27 0.6096-0.254-0.254-1.1176 0.6604v0.508zm-11.074 10.058-1.016 0.4572-0.254 0.5588q0.3556-0.254 0.762-0.254 0.1016 0 0.1524 0.0508 0.0508 0 0.1524 0l0.3556-0.2032zm-0.6096-2.3368v0.2032l-0.254 0.3556 0.6604-0.1524-0.8128 0.4572q0.0508 0.1016 0.0508 0.2032t0.1016 0.1524l0.7112-0.3556 0.1524 0.254v-0.9144l-0.254-0.3048zm-2.5908-2.8956q0.1016-0.2032 0.2032-0.4064 0.1524-0.2032 0.3048-0.3556l0.1524-0.4572-0.9652 0.4572v1.016zm15.596-9.2456-0.3556 0.2032 0.3556 0.2032 0.5588-0.3048q-0.4064 0.254-0.8636 0.9144l1.1684-0.762v-0.3556zm-4.064 13.97q0.6096-0.254 1.016-0.508 0.4064-0.3048 0.9144-0.8128l-1.8288 0.9652zm2.9972 0.7112q-0.2032 0.1016-0.3556 0.254-0.1524 0.0508-0.254 0.1524 0 0.0508 0.1016 0.254l0.508-0.254 0.0508 0.8128v-2.1844q-0.1016 0-0.1016 0.1524-0.2032 0.508-0.4572 0.762l0.508-0.254zm-14.376-8.0264q0.1016-0.254 0.254-0.4064 0.1524-0.2032 0.3048-0.4064l-0.2032-0.254-0.5588 0.3048-0.1016 0.9144zm14.529 11.074-0.1016 0.4572 0.4064-0.2032 0.254 0.254-1.524 0.8128q0.3556-0.1016 0.6604-0.2032 0.3556-0.1016 0.7112-0.1524l0.4064-0.2032 0.254 0.1524q-0.6096-0.4064-0.8128-1.016zm-8.2804 1.4732q-0.1016-0.1016-0.1016-0.254 0-0.1016 0.0508-0.1524l-1.3208 0.6604 0.4572 0.254zm-2.54-0.6604-0.1524-0.1524q-0.0508 0-0.1016 0.0508 0 0-0.1016 0t-0.1524-0.0508l-1.016 0.4572q0.3048 0.2032 0.3048 0.2032 0.0508 0 0.0508 0 0.3048-0.2032 0.5588-0.2032zm-1.7272-18.186v0.4572q0.9144-0.508 1.1176-0.5588 0.1524-0.1016 0.1524-0.1016-0.3048 0-0.5588-0.1524zm-2.0828 4.9784q0.254-0.1524 0.508-0.254 0.254-0.1524 0.508-0.3556l-0.0508-0.1524h-0.4064l-0.508 0.254zm11.176-4.7244q0.5588-0.1524 0.9144-0.254 0.4064-0.1016 0.9144-0.4572l-0.6096-0.0508zm-10.211 11.887q0.254-0.1016 0.508-0.2032 0.3048-0.1524 0.6096-0.254l0.508-0.6604q-0.8636 0.4064-1.6256 1.1176zm-0.4572 3.81q0.2032-0.254 0.4064-0.4064 0.254-0.1524 0.4064-0.4064-0.1016 0.0508-0.5588 0.2032-0.4064 0.1016-0.4572 0.1524l0.0508 0.508zm0.254-15.037 0.2032-0.3556-1.016 0.508v0.4064zm6.9596 16.307q-0.508 0.1016-1.3716 0.2032-0.8128 0.0508-1.0668 0.6096 0.254-0.1524 0.508-0.254 0.3048-0.1524 0.6096-0.1524l0.3048 0.0508zm-4.4196 0.6604 0.1524-0.3048q-0.254 0.2032-0.5588 0.3556t-0.6604 0.1524l-0.2032 0.0508 0.2032 0.3048zm-3.302-7.366q0.3556-0.1016 0.7112-0.3556 0.4064-0.254 0.6096-0.5588-0.254 0.0508-0.6604 0.3556-0.4064 0.254-0.6096 0.4572l-0.254-0.2032v0.3556zm12.802-8.2804 0.1524-0.3556q-0.254 0.1016-0.508 0.254-0.2032 0.1524-0.4572 0.3048v0.3048zm2.1844-0.0508q-0.1016 0.1016-0.254 0.1524-0.1016 0.0508-0.2032 0.1524h0.6096l0.1016 0.254q0-0.0508 0-0.1016 0.0508-0.0508 0.0508-0.1524 0-0.1524-0.0508-0.3048-0.0508-0.2032-0.0508-0.3556 0-0.254 0.1016-0.3556l0.0508 0.3556q0 0.254-0.0508 0.4064zm-16.662-2.1844q0.1016 0.0508 0.254 0.1016t0.254 0.0508l0.4572-0.1524 0.0508-0.2032q0-0.1016-0.1016-0.1016-0.1016-0.0508-0.2032-0.0508zm13.564 20.015q0.2032-0.1016 0.3556-0.3048 0.2032-0.2032 0.3556-0.3556h-0.2032l-0.8636 0.4572zm-9.2456-16.916-0.762 0.4064-0.0508 0.4064 0.762-0.4572zm-0.4572 1.6256q-0.508 0.1524-0.9652 0.4572l-0.3048 0.5588q0.3048-0.254 0.6096-0.4572 0.3556-0.254 0.6604-0.5588zm0.3556-3.6068 0.1524 0.3048 0.3556-0.1016 0.3556-0.5588zm-2.4892 12.192 0.7112-0.6604q-0.254 0.0508-0.508 0.1524-0.2032 0.1016-0.4572 0.2032v0.4064zm13.868-1.524q-0.4572 0.0508-0.8128 0.3556t-0.762 0.508l1.3208-0.6096zm-12.344-1.8288q-0.1016 0.2032-0.254 0.4064-0.1524 0.1524-0.3048 0.3556l0.9652-0.3048h-0.2032l-0.1524-0.254q0-0.1524 0.1016-0.1524h-0.0508q-0.0508-0.0508-0.1016-0.0508zm11.125-7.2644 0.0508-0.3048-0.762 0.4064v0.254zm-7.366 14.478-0.508 0.2032q0.4064 0.1016 0.5588 0.2032l0.508-0.2032-0.0508-0.2032-0.1524 0.1524zm-5.1816-4.5212v-0.254l0.3556-0.3556-0.6604 0.3556-0.0508 0.4572zm0.3048-0.8128 0.1016-0.3048-0.508 0.0508-0.1016 0.508zm13.97 0.3556 0.1016 0.3048-0.0508-0.508-0.1016-0.1524h-0.4572l0.0508 0.6096zm-7.4168 7.62q0.3556-0.1524 0.762-0.3048 0.4064-0.2032 0.7112-0.4572l-1.7272 0.7112zm-4.4704-6.4008 0.1524 0.254 0.3556-0.1016v-0.4064zm-1.9812 1.1684v-0.4064l-0.508 0.2032 0.0508 0.4064zm14.376-5.6388q-0.2032 0-0.1524 0.3556 0.1016 0.3556-0.1524 0.6604l0.3048-0.1524zm-4.2164 5.7912-0.3048 0.3556q0 0.2032-0.0508 0.3048l0.4572-0.254-0.1016-0.2032zm-10.262-13.259-0.508 0.4064q0 0.1016 0.1016 0.3048zm13.665-0.6096 0.9652-0.5588-0.6096 0.1016zm-14.58-0.4572v-0.2032q-0.0508-0.0508-0.0508-0.0508-0.1524 0-0.1524-0.1016l-0.3048 0.1524 0.4064 0.6604zm3.7084 18.491-0.2032 0.1016q0.0508 0 0.1524 0.1016l0.3556 0.1016 0.254-0.1524zm11.633-10.312q-0.0508-0.0508-0.0508-0.3556v-0.4064l-0.1016 0.1524q0 0.4572-0.254 0.8128zm-9.4488 11.328-0.1524 0.1524-0.3048-0.0508q0.1524 0.0508 0.3048 0.0508 0.2032 0 0.3556 0 0.3048 0 0.508-0.0508l-0.254-0.1016zm-5.3848-8.8392 0.508-0.4572 0.0508-0.1524-0.5588 0.3048zm7.62 8.89q0.2032-0.1016 0.4064-0.1524t0.3556-0.254q-0.2032 0-0.4572 0.1524-0.2032 0.1524-0.3048 0.254zm-4.4196-4.826-0.2032 0.1016 0.0508 0.4064 0.3048-0.1524zm11.532-12.141 0.0508-0.1524h-0.3048l-0.1016 0.4064zm-13.665 0.9144 0.2032 0.1524q0.2032-0.2032 0.254-0.3556zm13.868 0.1524-0.4572 0.6604 0.4064-0.1016zm-14.478-4.1656-0.5588 0.1016v0.254zm14.021 16.866-0.508 0.3556h0.3048l0.2032-0.1016zm-1.0668-14.986q0.254-0.1016 0.508-0.3048 0.3048-0.2032 0.5588-0.3556-0.254 0.1524-0.5588 0.3048-0.3048 0.1016-0.508 0.3556zm-11.582 7.874 0.254-0.1524 0.2032-0.3556zm13.259-9.8044 0.254-0.1524h-0.4572q-0.1016 0.1016-0.1016 0.1524zm-0.9144 2.286q-0.508 0.1016-0.8636 0.1016h-0.2032l-0.0508 0.254q0.1524-0.1524 0.508-0.2032 0.4064-0.1016 0.6096-0.1524zm-13.868 0.508-0.2032 0.0508-0.2032-0.254-0.1016 0.4572zm3.7592 14.427-0.254 0.5588 0.5588-0.762zm-1.4732-6.2992q-0.2032-0.1016-0.3556-0.1016v0.254zm1.7272 8.636q0.1524 0.0508 0.254 0.1016 0.1524 0.0508 0.4064 0.0508l-0.508-0.2032zm6.4516-1.9812q-0.254 0.0508-0.4572 0.2032-0.1524 0.1524-0.3048 0.3048 0.1524-0.1016 0.4064-0.2032 0.254-0.1524 0.3556-0.3048zm-1.778-1.0668q0.254-0.1524 0.4064-0.3048 0.1524-0.2032 0.3556-0.4064zm2.2352-15.037q0.0508 0.1524 0.0508 0.3556 0.0508 0.1524 0.1524 0.3048l-0.0508-0.4064zm-10.465 10.16q0.3048 0 0.5588-0.254zm10.109 2.0828-0.3556 0.254q0.2032 0 0.3048-0.0508zm-8.636-9.3472h0.3048v-0.2032zm12.649 7.0612-0.0508 0.1524 0.0508 0.254zm-10.262 5.9436 0.3556-0.1524-0.2032-0.1016zm-1.7272-6.0452-0.254 0.4064 0.2032-0.1016zm11.532-11.379-0.762 0.508 0.7112-0.3556zm-13.716 2.6416 0.3556-0.2032 0.1524-0.2032zm1.8288 2.286q-0.0508 0.254-0.254 0.4572l0.254-0.1524zm9.398 0.9144v-0.2032l-0.1524 0.254zm-9.8552-4.1148q-0.1016 0.0508-0.1524 0.1016-0.0508 0-0.1524 0.1016 0.2032-0.1016 0.3048-0.2032zm-0.8128 12.751 0.4064-0.1524 0.1524-0.1524z" style="font-feature-settings:normal;font-variant-caps:normal;font-variant-ligatures:normal;font-variant-numeric:normal"/>
				<path d="m142.63 225.68-0.0508-0.508-0.1016-0.4064-0.254 0.1524 0.0508-0.254q-0.0508 0-0.2032-0.1524v-1.3208q0.1524 0 0.1524-0.1524l-0.7112 0.1524-0.1524-0.4064q0.254-0.2032 0.508-0.3556t0.508-0.3048v-0.2032l0.254-0.0508v-0.508l0.3048-0.1524q-0.0508 0 0.2032-0.1016 0.3048-0.1524 0.7112-0.3048t0.8128-0.3048q0.4572-0.2032 0.7112-0.3048h0.254l0.254 0.254q-0.0508 0.0508-0.3048 0.1524-0.254 0.0508-0.2032 0.1524h0.2032q0.3048-0.1524 0.4064-0.2032 0.1524-0.0508 0.254-0.1016 0.0508 0 0.0508 0 0 0.0508 0.1016 0.0508 0.1524 0 0.254 0.1016v0.4572q0.2032 0.4572 0.2032 1.1684 0 0.2032-0.0508 0.6604 0 0.4064-0.0508 0.8128-0.0508 0.3556-0.1524 0.6604-0.0508 0.3048-0.1016 0.3048l-0.2032-0.1016 0.0508 0.7112q0.1016-0.1016 0.1016-0.3556l0.762 0.1016h1.3716q0.6604 0 0.9144 0.0508 0.3048 0.0508 0.4064 0.1016 0.1524 0.0508 0.1524 0.1016 0.0508 0.0508 0.1524 0.0508l0.0508-0.1524 0.3048-0.0508q0.254 0.254 0.254 0.8636v1.6256l-0.4572-0.0508q-0.1524 0.3556-0.508 0.4572t-0.8128 0.1016q-0.254 0-0.5588 0-0.254-0.0508-0.508-0.0508t-0.6604 0.1016q-0.1524-0.0508-0.5588-0.0508l-0.1016-0.3048h-0.254q0 0.254-0.0508 0.7112 0 0.4572-0.1016 0.9652-0.0508 0.4572-0.1016 0.8128t-0.1524 0.4572l0.0508 0.3556q-0.0508 0.4064-0.0508 0.8128t-0.1016 0.8128l0.2032 0.762q-0.0508 0.762-0.0508 1.524t-0.1016 1.524l0.1524 0.254-0.0508 1.1684 0.0508 0.5588-0.2032 0.1524-0.0508 0.254 0.254 0.1016v0.508l0.254 0.1524q0.0508 0.1524 0.1016 0.3556 0.0508 0.1524 0.0508 0.254 0 0.3556-0.0508 0.7112t-0.1016 0.762q0.4064 0.5588 0.6096 0.9652t0.7112 0.8636h0.6096q0.254 0.254 0.2032 0.254l0.0508 0.0508q0.0508 0.0508 0.0508 0.1016 0.4064-0.3556 0.8636-0.508 0.508-0.2032 1.2192-0.6096l0.3048-0.2032q0-0.2032 0.1524-0.2032 0.2032 0 0.2032 0.3556 0 0.2032 0.0508 0.3556 0 0.254 0 0.5588 0.0508 0.3048 0.1524 0.5588l-0.1016 0.1524q-0.3048 0.1524-0.5588 0.3556-0.254 0.1524-0.5588 0.3048l0.1016 0.3048q-0.3048 0.4572-1.3716 0.762t-1.8796 0.3048q-0.4064 0-0.5588-0.0508l-0.508 0.1524-0.254-0.1016q-0.8636-0.3048-1.524-0.6604-0.6096-0.4064-0.9652-1.4732l-0.2032-0.6096h-0.2032q-0.3048-0.254-0.4572-0.762t-0.254-1.0668q-0.0508-0.6096-0.0508-1.1684t0-0.9144v-3.302l-0.1524-0.1524q-0.0508-0.2032-0.0508-0.6096t0-0.762q0.0508-0.3556 0.0508-0.762 0-0.8128-0.2032-1.4224 0.1016-0.3048 0.1016-0.6096 0-0.2032-0.0508-0.3556 0-0.2032 0-0.3048l0.3048-0.2032q0-0.1016-0.0508-0.508-0.0508-0.4572-0.1016-0.5588l-0.1524-0.3048q0.254-0.254 0.254-0.3556 0-0.508-0.2032-0.9144l0.2032-0.3048v-0.3048l0.1524-0.1016 0.1016-0.8636-0.9144 0.3556q0 0.1016 0.1524 0.1016 0.1524-0.0508 0.1524 0.2032t-0.5588 0.254q-0.5588-0.0508-1.27 0.1016l-0.5588-0.1524-0.2032-0.1524q-0.1016-0.2032-0.1524-0.3556-0.0508-0.2032-0.0508-0.4572 0-0.3048 0-0.5588 0.0508-0.3048 0.0508-0.6096l0.1016-0.1524q0.4064-0.2032 1.3208-0.254 0.9144-0.1016 1.3716-0.1016 0.1016 0.1016 0.1016 0.254t-0.254 0.2032q-0.2032 0-0.3048 0 0 0.0508-0.254 0.0508-0.3556 0-0.7112 0.1016-0.3048 0.1016-0.6604 0.1524l0.0508 0.3048q0.4572-0.254 1.1684-0.3556l-1.2192 0.6604-0.1016 0.3556q0.6096-0.254 1.1176-0.6096t1.2192-0.5588zm8.128 18.085q0-0.1016-0.0508-0.1016 0-0.0508 0-0.1016l-0.0508-0.0508q-0.0508-0.0508-0.0508-0.0508-0.1016 0-0.1016 0.2032-0.5588 0.5588-0.9652 0.6604t-1.1684 0.1524l-1.0668 0.7112q-0.1524 0.3556-0.4064 0.7112l0.2032 0.1016q0.9652-0.508 1.8796-1.016 0.9144-0.5588 1.778-1.2192zm-6.8072-21.641h0.9652l1.3716-0.6604v-0.3048h-0.3556zm2.1844 1.0668q-0.4572 0.508-1.1176 0.8128-0.6604 0.254-1.1684 0.7112 0.6604-0.2032 1.2192-0.508t1.1684-0.5588l0.0508-0.508zm-1.2192 20.93q0.254 0 0.4572-0.1016 0.2032-0.1524 0.4572-0.3048l-0.0508-0.6096-1.1684 0.6604-0.0508 0.2032q0.1524 0.1524 0.3556 0.1524zm-1.0668-15.037 0.1524 0.3048 1.8288-0.9652v-0.3048zm1.1684-6.4008-0.508 0.6096q0.9652-0.3048 1.778-0.762v-0.4064zm-2.4892 13.259q0.1524-0.1016 0.4572-0.2032 0.3048-0.1524 0.6096-0.3048 0.3048-0.2032 0.5588-0.3556 0.3048-0.2032 0.3556-0.3048-0.4064 0.0508-0.762 0.254-0.3048 0.1524-0.7112 0.1524l-0.5588 0.4064zm0.4064-4.7752 0.9144-0.508 0.508-0.7112-1.4732 0.762zm2.3368 2.4892q-0.3556 0.1016-0.8636 0.4064-0.508 0.254-0.762 0.5588 0.254-0.1016 0.508-0.1524 0.3048-0.1016 0.5588-0.1016 0.1016 0 0.2032 0.0508 0.1524 0 0.3556 0.0508zm0.3556-6.35 1.4732-0.6604 0.1016-0.4064q-0.254 0.1016-0.4572 0.2032-0.1524 0.0508-0.4064 0.0508l-0.5588 0.2032 0.0508 0.3556zm0.254-0.8636-0.1524-0.3048q-0.5588 0.3556-1.1684 0.6604-0.5588 0.254-1.1176 0.6604zm-1.7272 16.459 1.6764-0.9144v-0.3556q-0.3556 0.254-0.7112 0.4064-0.3048 0.1524-0.7112 0.3556zm1.3716-6.4516q-0.254 0.1524-0.508 0.3556-0.254 0.1524-0.5588 0.254l-0.3556 0.5588q0.3048-0.1524 0.5588-0.3048 0.3048-0.2032 0.6604-0.3048l0.1524 0.1524zm-2.4384 2.0828 0.4064-0.7112-0.0508-0.2032-0.8128 0.4064 0.0508 0.7112zm3.6068-12.903q-0.1016 0.1524-0.254 0.254-0.1016 0.1016-0.1016 0.254 0.3048 0 0.5588-0.1016 0.254-0.1524 0.508-0.3048l-0.3556-0.1524-0.1016-0.1524h-0.254q-0.0508 0.0508-0.0508 0.0508 0 0.0508-0.0508 0.1016-0.0508 0-0.0508 0.1016zm-1.4224 3.9116q-0.1524 0.254-0.3556 0.4572-0.1524 0.1524-0.3556 0.3556l1.1684-0.508v-0.508zm4.4196-4.0132q-0.4572 0.1524-0.762 0.1524t-0.5588 0.0508q-0.2032 0-0.4064 0.1524t-0.508 0.5588l1.6256-0.762h0.8128zm-6.9088-1.524q0.1016-0.0508 0.3048-0.1524 0.254-0.1524 0.508-0.3048 0.254-0.2032 0.4572-0.3556 0.254-0.2032 0.3048-0.254l-1.524 0.6096zm3.9116 20.828-0.3556-0.254-0.508 0.3048-0.0508 0.6604zm-1.8288-9.2964-0.4572 0.6096 1.1176-0.5588v-0.4064zm-1.3208 3.7592q0.3556-0.2032 0.6604-0.3556 0.3556-0.2032 0.7112-0.3556l0.1016-0.4064q-0.4064 0.1524-0.8128 0.508-0.4064 0.3048-0.6604 0.6096zm0.1524-3.2512q-0.254 0.2032-0.4572 0.4572-0.2032 0.2032-0.4064 0.4572l0.9144-0.4572 0.3556-0.6604zm-0.4064 6.7564 0.5588-0.3048 0.4572-0.6096-1.1684 0.6096zm0.8128-2.54q-0.1524 0.2032-0.3048 0.4064-0.1016 0.1524-0.2032 0.3556l0.8128-0.4572-0.0508-0.4572zm0.7112-0.3556v0.3048q0.254-0.1524 0.5588-0.1524v-0.508zm-2.1844 1.016q0-0.0508 0.4064-0.254 0.4572-0.2032 0.508-0.254l0.1524-0.2032q-0.254 0.1016-0.5588 0.1524-0.254 0.0508-0.508 0.1524zm4.7244-13.513q0.254 0 0.4572-0.0508 0.254-0.0508 0.508-0.1524 0.0508-0.1016 0.0508-0.2032 0.1524-0.1524 0.0508-0.1524-0.254 0.1016-0.5588 0.2032-0.254 0.1016-0.508 0.3556zm-4.318 5.334q0.1016-0.254 0.4064-0.6604l-0.762 0.4064v0.4064zm2.3368 12.344-0.4572 0.4064 0.6096 0.3048zm-0.1524-6.0452-0.3556 0.6604 0.7112-0.3048-0.1524-0.4572zm-2.5908-4.4704 0.9652-0.4572-0.508 0.1524-0.1016-0.254-0.3556 0.1016zm2.9464 6.5532q-0.254 0.2032-0.4572 0.4064-0.1524 0.2032-0.3556 0.4572l0.9652-0.6096zm-2.3368 0.1524 0.1016-0.6096-0.3048 0.2032-0.1524 0.6096zm1.1684 3.2512q-0.2032-0.1524-0.3048-0.4572l-0.254 0.2032 0.3048 0.4572zm-1.8796-9.2456 0.4064-0.2032q0-0.254 0.1524-0.4572l-0.508 0.254zm2.3368-2.0828-0.0508 0.4064 0.508-0.2032v-0.4064zm4.3688-6.8072-0.3048 0.4064q0.254-0.1016 0.4572-0.254 0.254-0.2032 0.5588-0.2032v-0.254zm-5.9436 0.3048 0.0508 0.4064 0.254-0.2032 0.0508-0.508h0.254zm2.794 16.815 0.254-0.1524-0.1524-0.508zm0.5588 0.8636 0.4572 0.1524 0.2032-0.1016-0.3556-0.254zm-3.5052-19.406-0.0508 0.5588 0.5588-0.3048h-0.254l-0.1016-0.3048zm0.4572-0.508q-0.1524 0.0508-0.508 0.0508l0.0508 0.4064 0.1524-0.0508zm0.1016 18.694 0.0508-0.4064-0.4064 0.254q0.1016 0.1016 0.1016 0.254zm0.7112 0.3556-0.508 0.0508-0.254 0.2032 0.1016 0.2032zm5.3848 1.8796q0.0508 0-0.2032 0.1524-0.2032 0.1016-0.3048 0.254 0.5588-0.2032 0.762-0.5588zm-4.4196-14.021q-0.4064 0.1524-0.7112 0.4572l0.5588-0.254zm1.016 14.63q0.1524-0.1524 0.1524-0.2032l-0.3556 0.2032 0.0508 0.1524zm-3.6576-6.4008 0.4064-0.508-0.4064 0.2032zm0.4064-9.8044 0.4572-0.2032-0.1016-0.2032zm-0.1524-8.0772q0.1016-0.1016 0.1016-0.1016 0-0.0508-0.0508-0.0508 0 0 0-0.0508zm1.9812 4.2672-0.254 0.1016-0.1016 0.2032zm-1.8796 2.4892q-0.1524 0-0.254 0.1524z" style="font-feature-settings:normal;font-variant-caps:normal;font-variant-ligatures:normal;font-variant-numeric:normal"/>
			</g>
			<g transform="rotate(-26.048)" fill="#f2f2f2" stroke-width=".26458" aria-label="Me">
				<path d="m8.622 304.82q0 0.635-0.35278 0.98778-0.28222 0.28222-0.70556 0.28222-0.77611 0-1.1994-0.77611-2.1167-3.5278-3.3867-5.9267-1.27-2.4694-1.27-4.7978 0-1.7639 0.84667-3.6689 0.84667-1.9756 2.7517-4.445 0.77611-1.0583 2.2578-2.3283 1.4817-1.3406 3.2456-2.4694 1.8344-1.1289 3.7394-1.8344 1.905-0.77611 3.5278-0.77611 2.2578 0 3.5278 1.7639 1.3406 1.6933 1.3406 6.0678 0 2.4694-0.42333 4.7978-0.42333 2.2578-1.1289 4.1628l0.35278-0.35278q2.3989-2.6811 4.6567-4.0922 2.3283-1.4111 3.9511-1.4111 3.7394 0 3.7394 6.8439 0 3.6689-0.98778 7.4083-0.98778 3.6689-1.7639 7.2672l-0.28222 0.77611q0.35278-0.35278 0.56444-0.70555 0.28222-0.42334 0.635-0.77611 0.14111-0.21167 0.42333-0.56445 0.35278-0.42333 1.1994-1.6228 0.91722-1.1994 2.6811-3.5983t4.7978-6.5617q0.21167-0.14111 0.42333-0.14111 0.28222 0 0.42333 0 0.98778 0 1.4111 0.98778 0.49389 0.98778 0.49389 2.2578 0 1.4817-0.35278 3.0339-0.28222 1.4817-0.42333 2.6811-0.35278 3.175-0.77611 6.5617-0.42333 3.3161-0.42333 6.7028 0 1.8344 0.14111 3.5983 0.21167 1.7639 0.70556 3.4572l1.1289 0.35278q0.635 0.56444 0.635 1.1289 0 0.42333-0.35278 0.70555-0.35278 0.35278-1.0583 0.35278-0.35278 0-1.1289-0.28222-0.77611-0.28223-1.1289-0.70556-0.98778-1.1994-1.3406-3.5983-0.35278-2.3989-0.35278-5.3622 0-1.905 0.07055-3.81 0.14111-1.9756 0.28222-3.7394 0.21167-1.7639 0.35278-3.2456 0.14111-1.5522 0.28222-2.54l0.21167-2.6811q-1.27 1.905-3.1044 4.5861-1.7639 2.6106-3.6689 5.0094-1.8344 2.3283-3.3867 4.0217-1.5522 1.6933-2.2578 1.6933-0.84667 0-1.3406-0.77611-0.49389-0.84667-0.49389-1.9756 0-1.4817 0.35278-3.5983t0.84667-4.3039 0.98778-4.1628q0.49389-2.0461 0.84667-3.3161 0.56444-2.2578 0.56444-4.5156 0-0.56445-0.07056-1.1994t-0.21167-1.1994q-0.56444 0-1.5522 0.91722-0.98778 0.84667-2.0461 1.9756-0.98778 1.1289-1.905 2.2578-0.84667 1.0583-1.1289 1.5522-1.6933 2.4694-3.1044 5.1506t-2.8928 5.3622q-1.4111 2.6811-3.0339 5.2211t-3.7394 4.6567q-0.84667 0.49389-1.4111 0.49389-1.9756 0-2.1872-2.2578 0.070555-1.27 0.635-2.6811 0.56444-1.4111 1.27-2.8222 0.70556-1.4817 1.4817-2.8222 0.77611-1.3406 1.3406-2.4694 1.27-2.6106 2.1167-4.3039 0.91722-1.7639 1.6228-3.3867 0.77611-1.6228 1.4111-3.4572 0.70556-1.905 1.4817-4.6567 0.49389-1.6933 0.77611-3.3867 0.28222-1.7639 0.28222-3.3161 0-1.9756-0.56444-3.175-0.49389-1.27-1.905-1.27-0.98778 0-2.3283 0.70555-1.27 0.635-3.1044 2.1167-3.3161 2.8928-4.8683 5.5739-1.4817 2.6106-1.4817 4.8683 0 2.2578 1.1289 4.5156t2.6811 5.0094z" style="font-feature-settings:normal;font-variant-caps:normal;font-variant-ligatures:normal;font-variant-numeric:normal"/>
				<path d="m58.081 306.51q-0.70556 1.4817-1.5522 2.9633-0.77611 1.4817-1.8344 2.7517-0.98778 1.27-2.2578 2.2578-1.1994 0.91723-2.7517 1.3406 0 1.4817 0.42333 2.9633 0.42333 1.4111 1.7639 1.4111 0.35278 0 0.70556-0.0706 0.42333-0.0706 0.91722-0.42333 0.42333-0.21167 1.1994-0.77611 0.84667-0.56445 1.7639-1.27 0.98778-0.77612 1.8344-1.6228 0.91722-0.91722 1.3406-1.8344 0.21167-0.49389 0.635-0.49389 0.49389 0 0.91722 0.42334 0.42333 0.42333 0.42333 0.98778 0 0.49388-0.84667 1.5522-0.84667 1.0583-1.9756 2.1872-1.0583 1.1289-2.2578 2.1167-1.1289 0.98777-1.7639 1.27-0.21167 0.0705-1.27 0.635-0.98778 0.56444-1.6933 0.56444-1.5522 0-2.6811-0.635t-1.905-1.6933q-0.70556-1.0583-1.0583-2.3989-0.35278-1.4111-0.35278-2.8928-0.42333-0.21167-0.42333-0.77611 0-0.49389 0.35278-0.84667 0-0.84666 0.07056-1.6933 0.07056-0.91722 0.35278-1.8344 0.42333-1.4817 1.1289-3.5278 0.77611-2.0461 1.905-3.8806 1.1289-1.905 2.6811-3.175 1.5522-1.3406 3.5278-1.3406t2.6811 1.3406q0.70556 1.27 0.70556 2.9633 0 0.98778-0.21167 1.9756-0.14111 0.91722-0.49389 1.4817zm-3.3867-2.9633q-0.70556 0.56445-1.4111 1.6933-0.70556 1.0583-1.27 2.3283-0.56444 1.27-1.0583 2.6106-0.49389 1.3406-0.77611 2.4694 0.84667-0.77611 2.1167-2.9633 0.28222-0.49389 0.70556-1.1994 0.42333-0.77611 0.77611-1.6228 0.35278-0.91722 0.635-1.7639 0.28222-0.84667 0.28222-1.5522z" style="font-feature-settings:normal;font-variant-caps:normal;font-variant-ligatures:normal;font-variant-numeric:normal"/>
			</g>
			<path d="m49.893 262.98h75.595v3.7798h-75.595z" fill="#e9c6af"/>
		</g>
	</g>
</svg>
