<?xml version="1.0" encoding="UTF-8"?>
<svg width="237" height="70" version="1.1" viewBox="0 0 62.706 18.521" xmlns="http://www.w3.org/2000/svg">
	<g transform="translate(0 -278.48)">
		<g transform="scale(1.2103 .82624)" fill="#53676c" stroke-width=".14387" aria-label="Angel Roden">
			<path d="m1.6526 353.42q-0.27009 0.0123-0.41742-0.0982-0.1596-0.11049-0.11049-0.41742 0-0.0368 0.024554-0.11049 0.024554-0.0737 0.061385-0.0982-0.012277 0.30692 0.073661 0.42969t0.28237 0.12277q0.4788 0 0.98215-0.30693 0.51563-0.30692 1.019-0.82255-0.12277-0.0368-0.3192-0.14732-0.18415-0.0982-0.28237-0.1596-0.49108-0.35603-0.49108-0.82256 0-0.35603 0.3192-0.77344 0.3192-0.41742 1.0435-0.84711 0.46652-0.28237 1.0804-0.50335 0.61385-0.22099 1.1418-0.35603 0.18415-0.35603 0.35603-0.69979 0.17188-0.34375 0.33148-0.68751 0.061385-0.13504 0.22098-0.51563 0.1596-0.38058 0.35603-0.89621t0.36831-1.0926q0.18415-0.58929 0.30692-1.1418t0.12277-0.98215q0-0.41742-0.14732-0.65068-0.13505-0.23326-0.49108-0.23326h-0.012277q-0.098215 0-0.098215-0.0614t0.12277-0.0859q0.58929-0.0614 0.82255 0.28236 0.23326 0.34376 0.23326 0.9085 0 0.0982-0.012277 0.2087 0 0.1105-0.012277 0.23327 0.073662 0.0614 0.098215 0.2087 0.073662 0.39286 0.14732 1.0313 0.085938 0.6384 0.19643 1.3996 0.11049 0.76117 0.25782 1.5469 0.1596 0.77345 0.36831 1.461 0.22098 0.67523 0.51563 1.1418 0.06138 0.0982 0.17188 0.25782 0.11049 0.14732 0.27009 0.27009t0.35603 0.12277q0.20871 0 0.42969-0.17188 0.19643-0.1596 0.36831-0.44197t0.3192-0.60157q0.07366-0.13504 0.13505-0.13504 0.06138 0 0.08594 0.0737 0.03683 0.0614 0.02455 0.12277-0.04911 0.1596-0.20871 0.38058-0.14732 0.20871-0.30692 0.39286-0.1596 0.17188-0.25782 0.24554-0.22098 0.17188-0.42969 0.24554-0.19643 0.0859-0.36831 0.0859-0.40514 0-0.71206-0.30692-0.29465-0.3192-0.51563-0.66296-0.30692-0.49107-0.49108-1.24-0.17188-0.74889-0.27009-1.6206-0.098215-0.87166-0.1596-1.7188-0.049108-0.84711-0.11049-1.5469-0.14732 0.68751-0.40514 1.4118-0.25782 0.72433-0.52791 1.3382-0.25782 0.60157-0.42969 0.93305-0.27009 0.55246-0.58929 1.1049 0.56474-0.13505 1.1786-0.24554t1.0804-0.20871h0.036831q0.049108 0 0.049108 0.0368t-0.061385 0.0982-0.1596 0.0859q-0.52791 0.0982-1.1418 0.23326-0.61385 0.12277-1.154 0.27009-0.56474 0.96988-1.1418 1.8415-0.57702 0.87166-1.2645 1.5469 0.46652 0.14732 1.1909 0.14732h0.024554q0.098215 0 0.098215 0.0491 0 0.0737-0.14732 0.0737-0.34375 0.0123-0.67523-0.0368-0.33148-0.0368-0.61385-0.12277-0.54018 0.52791-1.0926 0.84711-0.54018 0.33148-1.0435 0.38058zm2.038-1.4241q0.58929-0.61384 1.1418-1.4364 0.56474-0.82255 1.0558-1.7188-0.1596 0.0491-0.33148 0.1105-0.17188 0.0614-0.33148 0.14732-0.20871 0.0982-0.56474 0.28237-0.35603 0.18415-0.71206 0.39286-0.34375 0.19643-0.52791 0.35603-0.24554 0.22098-0.35603 0.42969t-0.11049 0.40514q0 0.17188 0.061385 0.33148 0.073662 0.1596 0.17188 0.30692 0.061385 0.0737 0.22098 0.19643 0.17188 0.13505 0.28237 0.19643z"/>
			<path d="m14.691 350.77q-0.1596 0-0.28237-0.19643-0.12277-0.20871-0.12277-0.78572 0-0.45425 0.07366-0.99443 0.07366-0.55247 0.1596-1.0926 0.09822-0.54018 0.17188-0.9576 0.07366-0.42969 0.07366-0.62612 0-0.34376-0.20871-0.34376-0.19643 0-0.40514 0.19643-0.19643 0.19644-0.38058 0.4788-0.17188 0.28237-0.30692 0.55247-0.12277 0.25781-0.1596 0.38058-0.17188 0.4788-0.24554 0.9576-0.07366 0.46652-0.07366 0.96988 0 0.2087 0.01228 0.42969 0.02455 0.22098 0.03683 0.45424 0.02455 0.12277-0.07366 0.30693-0.08594 0.17187-0.20871 0.17187-0.08594 0-0.14732-0.11049-0.06138-0.11049-0.08594-0.19643-0.04911-0.14732-0.07366-0.30692-0.02455-0.17188-0.04911-0.29465-0.08594-0.50335-0.1596-1.019-0.07366-0.52791-0.20871-1.019-0.03683-0.13504-0.09821-0.28237-0.04911-0.1596-0.1596-0.25781-0.02455-0.0245-0.07366-0.0491-0.04911-0.0368-0.04911-0.0614 0-0.0491 0.13505-0.0491 0.14732 0 0.29465 0.14732 0.14732 0.14733 0.27009 0.39286 0.14732 0.30693 0.24554 0.65068 0.11049 0.34375 0.17188 0.55246 0.07366-0.44197 0.1596-0.78572 0.08594-0.29465 0.23326-0.69979 0.14732-0.41741 0.36831-0.81027 0.22098-0.40514 0.52791-0.66296 0.30692-0.27009 0.71206-0.27009 0.58929 0 0.58929 0.68751 0 0.35603-0.12277 0.78572-0.12277 0.41742-0.27009 0.77345-0.13505 0.35603-0.18415 0.49108-0.06138 0.17187-0.13505 0.46652-0.06138 0.29464-0.11049 0.61384-0.03683 0.3192-0.03683 0.5893 0 0.23326 0.04911 0.39286 0.06138 0.14732 0.18415 0.14732 0.12277 0 0.22098-0.11049 0.09821-0.12277 0.1596-0.22099 0.07366-0.0982 0.07366-0.0368 0.02455 0.18416-0.13505 0.41742-0.14732 0.23326-0.35603 0.23326z"/>
			<path d="m15.673 355.48q-0.49108 0-0.83483-0.29465-0.35603-0.28237-0.35603-0.76117t0.45425-1.1172 1.5346-1.3259q0.24554-0.17187 0.51563-0.30692 0.28237-0.13504 0.57702-0.28237 0.07366-0.0368 0.11049-0.0368 0.04911 0 0.04911 0.0368 0 0.0859-0.17188 0.18416-0.58929 0.29464-1.0067 0.61384-0.40514 0.33148-0.74889 0.77345-0.18415 0.23326-0.39286 0.54018-0.19643 0.3192-0.33148 0.62613-0.14732 0.30692-0.14732 0.55246 0 0.51563 0.49108 0.51563 0.20871 0 0.49108-0.12277 0.28237-0.11049 0.61385-0.36831 0.83483-0.65068 1.1786-1.4487 0.34375-0.78572 0.34375-1.8415 0-0.78573-0.14732-1.7433-0.13505-0.98215-0.14732-1.8784-0.06139 0.38058-0.20871 0.92076-0.13505 0.52791-0.33148 1.0067-0.19643 0.4788-0.44197 0.82256-0.23326 0.34375-0.60157 0.34375-0.25782 0-0.44197-0.25782-0.17188-0.25781-0.17188-0.78572 0-0.39286 0.13505-0.93304 0.13505-0.54019 0.36831-1.0435 0.23326-0.51563 0.51563-0.84711 0.29465-0.34375 0.58929-0.34375 0.20871 0 0.29465 0.17187 0.09821 0.1596 0.09821 0.33148 0 0.13505-0.04911 0.23326-0.04911 0.0982-0.14732 0.0982-0.09822-0.0123-0.14732-0.0859-0.03683-0.0859-0.07366-0.1596-0.03683-0.0859-0.13505-0.0859-0.19643 0-0.38058 0.25781-0.17188 0.24554-0.3192 0.65068-0.13505 0.39286-0.22098 0.83483-0.07366 0.44197-0.07366 0.81028 0 0.34375 0.07366 0.56474 0.08594 0.22098 0.25782 0.23326 0.20871 0.0123 0.40514-0.27009 0.19643-0.28237 0.35603-0.72434 0.17188-0.44197 0.29465-0.93305 0.13505-0.50335 0.22098-0.93304 0.09821-0.44197 0.13505-0.68751 0.09821-0.65068 0.18415-0.82255 0.08594-0.18416 0.18415-0.18416 0.08594 0 0.14732 0.1596 0.07366 0.1596 0.07366 0.29465 0 0.0982-0.01228 0.13504-0.14732 0.81028-0.14732 1.6574 0 0.35603 0.02455 0.71206 0.02455 0.34375 0.06139 0.68751 0.07366 0.71206 0.07366 1.3259 0 1.2522-0.25782 2.1116-0.24554 0.87166-0.65068 1.3996-0.40514 0.54019-0.87166 0.77345-0.45425 0.24554-0.88394 0.24554z"/>
			<path d="m20.191 350.77q-0.44197 0-0.77344-0.51563-0.3192-0.52791-0.3192-1.6574 0-0.73662 0.18415-1.1786 0.18415-0.45424 0.45425-0.66295 0.27009-0.20871 0.51563-0.20871t0.41742 0.17188q0.17188 0.1596 0.17188 0.46652 0 0.29465-0.17188 0.62612-0.17188 0.3192-0.41742 0.58929-0.23326 0.25782-0.46652 0.34376-0.04911 0.0245-0.12277 0.0245-0.04911 0-0.04911-0.0368 0-0.0982 0.19643-0.22098 0.24554-0.17188 0.46652-0.51563 0.22098-0.35603 0.22098-0.62613 0-0.1596-0.07366-0.24554-0.07366-0.0982-0.17188-0.0982-0.18415 0-0.40514 0.29465-0.20871 0.28236-0.30692 0.98215-0.02455 0.19643-0.04911 0.38058-0.01228 0.17188-0.01228 0.34376 0 0.6875 0.20871 1.0804 0.20871 0.38058 0.55246 0.38058 0.29465 0 0.66295-0.34375 0.36831-0.35603 0.72434-1.1049 0.08594-0.19643 0.19643-0.19643 0.07366 0 0.07366 0.0982 0 0.0859-0.04911 0.18415-0.3192 0.78573-0.77344 1.2154t-0.88394 0.42969z"/>
			<path d="m23.407 352.56q-0.1596 0-0.30692-0.12277-0.13505-0.12277-0.23326-0.24554-0.39286-0.45424-0.66295-1.2031-0.25782-0.74889-0.39286-1.6451-0.13505-0.90849-0.13505-1.8415 0-0.87166 0.11049-1.6942 0.12277-0.82255 0.36831-1.4978 0.24554-0.67523 0.61384-1.0804 0.4788-0.54018 0.92077-0.54018 0.27009 0 0.42969 0.24554 0.17188 0.23326 0.17188 0.74889 0 0.49107-0.19643 1.2522-0.18415 0.7489-0.6384 1.7924-0.1596 0.34376-0.34375 0.68751-0.17188 0.34375-0.36831 0.72434-0.07366 0.14732-0.12277 0.14732-0.02455 0-0.02455-0.0491 0-0.0982 0.08594-0.25781 1.1172-2.0994 1.1172-4.1742 0-0.82256-0.34375-0.82256-0.24554 0-0.57702 0.4788-0.45425 0.67523-0.62612 1.6083-0.17188 0.92077-0.17188 1.8661 0 0.71206 0.06138 1.3873 0.06138 0.66296 0.14732 1.2031 0.03683 0.23326 0.11049 0.62612 0.07366 0.39287 0.19643 0.82256 0.12277 0.44197 0.27009 0.798 0.1596 0.3683 0.34375 0.5279 0.04911 0.0368 0.09822 0.0737 0.06138 0.0491 0.13505 0.0614 0.11049 0 0.11049 0.0614t-0.14732 0.0614z"/>
			<path d="m27.913 353.59q-0.4788 0-0.92077-0.35603-0.44197-0.34375-0.76117-1.1418-0.11049-0.28237-0.1596-0.5893-0.04911-0.30692-0.04911-0.61384 0-0.50335 0.11049-1.0067 0.11049-0.50335 0.28237-0.94532 0.13505-0.3192 0.38058-0.71206 0.24554-0.40514 0.46652-0.66296 0.07366-0.0737 0.18415-0.1596 0.11049-0.0982 0.14732-0.0982 0.01228 0 0.01228 0.0123 0 0.0368-0.20871 0.29464-0.50335 0.61385-0.74889 1.3996-0.23326 0.77345-0.23326 1.5346 0 0.45424 0.07366 0.87166 0.08594 0.41741 0.22098 0.77344 0.25782 0.65068 0.55246 0.93305 0.30692 0.28237 0.6384 0.28237 0.41742 0 0.84711-0.35603t0.83483-0.94533q0.41742-0.58929 0.77345-1.2768 0.35603-0.6875 0.61384-1.3627 0.27009-0.68751 0.39286-1.2277l0.18415-0.76116q-0.06139-0.0123-0.06139-0.0491 0-0.0614 0.09821-0.12277 0.14732-0.66295 0.22098-1.3014 0.08594-0.6384 0.08594-1.1786 0-0.58929-0.11049-1.0313-0.09821-0.45425-0.33148-0.68751-0.09821-0.0982-0.22098-0.0982-0.08594 0-0.18415 0.0491-0.08594 0.0491-0.17188 0.12277-0.08594 0.0859-0.02455-0.0368 0.07366-0.13504 0.23326-0.29464 0.17188-0.1596 0.36831-0.1596 0.11049 0 0.22098 0.0737 0.39286 0.27009 0.55246 0.82255 0.17188 0.55246 0.17188 1.2768 0 0.4788-0.06139 1.0067-0.06138 0.52791-0.17188 1.0804 0.02455 0.0245 0.03683 0.0614 0.02455 0.0368 0.04911 0.0737 1.4855-0.4788 2.3817-1.019 0.90849-0.54018 1.3136-1.0926 0.41742-0.55246 0.41742-1.0558 0-0.52791-0.39286-0.94532-0.39286-0.41742-1.0804-0.66296-0.68751-0.24554-1.5837-0.24554-0.83483 0-1.731 0.23327-0.81028 0.22098-1.5469 0.65067-0.72434 0.41742-1.3014 0.93305-0.56474 0.51563-0.92077 1.019-0.34375 0.50336-0.39286 0.88394-0.02455 0.27009-0.09821 0.39286-0.06139 0.12277-0.12277 0.12277-0.18415 0-0.18415-0.44197 0-0.0614 0-0.12277 0.01228-0.0614 0.02455-0.12277 0.07366-0.55246 0.49108-1.1049 0.42969-0.55246 1.0804-1.0313 0.66295-0.49108 1.4487-0.87166 0.78572-0.38059 1.5714-0.58929 0.50335-0.13505 0.98215-0.19643 0.49108-0.0614 0.94532-0.0614 0.99443 0 1.7556 0.27009 0.76117 0.2701 1.1909 0.73662 0.42969 0.45424 0.42969 1.0435 0 0.49107-0.36831 1.0435-0.36831 0.55246-1.1786 1.1049-0.81028 0.55246-2.1362 1.0681-0.27009 0.0982-0.49108 0.17188-0.20871 0.0737-0.38058 0.13504 0.24554 0.44197 0.6384 1.0313 0.39286 0.5893 0.83483 1.1909 0.45425 0.60157 0.89622 1.0926 0.44197 0.49108 0.798 0.74889 0.22098 0.1596 0.51563 0.3192 0.30692 0.17188 0.58929 0.17188t0.42969-0.1596q0.14732-0.14732 0.20871-0.38059 0.06138-0.23326 0.06138-0.46652 0-0.798-0.46652-1.4732-0.03683-0.0614-0.03683-0.0737 0-0.0368 0.03683-0.0368 0.07366 0 0.14732 0.0982 0.24554 0.29465 0.39286 0.68751t0.14732 0.78573q0 0.60156-0.35603 1.0067-0.34375 0.41742-0.94532 0.41742-0.62612 0-1.1663-0.34376-0.52791-0.34375-0.98215-0.90849t-0.82255-1.2154q-0.36831-0.66296-0.65068-1.3014-0.28237-0.6384-0.49108-1.1295l-0.08594 0.0245q-0.19643 0.84711-0.45425 1.6451-0.24554 0.798-0.51563 1.4487-0.33148 0.81028-0.85938 1.5101-0.51563 0.71206-1.1295 1.1418-0.60157 0.42969-1.1909 0.42969z"/>
			<path d="m38.704 351.04q-0.40514 0-0.66295-0.24554-0.24554-0.24553-0.36831-0.62612-0.12277-0.39286-0.12277-0.82255 0-0.25782 0.04911-0.49108t0.09821-0.38058q-0.01228-0.0859-0.02455-0.17188 0-0.0982 0-0.19643 0-0.35603 0.07366-0.77345 0.07366-0.41741 0.23326-0.798 0.17188-0.38058 0.41742-0.61384 0.25782-0.24554 0.62612-0.24554 0.3192 0 0.62612 0.27009 0.30692 0.25782 0.54018 0.76117 0.13505 0.28237 0.18415 0.61385 0.06138 0.3192 0.06138 0.65067 0 0.45425-0.09822 0.90849-0.08594 0.44197-0.25782 0.83483-0.12277 0.28237-0.33148 0.60157-0.19643 0.30693-0.45425 0.51563-0.25782 0.20871-0.58929 0.20871zm0.06138-0.27009q0.41742 0 0.77345-0.57702 0.25782-0.40513 0.36831-0.92076 0.11049-0.52791 0.11049-1.0558 0-0.39286-0.04911-0.76117t-0.14732-0.71206q-0.08594-0.30692-0.29465-0.54018-0.19643-0.24554-0.56474-0.20871-0.29465 0.0246-0.51563 0.29464-0.22098 0.2701-0.34375 0.61385-0.11049 0.33148-0.11049 0.57702 0 0.13504 0.03683 0.2087 0.03683-0.0982 0.18415-0.3192 0.14732-0.23326 0.33148-0.41741 0.18415-0.19643 0.34375-0.19643 0.13505 0 0.13505 0.11049-0.1596 0.0123-0.3192 0.19643-0.14732 0.17188-0.28237 0.41742-0.12277 0.24553-0.20871 0.49107-0.07366 0.23326-0.11049 0.36831-0.01228 0.0491-0.03683 0.12277-0.02455 0.0737-0.02455 0.14732 0 0.0859 0.09821 0.28237 0.09822 0.18416 0.3192 0.34375 0.22098 0.1596 0.60157 0.1596 0.11049 0 0.23326-0.0246 0.12277-0.0245 0.23326-0.0491l0.08594-0.0245q0.02455 0 0.02455 0.0245 0 0.0368-0.08594 0.0982-0.07366 0.0491-0.13505 0.0737-0.17188 0.0859-0.38058 0.0859-0.30692 0-0.58929-0.18416-0.27009-0.19643-0.4788-0.44196-0.01228 0.0982-0.01228 0.19643 0 0.0859 0 0.17187 0 0.71206 0.24554 1.0804t0.56474 0.36831z"/>
			<path d="m41.233 351.18q-0.29465 0-0.44197-0.25781-0.14732-0.24554-0.14732-0.62612 0-0.2701 0.11049-0.67523 0.11049-0.40514 0.30692-0.84711 0.19643-0.44197 0.44197-0.82255 0.24554-0.39287 0.50335-0.62613 0.27009-0.24554 0.52791-0.24554 0.20871 0 0.29465 0.1596 0.09822 0.14733 0.09822 0.3192 0 0.14733-0.06139 0.2701-0.04911 0.11049-0.14732 0.11049-0.09822 0-0.14732-0.0859-0.03683-0.0982-0.07366-0.19643-0.02455-0.0982-0.13505-0.0982-0.22098 0-0.44197 0.28237-0.22098 0.28237-0.40514 0.71206-0.18415 0.4297-0.29465 0.89622-0.11049 0.45425-0.11049 0.81028 0 0.25781 0.06139 0.40513 0.07366 0.1596 0.23326 0.1596 0.20871 0 0.41742-0.25781 0.22098-0.27009 0.42969-0.68751 0.20871-0.42969 0.38058-0.89621 0.18415-0.46653 0.30692-0.87166 0.13505-0.41742 0.20871-0.66296 0.09821-0.85938 0.23326-1.731 0.14732-0.87166 0.42969-1.6942 0.03683-0.13504 0.11049-0.23326 0.08594-0.0982 0.17188-0.0982 0.09822 0 0.1596 0.13505 0.07366 0.13505 0.07366 0.30692 0 0.13505-0.04911 0.28237-0.04911 0.14733-0.12277 0.39286-0.08594 0.29465-0.22098 0.78573-0.12277 0.4788-0.25782 1.0926-0.13505 0.60157-0.23326 1.2891-0.08594 0.67523-0.08594 1.3505 0 0.51563 0.07366 0.72434t0.19643 0.20871q0.13505 0 0.29465-0.17188 0.17188-0.17188 0.33148-0.41742 0.17188-0.24553 0.30692-0.49107 0.13505-0.25782 0.20871-0.40514 0.13505-0.27009 0.20871-0.27009 0.04911 0 0.04911 0.11049 0 0.0859-0.03683 0.18415-0.07366 0.1596-0.09821 0.24554-0.02455 0.0737-0.06139 0.14732-0.02455 0.0737-0.12277 0.23327-0.08594 0.14732-0.27009 0.40513-0.18415 0.24554-0.41742 0.45425-0.23326 0.19643-0.46652 0.19643-0.23326 0-0.35603-0.19643-0.11049-0.19643-0.14732-0.50335-0.02455-0.3192-0.02455-0.65068 0-0.40514 0.03683-0.85938-0.08594 0.29464-0.23326 0.69978-0.14732 0.39286-0.33148 0.798t-0.39286 0.73661q-0.17188 0.2701-0.38058 0.46653-0.20871 0.2087-0.49108 0.2087z"/>
			<path d="m45.604 350.77q-0.44197 0-0.77345-0.51563-0.3192-0.52791-0.3192-1.6574 0-0.73662 0.18415-1.1786 0.18415-0.45424 0.45425-0.66295t0.51563-0.20871q0.24554 0 0.41742 0.17188 0.17188 0.1596 0.17188 0.46652 0 0.29465-0.17188 0.62612-0.17188 0.3192-0.41742 0.58929-0.23326 0.25782-0.46652 0.34376-0.04911 0.0245-0.12277 0.0245-0.04911 0-0.04911-0.0368 0-0.0982 0.19643-0.22098 0.24554-0.17188 0.46652-0.51563 0.22098-0.35603 0.22098-0.62613 0-0.1596-0.07366-0.24554-0.07366-0.0982-0.17188-0.0982-0.18415 0-0.40514 0.29465-0.20871 0.28236-0.30692 0.98215-0.02455 0.19643-0.04911 0.38058-0.01228 0.17188-0.01228 0.34376 0 0.6875 0.20871 1.0804 0.20871 0.38058 0.55246 0.38058 0.29465 0 0.66295-0.34375 0.36831-0.35603 0.72434-1.1049 0.08594-0.19643 0.19643-0.19643 0.07366 0 0.07366 0.0982 0 0.0859-0.04911 0.18415-0.3192 0.78573-0.77345 1.2154t-0.88394 0.42969z"/>
			<path d="m49.545 350.77q-0.1596 0-0.28237-0.19643-0.12277-0.20871-0.12277-0.78572 0-0.45425 0.07366-0.99443 0.07366-0.55247 0.1596-1.0926 0.09822-0.54018 0.17188-0.9576 0.07366-0.42969 0.07366-0.62612 0-0.34376-0.20871-0.34376-0.19643 0-0.40514 0.19643-0.19643 0.19644-0.38058 0.4788-0.17188 0.28237-0.30692 0.55247-0.12277 0.25781-0.1596 0.38058-0.17188 0.4788-0.24554 0.9576-0.07366 0.46652-0.07366 0.96988 0 0.2087 0.01228 0.42969 0.02455 0.22098 0.03683 0.45424 0.02455 0.12277-0.07366 0.30693-0.08594 0.17187-0.20871 0.17187-0.08594 0-0.14732-0.11049-0.06138-0.11049-0.08594-0.19643-0.04911-0.14732-0.07366-0.30692-0.02455-0.17188-0.04911-0.29465-0.08594-0.50335-0.1596-1.019-0.07366-0.52791-0.20871-1.019-0.03683-0.13504-0.09822-0.28237-0.04911-0.1596-0.1596-0.25781-0.02455-0.0245-0.07366-0.0491-0.04911-0.0368-0.04911-0.0614 0-0.0491 0.13505-0.0491 0.14732 0 0.29465 0.14732 0.14732 0.14733 0.27009 0.39286 0.14732 0.30693 0.24554 0.65068 0.11049 0.34375 0.17188 0.55246 0.07366-0.44197 0.1596-0.78572 0.08594-0.29465 0.23326-0.69979 0.14732-0.41741 0.36831-0.81027 0.22098-0.40514 0.52791-0.66296 0.30692-0.27009 0.71206-0.27009 0.58929 0 0.58929 0.68751 0 0.35603-0.12277 0.78572-0.12277 0.41742-0.27009 0.77345-0.13505 0.35603-0.18415 0.49108-0.06138 0.17187-0.13505 0.46652-0.06139 0.29464-0.11049 0.61384-0.03683 0.3192-0.03683 0.5893 0 0.23326 0.04911 0.39286 0.06139 0.14732 0.18415 0.14732 0.12277 0 0.22098-0.11049 0.09822-0.12277 0.1596-0.22099 0.07366-0.0982 0.07366-0.0368 0.02455 0.18416-0.13505 0.41742-0.14732 0.23326-0.35603 0.23326z"/>
		</g>
	</g>
</svg>
